<svg width="1024" height="1024" viewBox="0 0 1024 1024" fill="none" xmlns="http://www.w3.org/2000/svg">
<path d="M110.7 595H74.5V437H112.9L163.1 521.6L213.3 437H251.7V595H215.5V530L217.5 491L176.9 564.2H149.3L108.7 491L110.7 530V595ZM271.773 543C271.773 509.4 297.573 487 332.173 487C366.773 487 392.573 509.4 392.573 543C392.573 576.6 366.773 599 332.173 599C297.573 599 271.773 576.6 271.773 543ZM309.373 543C309.373 557.4 318.573 567.8 332.173 567.8C345.773 567.8 354.973 557.4 354.973 543C354.973 528.6 345.773 518.2 332.173 518.2C318.573 518.2 309.373 528.6 309.373 543ZM501.386 492.8L490.386 528.4C484.186 524.4 476.986 522 468.986 522C456.786 522 447.186 531.6 447.186 548V595H409.586V491H447.186V508.4C452.186 494.2 463.186 487 475.986 487C484.786 487 493.786 489 501.386 492.8ZM500.875 543C500.875 509.4 523.275 487 553.275 487C566.475 487 577.475 493 584.075 502.8V491H620.875V595H584.075V583.2C577.475 593.6 566.475 599 553.275 599C523.275 599 500.875 576.6 500.875 543ZM538.475 543C538.475 557.4 547.675 567.8 561.275 567.8C574.875 567.8 584.075 557.4 584.075 543C584.075 528.6 574.875 518.2 561.275 518.2C547.675 518.2 538.475 528.6 538.475 543ZM637.789 543C637.789 509.4 660.189 487 690.189 487C703.389 487 714.389 492 720.989 500.8V433H757.789V595H720.989V583.2C714.389 593.6 703.389 599 690.189 599C660.189 599 637.789 576.6 637.789 543ZM675.389 543C675.389 557.4 684.589 567.8 698.189 567.8C711.789 567.8 720.989 557.4 720.989 543C720.989 528.6 711.789 518.2 698.189 518.2C684.589 518.2 675.389 528.6 675.389 543ZM799.303 476.6C786.703 476.6 776.903 466.8 776.903 454.8C776.903 442.8 786.703 433 799.303 433C811.903 433 821.703 442.8 821.703 454.8C821.703 466.8 811.903 476.6 799.303 476.6ZM780.703 595V491H817.903V595H780.703ZM835.836 543C835.836 509.4 861.636 487 896.236 487C930.836 487 956.636 509.4 956.636 543C956.636 576.6 930.836 599 896.236 599C861.636 599 835.836 576.6 835.836 543ZM873.436 543C873.436 557.4 882.636 567.8 896.236 567.8C909.836 567.8 919.036 557.4 919.036 543C919.036 528.6 909.836 518.2 896.236 518.2C882.636 518.2 873.436 528.6 873.436 543Z" fill="#DC2E2E"/>
</svg>
