<svg width="883" height="166" viewBox="0 0 883 166" fill="none" xmlns="http://www.w3.org/2000/svg">
<path d="M36.2 162H5.96046e-08V4H38.4L88.6 88.6L138.8 4H177.2V162H141V97L143 58L102.4 131.2H74.8L34.2 58L36.2 97V162ZM197.273 110C197.273 76.4 223.073 54 257.673 54C292.273 54 318.073 76.4 318.073 110C318.073 143.6 292.273 166 257.673 166C223.073 166 197.273 143.6 197.273 110ZM234.873 110C234.873 124.4 244.073 134.8 257.673 134.8C271.273 134.8 280.473 124.4 280.473 110C280.473 95.6 271.273 85.2 257.673 85.2C244.073 85.2 234.873 95.6 234.873 110ZM426.886 59.8L415.886 95.4C409.686 91.4 402.486 89 394.486 89C382.286 89 372.686 98.6 372.686 115V162H335.086V58H372.686V75.4C377.686 61.2 388.686 54 401.486 54C410.286 54 419.286 56 426.886 59.8ZM426.375 110C426.375 76.4 448.775 54 478.775 54C491.975 54 502.975 60 509.575 69.8V58H546.375V162H509.575V150.2C502.975 160.6 491.975 166 478.775 166C448.775 166 426.375 143.6 426.375 110ZM463.975 110C463.975 124.4 473.175 134.8 486.775 134.8C500.375 134.8 509.575 124.4 509.575 110C509.575 95.6 500.375 85.2 486.775 85.2C473.175 85.2 463.975 95.6 463.975 110ZM563.289 110C563.289 76.4 585.689 54 615.689 54C628.889 54 639.889 59 646.489 67.8V-1.00136e-05H683.289V162H646.489V150.2C639.889 160.6 628.889 166 615.689 166C585.689 166 563.289 143.6 563.289 110ZM600.889 110C600.889 124.4 610.089 134.8 623.689 134.8C637.289 134.8 646.489 124.4 646.489 110C646.489 95.6 637.289 85.2 623.689 85.2C610.089 85.2 600.889 95.6 600.889 110ZM724.803 43.6C712.203 43.6 702.403 33.8 702.403 21.8C702.403 9.79999 712.203 -1.00136e-05 724.803 -1.00136e-05C737.403 -1.00136e-05 747.203 9.79999 747.203 21.8C747.203 33.8 737.403 43.6 724.803 43.6ZM706.203 162V58H743.403V162H706.203ZM761.336 110C761.336 76.4 787.136 54 821.736 54C856.336 54 882.136 76.4 882.136 110C882.136 143.6 856.336 166 821.736 166C787.136 166 761.336 143.6 761.336 110ZM798.936 110C798.936 124.4 808.136 134.8 821.736 134.8C835.336 134.8 844.536 124.4 844.536 110C844.536 95.6 835.336 85.2 821.736 85.2C808.136 85.2 798.936 95.6 798.936 110Z" fill="#DC2E2E"/>
</svg>
