<svg width="640" height="640" viewBox="0 0 640 640" fill="none" xmlns="http://www.w3.org/2000/svg">
<rect width="640" height="640" fill="#003876"/>
<path fill-rule="evenodd" clip-rule="evenodd" d="M237.121 271.655L230.552 230.982H180.828L170.396 245.672L197.448 283.258L237.121 271.655Z" fill="white"/>
<path fill-rule="evenodd" clip-rule="evenodd" d="M170.327 245.775L84.8789 361.413H136.965L163.827 326.741H168.206L168.258 318.931L128.138 303.724L167.569 292.069L170.327 245.775Z" fill="white"/>
<path fill-rule="evenodd" clip-rule="evenodd" d="M237.172 271.967L212 306.07L235.517 341.95L194.81 328.398L193.586 329.915L199.138 361.777H251.914L237.172 271.967Z" fill="white"/>
<path fill-rule="evenodd" clip-rule="evenodd" d="M386.293 266.879H330.396L324.862 290.361H380.603L372.672 322.999H316.931L307.741 361.81H253.275L284.603 230.861H394.982L386.293 266.879Z" fill="white"/>
<path fill-rule="evenodd" clip-rule="evenodd" d="M508.12 361.861L464.482 361.482L433.344 298.034L419.62 361.93L373.517 361.81L404.31 231.068H449.844L480.586 291.034L495.982 230.947H539.706L508.12 361.861Z" fill="white"/>
<path fill-rule="evenodd" clip-rule="evenodd" d="M205.983 306.534L227.466 279.034L194.173 288.586L174.19 258.172L172.414 294.827L140.155 304.103L171.414 315.551L169.621 353.069L192.81 323.379L224.741 335.086L205.983 306.534Z" fill="white"/>
<path fill-rule="evenodd" clip-rule="evenodd" d="M200.602 305.863L216.465 285.553L191.896 292.605L177.137 270.156L175.827 297.225L151.999 304.053L175.085 312.518L173.758 340.225L190.878 318.294L214.465 326.932L200.602 305.863Z" fill="white"/>
<path d="M540.517 369.775H84V409.138H540.517V369.775Z" fill="white"/>
<path d="M228.551 375.259H238.378V383.949L246.568 375.259H257.051L246.93 386.484L258.292 403.449H246.965L240.671 392.604L238.378 394.863V403.432H228.551V375.242V375.259Z" fill="#003876"/>
<path d="M289.292 400.932C286.913 403.104 283.447 404.173 278.93 404.173C274.413 404.173 270.965 403.087 268.568 400.932C265.361 398.276 263.758 394.449 263.758 389.449C263.758 384.449 265.361 380.535 268.568 377.966C270.947 375.811 274.413 374.725 278.93 374.725C283.447 374.725 286.896 375.811 289.292 377.966C292.482 380.518 294.068 384.345 294.068 389.449C294.068 394.552 292.482 398.276 289.292 400.932ZM282.947 395.449C283.947 394.052 284.43 392.052 284.43 389.466C284.43 386.88 283.93 384.897 282.947 383.483C281.947 382.069 280.62 381.38 278.93 381.38C277.241 381.38 275.896 382.087 274.879 383.483C273.879 384.88 273.361 386.88 273.361 389.466C273.361 392.052 273.861 394.052 274.879 395.449C275.879 396.863 277.241 397.552 278.93 397.552C280.62 397.552 281.965 396.845 282.947 395.449Z" fill="#003876"/>
<path d="M323.431 376.155C324.413 376.568 325.258 377.189 325.948 378C326.517 378.672 326.965 379.396 327.31 380.224C327.638 381.034 327.81 381.965 327.81 383C327.81 384.258 327.482 385.482 326.844 386.689C326.207 387.896 325.327 389.706 323.844 390.206C325.086 390.689 326.344 391.844 326.844 392.741C327.362 393.637 327.62 395.017 327.62 396.862V398.638C327.62 399.844 327.672 400.655 327.775 401.086C327.913 401.758 328.31 402.344 328.862 402.655L328.81 403.672L318.982 403.465C318.81 402.879 319.138 401.965 319.069 401.62C318.931 400.879 318.844 400.12 318.827 399.344L318.793 396.896C318.776 395.224 318.465 395.155 317.896 394.603C317.327 394.051 316.258 393.758 314.689 393.758H311.224V403.465H301.431V375.275L319.189 375.482C321.034 375.517 322.448 375.741 323.431 376.155ZM311.224 381.844V387.706H315.017C316.155 387.706 317 387.586 317.569 387.344C318.569 386.931 319.069 386.12 319.069 384.896C319.069 383.569 318.586 382.689 317.62 382.241C317.069 381.982 316.258 381.862 315.172 381.862H311.224V381.844Z" fill="#003876"/>
<path d="M360.378 382.017H346.636V385.827H358.447V392.465H346.636V397H361.033V403.465H336.774V375.275H360.378V382.034V382.017Z" fill="#003876"/>
<path d="M377.034 375.26H386.327L396.517 403.449H387.5L386.379 399.725L376.793 399.674L375.62 403.449H366.689L377.052 375.26H377.034ZM378.327 393.777H384.655L381.741 383.708L378.327 393.777Z" fill="#003876"/>
<path d="M535.086 354.396C535.086 357.793 532.948 359.5 528.689 359.5C527.138 359.5 525.741 359.293 524.534 358.913L524.965 356.758C526.362 357.293 527.672 357.551 528.931 357.551C531.741 357.551 533.155 356.672 533.155 354.913C533.155 354.017 532.793 353.258 532.069 352.62C531.586 352.207 530.62 351.638 529.189 350.931C527.689 350.189 526.62 349.5 526.017 348.879C525.172 348.017 524.758 346.931 524.758 345.62C524.758 344.31 525.189 343.155 526.034 342.31C526.982 341.362 528.327 340.879 530.069 340.879C532.034 340.879 533.396 341.017 534.12 341.31L533.827 343.5C532.569 343.069 531.224 342.844 529.81 342.844C527.672 342.844 526.62 343.638 526.62 345.206C526.62 345.965 526.931 346.603 527.534 347.12C527.931 347.448 528.81 347.931 530.172 348.586C531.724 349.327 532.845 350.034 533.534 350.707C534.569 351.707 535.086 352.948 535.086 354.431V354.396Z" fill="white"/>
<path d="M556 359.052H553.655C553.655 357.001 553.534 354.052 553.276 350.173C553.017 346.294 552.879 343.983 552.862 343.208H552.741C551.914 346.19 550.862 349.432 549.586 352.915C548.31 356.415 547.672 358.449 547.672 359.052H546C546 358.415 545.414 356.328 544.224 352.811C543.034 349.294 542.293 346.932 541.982 345.742C541.672 344.552 541.448 343.708 541.345 343.208H541.224C541.189 344.466 541.034 347.001 540.724 350.828C540.414 354.656 540.276 357.397 540.276 359.07H538.138C538.138 358.984 538.414 356.449 538.983 351.484C539.551 346.518 539.827 343.07 539.827 341.139H543.103C543.103 342.156 543.758 344.673 545.086 348.708C546.414 352.742 547.069 355.19 547.069 356.052H547.189C547.189 355.208 547.931 352.742 549.431 348.69C550.931 344.639 551.672 342.121 551.672 341.139H554.862C554.862 343.07 555.051 346.518 555.431 351.432C555.81 356.363 556 358.915 556 359.07V359.052Z" fill="white"/>
</svg>
