<svg width="640" height="640" viewBox="0 0 640 640" fill="none" xmlns="http://www.w3.org/2000/svg">
<rect width="640" height="640" fill="#B49231"/>
<g clip-path="url(#clip0_2_550)">
<mask id="mask0_2_550" style="mask-type:luminance" maskUnits="userSpaceOnUse" x="27" y="-144" width="604" height="853">
<path d="M27.3564 -143.547H630.144V708.967H27.3564V-143.547Z" fill="white"/>
</mask>
<g mask="url(#mask0_2_550)">
<path d="M275.498 335.573C275.498 335.573 268.325 346.01 258.052 342.585C258.052 342.585 247.777 338.182 257.725 323.995C257.725 323.995 266.367 314.211 275.173 318.941C275.173 318.941 283.326 324.322 275.498 335.573ZM255.075 295.051C255.075 295.051 263.718 285.266 272.524 289.996C272.524 289.996 280.676 295.377 272.85 306.628C272.85 306.628 265.674 317.064 255.402 313.642C255.402 313.642 245.127 309.239 255.075 295.051ZM247.125 332.536C247.125 332.536 239.951 342.972 229.678 339.549C229.678 339.549 219.405 335.146 229.353 320.957C229.353 320.957 237.994 311.175 246.8 315.902C246.8 315.902 254.953 321.285 247.125 332.536ZM278.882 283.801C254.422 276.137 235.018 296.682 235.018 296.682C214.308 318.37 218.385 336.469 218.385 336.469C221.32 361.745 247.085 357.667 247.085 357.667C286.709 350.331 292.907 313.478 292.907 313.478C297.309 290.159 278.882 283.801 278.882 283.801Z" fill="white"/>
<path d="M98.6749 337.973H94.5991V319.749C94.5991 319.749 106.735 318.16 106.502 328.677C106.502 328.677 106.869 337.239 98.6749 337.973ZM94.5991 300.794C94.5991 300.794 96.9626 298.471 102.221 300.918C102.221 300.918 106.991 303.118 106.012 309.355C106.012 309.355 105.402 317.672 94.5171 316.448L94.5991 300.794ZM104.79 318.037V317.183C120.689 314.248 115.43 302.506 115.43 302.506C112.863 297.002 102.936 296.759 102.936 296.759H83.999V341.52H99.0425C118.243 341.52 117.265 328.677 117.265 328.677C118.243 319.505 104.79 318.037 104.79 318.037Z" fill="white"/>
<path d="M146.372 337.973H142.294V319.749C142.294 319.749 154.433 318.16 154.199 328.677C154.199 328.677 154.566 337.239 146.372 337.973ZM142.294 300.794C142.294 300.794 144.66 298.471 149.918 300.918C149.918 300.918 154.687 303.118 153.71 309.355C153.71 309.355 153.097 317.672 142.214 316.448L142.294 300.794ZM152.487 318.037V317.183C168.385 314.248 163.127 302.506 163.127 302.506C160.559 297.002 150.631 296.759 150.631 296.759H131.695V341.52H146.738C165.94 341.52 164.962 328.677 164.962 328.677C165.94 319.505 152.487 318.037 152.487 318.037Z" fill="white"/>
<path d="M204.829 299.939L202.629 306.054H201.772C201.772 306.054 199.081 299.082 191.866 300.305C191.866 300.305 183.672 301.161 185.629 308.745C185.629 308.745 185.629 310.945 189.787 313.147L199.571 318.038C199.571 318.038 209.355 322.931 206.909 331.615C206.909 331.615 205.931 342.254 190.888 343.478C190.888 343.478 184.406 344.455 176.702 340.666L179.026 333.082H179.882C179.882 333.082 180.981 339.564 188.319 340.175C188.319 340.175 198.838 341.275 198.47 332.592C198.47 332.592 198.47 328.312 191.745 325.499L184.161 321.952C184.161 321.952 175.845 317.795 177.436 308.866C177.436 308.866 177.802 299.082 190.52 296.758C190.52 296.758 200.306 296.148 204.829 299.939Z" fill="white"/>
<path d="M313.216 306.414H348.568V309.472H313.216V306.414ZM308.534 314.631H356.02V298.292H348.473V301.254H313.312V298.292L305.572 298.388V310.427C305.572 315.018 308.534 314.631 308.534 314.631Z" fill="white"/>
<path d="M357.166 322.273V316.827H304.425V319.026C304.521 322.083 307.195 321.989 307.195 321.989H327.357V324.28H305.189V329.44H348.473V331.733H305.381V340.811C305.641 344.719 309.107 344.537 309.107 344.537H356.116V339.09H313.407V336.638H356.116V324.28H334.904V322.273H357.166Z" fill="white"/>
<path d="M370.257 299.249H417.745C417.745 299.249 420.417 299.249 420.417 302.496V333.645H412.966V304.696H372.742C372.742 304.696 370.544 305.268 370.257 301.254V299.249Z" fill="white"/>
<path d="M377.807 310.14H384.97V328.008L398.252 310.14C398.252 310.14 399.876 308.327 402.455 309.09C402.455 309.09 404.844 309.472 404.844 312.722V339.091H421.565V344.346H371.978C371.978 344.346 369.493 344.155 369.493 341.575V339.091H397.582V318.74L384.492 336.607C384.492 336.607 383.251 338.517 380.959 337.754C380.959 337.754 378.092 337.18 377.9 333.741L377.807 310.14Z" fill="white"/>
<path d="M486.251 298.291V307.941H492.65V313.005H486.347V323.133H479.466V298.291H486.251Z" fill="white"/>
<path d="M442.777 309.375H464.656V316.734H442.777V309.375ZM438.668 322.083H471.822V298.292H464.56V304.024H442.777V298.292L435.515 298.388V318.357C435.705 322.561 438.668 322.083 438.668 322.083Z" fill="white"/>
<path d="M475.165 339.472C475.165 339.472 460.07 341.765 447.075 339.663C447.075 339.663 443.636 339.185 443.444 335.173C443.444 335.173 443.541 331.064 449.08 330.682C449.08 330.682 462.267 329.823 475.165 330.97C475.165 330.97 479.18 331.254 479.18 335.268C479.18 335.268 479.084 338.611 475.165 339.472ZM478.224 326.383C467.235 324.567 447.934 325.905 447.934 325.905C435.133 326.764 435.993 335.173 435.993 335.173C436.088 344.441 445.548 344.823 445.548 344.823C466.089 346.351 478.224 344.631 478.224 344.631C486.535 343.199 486.535 335.268 486.535 335.268C486.25 327.051 478.224 326.383 478.224 326.383Z" fill="white"/>
<path d="M543.64 338.993C543.64 338.993 528.542 341.288 515.547 339.185C515.547 339.185 512.108 338.709 511.917 334.696C511.917 334.696 512.014 330.587 517.555 330.204C517.555 330.204 530.742 329.345 543.64 330.491C543.64 330.491 547.652 330.778 547.652 334.791C547.652 334.791 547.557 338.135 543.64 338.993ZM546.697 325.904C535.709 324.089 516.407 325.428 516.407 325.428C503.605 326.286 504.465 334.696 504.465 334.696C504.561 343.961 514.021 344.345 514.021 344.345C534.562 345.874 546.697 344.155 546.697 344.155C555.009 342.722 555.009 334.791 555.009 334.791C554.722 326.573 546.697 325.904 546.697 325.904Z" fill="white"/>
<path d="M529.531 303.835C535.36 310.618 554.756 310.523 554.756 310.523V305.171C533.736 304.598 533.065 297.623 533.065 297.623H525.422C523.417 305.267 503.828 305.267 503.828 305.267V310.618C525.711 310.523 529.531 303.835 529.531 303.835Z" fill="white"/>
<path d="M533.163 309.471H525.518L525.422 316.35H502.779V318.93C502.97 321.892 505.262 321.702 505.262 321.702H555.999V316.255H533.163V309.471Z" fill="white"/>
</g>
</g>
<defs>
<clipPath id="clip0_2_550">
<rect width="472" height="75.8216" fill="white" transform="translate(84 282.089)"/>
</clipPath>
</defs>
</svg>
