<svg width="640" height="640" viewBox="0 0 640 640" fill="none" xmlns="http://www.w3.org/2000/svg">
<rect width="640" height="640" fill="#004DA1"/>
<g clip-path="url(#clip0_2_526)">
<path d="M390.203 318.13C381.274 309.05 373.033 304.287 359.208 302.637C370.386 300.749 378.401 295.844 382.407 289.765C387.374 282.209 388.707 274.728 388.062 264.282C387.275 251.366 382.352 243.82 373.512 237.187C364.728 230.547 349.845 226.193 328.949 226.193H256.295V413.644H327.501C350.502 413.644 368.497 408.475 381.575 398.195C394.618 387.921 401.137 373.337 401.137 354.504C401.137 339.116 399.085 327.218 390.203 318.13ZM302.917 252.531H316.675C325.437 252.531 332.202 253.91 336.396 257.454C342.185 262.359 343.329 266.385 342.942 276.283C342.664 283.148 340.98 287.394 337.075 291.042C333.143 294.704 326.441 296.544 316.982 296.544H302.916V252.531H302.917ZM348.87 368.796C343.463 374.764 331.986 376.087 318.869 376.087H302.917V321.322H316.377C330.138 321.322 340.765 323.561 347.086 328.959C352.39 333.497 355.673 337.053 355.63 348.928C355.59 357.421 354.585 362.482 348.87 368.796ZM151.389 267.774C160.288 258.624 170.534 255.635 184.77 253.532C194.975 252.036 206.905 252.669 213.898 252.531C220.172 252.408 223.387 252.531 230.52 252.531V226.194H210.773C202.752 226.194 194.959 226.225 181.51 226.696C149.037 227.82 131.39 235.18 113.254 251.694C95.0722 268.26 84 291.393 84 318.669V319.519C84 346.836 93.7298 373.497 111.9 390.016C120.898 398.231 132.863 403.519 145.174 407.402C157.687 411.345 176.077 413.837 211.198 413.837C219.225 413.837 221.9 413.924 230.52 413.837V375.642C222.825 375.642 219.648 375.67 212.831 375.67C205.924 375.67 198.08 375.813 186.367 374.092C165.063 370.965 152.731 361.804 143.995 351.904C130.718 336.858 133.214 311.777 133.214 311.777C135.136 288.041 141.299 278.155 151.389 267.774ZM481.365 252.384C481.365 252.384 456.996 251.171 457.642 275.299C457.642 275.299 457.266 287.761 474.851 294.676C474.851 294.676 516.453 312.039 524.754 315.746C524.754 315.746 559.14 328.509 555.767 364.761C555.767 364.761 554.597 389.988 533.194 403.937C533.194 403.937 521.735 413.371 494.142 413.229H412.263V375.75H476.559C476.559 375.75 497.076 375.95 501.467 362.621C501.467 362.621 505.06 348.704 494.593 342.386C494.593 342.386 491.602 339.89 481.376 335.638C481.376 335.638 445.795 321.818 437.54 317.311C437.54 317.311 419.982 308.922 414.598 295.229C414.598 295.229 406.32 277.031 413.141 259.926C413.141 259.926 420.258 239.465 439.548 232.016C439.548 232.016 452.597 225.861 469.251 226.134L541.793 226.193V252.384H481.365Z" fill="white"/>
</g>
<defs>
<clipPath id="clip0_2_526">
<rect width="472" height="187.856" fill="white" transform="translate(84 226.072)"/>
</clipPath>
</defs>
</svg>
