<svg width="640" height="640" viewBox="0 0 640 640" fill="none" xmlns="http://www.w3.org/2000/svg">
<rect width="640" height="640" fill="#4D4D4C"/>
<g clip-path="url(#clip0_2_562)">
<path d="M99.9451 281.514C91.1405 281.514 84 288.957 84 298.155V342.541C84 351.739 91.1405 359.182 99.9451 359.182H126.541V342.541H105.27C102.335 342.541 99.9451 340.06 99.9451 337.004V303.722C99.9451 300.666 102.335 298.185 105.27 298.185H126.541V281.544H99.9451V281.514ZM296.733 298.155V281.514H270.137C261.333 281.514 254.192 288.957 254.192 298.155V342.541C254.192 351.739 261.333 359.182 270.137 359.182H296.733V342.541H275.463C272.528 342.541 270.137 340.06 270.137 337.004V303.722C270.137 300.666 272.528 298.185 275.463 298.185L296.733 298.155ZM185.056 287.051C185.056 283.995 182.666 281.514 179.731 281.514H137.191V386.897H153.136V298.155H166.449C167.901 298.155 169.111 299.395 169.111 300.938V339.757C169.111 341.3 167.931 342.541 166.449 342.541H153.166C153.166 351.739 160.307 359.182 169.111 359.182H179.762C182.696 359.182 185.087 356.701 185.087 353.645V298.155L185.056 287.051ZM243.542 287.051C243.542 283.995 241.152 281.514 238.217 281.514H227.567C218.762 281.514 211.622 288.957 211.622 298.155V253.769H195.676V359.152H238.217C241.152 359.152 243.542 356.671 243.542 353.615V287.051ZM227.597 339.757C227.597 341.3 226.417 342.541 224.934 342.541H211.652V298.155H224.965C226.417 298.155 227.627 299.395 227.627 300.938V339.757H227.597Z" fill="white"/>
<path d="M349.681 327.261C360.059 327.261 367.624 319.546 367.624 308.896V300.333C367.624 288.019 361.058 281.514 348.622 281.514H323.328V359.182H332.556V327.261H338.214L359.212 359.182H369.651L348.622 327.261H349.681ZM332.526 319.97V289.108H346.141C355.067 289.108 358.395 292.224 358.395 300.636V307.413C358.395 315.159 356.459 319.97 346.898 319.97H332.526ZM419.301 346.02V314.1C419.301 303.843 414.733 299.274 404.446 299.274H397.305C393.13 299.274 387.199 300.061 384.144 301.755L383.962 301.846V307.655H402.963C408.53 307.655 410.497 308.744 410.497 314.856V324.629H397.184C388.985 324.629 380.21 328.774 380.21 340.453V346.232C380.21 354.613 385.868 360.483 393.977 360.483H399.423C405.474 360.483 409.68 358.153 411.889 353.584H412.01L412.645 359.152H420.391L420.149 357.457C419.725 354.341 419.301 351.678 419.301 346.02ZM410.527 343.025C410.527 351.951 404.355 352.889 401.692 352.889H396.458C391.466 352.889 389.015 350.468 389.015 345.476V340.151C389.015 334.009 391.708 331.618 398.576 331.618H410.497V343.025H410.527ZM465.11 303.51C462.447 300.424 457.364 299.304 453.612 299.304H449.981C439.967 299.304 433.976 305.719 433.976 316.46V344.144C433.976 355.158 439.543 360.513 450.95 360.513H452.644C456.789 360.513 462.175 359.121 465.412 355.249L465.896 359.182H473.884V281.514H465.11V303.51ZM465.11 350.468C462.538 351.89 459.754 352.768 454.157 352.768H450.738C445.231 352.768 442.75 350.286 442.75 344.659V315.31C442.75 309.713 445.231 306.99 450.284 306.99H454.974C459.058 306.99 462.175 307.716 465.079 309.289V350.468H465.11ZM491.13 359.152H499.905V300.636H491.13V359.152ZM537.422 299.304H533.489C520.872 299.304 515.245 305.083 515.245 318.003V341.905C515.245 354.946 520.691 360.513 533.489 360.513H537.422C550.1 360.513 556 354.795 556 342.48V317.337C556 305.023 550.1 299.304 537.422 299.304ZM547.226 342.904C547.226 349.016 545.804 353.1 538.814 353.1H532.43C525.441 353.1 524.019 349.288 524.019 343.116V316.672C524.019 310.499 525.411 306.687 532.43 306.687H538.814C545.773 306.687 547.226 310.772 547.226 316.883V342.904ZM491.13 290.681H499.905V281.514H491.13V290.681Z" fill="white"/>
</g>
<defs>
<clipPath id="clip0_2_562">
<rect width="472" height="133.128" fill="white" transform="translate(84 253.436)"/>
</clipPath>
</defs>
</svg>
