<svg width="640" height="640" viewBox="0 0 640 640" fill="none" xmlns="http://www.w3.org/2000/svg">
<rect width="640" height="640" fill="#F68712"/>
<g clip-path="url(#clip0_2_438)">
<path d="M394.351 289.681V310.157H422.851V330.969H394.351V372.102H370.613V269.205H428.986V289.681H394.351Z" fill="white"/>
<path d="M532.685 372.102C530.77 349.348 529.682 336.715 529.475 334.205C529.009 328.225 528.543 321.779 528.543 315.178H528.259C525.955 321.779 522.9 328.717 519.975 334.671C518.759 337.207 512.624 349.762 501.596 372.412H492.096C480.965 349.762 474.804 337.207 473.562 334.671C470.637 328.717 467.737 321.935 465.278 315.334H464.968C464.968 322.09 464.502 328.38 464.062 334.205C463.855 336.715 462.845 349.348 460.981 372.102H438.176L446.589 269.205H465.9C478.687 295.143 485.78 309.535 487.204 312.435C490.103 318.388 494.4 327.578 496.989 334.36H497.299C499.758 327.578 503.279 319.527 506.644 312.435C508.042 309.535 515.109 295.143 527.793 269.205H547.233L555.983 372.102H532.685Z" fill="white"/>
<path d="M151.359 292.295V268.895H84.0303V372.205H151.359V348.778H110.874V331.202H145.716V309.82H110.874L110.9 292.295H151.359Z" fill="white"/>
<path d="M266.5 371.532C270.927 372.231 284.129 375.079 301.136 373.655C316.072 372.361 334.813 363.559 335.124 340.055C335.279 329.934 332.173 318.156 317.47 312.383C315.269 311.606 297.615 305.29 295.415 304.514C293.008 303.53 291.066 301.382 290.988 299.44C290.859 295.609 293.965 291.985 300.929 291.131C307.141 290.38 316.9 291.338 328.989 294.133C328.963 291.726 328.834 272.493 328.834 270.085C324.666 268.972 314.674 266.384 301.187 265.97C283.404 265.426 265.568 276.893 264.481 299.207C263.912 310.235 268.985 322.634 282.058 327.371C284.077 328.096 300.359 333.972 302.378 334.723C307.426 336.897 307.581 339.046 307.737 340.754C307.97 343.86 304.941 346.242 300.929 347.795C295.648 349.866 280.065 350.021 266.604 345.957C266.578 351.057 266.526 366.407 266.5 371.532Z" fill="white"/>
<path d="M198.497 292.037C210.379 289.966 223.426 293.201 223.426 301.64C223.426 310.053 210.379 313.315 198.497 311.218V292.037ZM198.497 330.166C210.379 328.121 223.426 331.331 223.426 339.744C223.426 348.183 210.379 351.419 198.497 349.348V330.166ZM171.576 268.895V372.257H211.829C245.04 372.257 250.502 351.962 250.502 343.782C250.502 331.616 245.377 324.446 237.093 320.615C244.186 316.732 249.104 309.458 249.104 298.171C249.104 288.438 242.969 268.895 211.544 268.895H171.576Z" fill="white"/>
</g>
<defs>
<clipPath id="clip0_2_438">
<rect width="472" height="108.085" fill="white" transform="translate(84 265.958)"/>
</clipPath>
</defs>
</svg>
