<svg width="640" height="640" viewBox="0 0 640 640" fill="none" xmlns="http://www.w3.org/2000/svg">
<rect width="640" height="640" fill="#D30D44"/>
<g clip-path="url(#clip0_2_538)">
<path d="M370.013 305.469C369.95 309.191 369.633 312.904 369.062 316.583C368.554 320.085 367.85 323.556 366.954 326.98H377.825V332.583H321.588V326.98H360.096C360.637 324.605 361.07 321.978 361.383 319.095C361.706 316.212 361.929 313.563 362.068 311.146H329.202V305.469H370.013ZM368.859 341.094V362.537H361.384V346.628H330.617V341.094H368.859ZM413.748 324.457V330.134H437.253V335.737H381.011V330.134H405.87V324.457H393.92C393.473 324.476 393.028 324.394 392.617 324.217C392.207 324.041 391.841 323.774 391.547 323.437C390.961 322.773 390.644 321.914 390.657 321.029V311.797C390.657 310.209 390.086 309.06 388.957 308.329C387.828 307.606 386.311 307.246 384.408 307.246L387.262 304.738H428.286V310.343H398.128V318.858H428.828V324.463L413.748 324.457ZM424.825 357.214C423.944 358.836 422.742 360.261 421.291 361.403C419.724 362.675 417.941 363.656 416.028 364.3C414.011 365.013 411.848 365.363 409.542 365.363C407.137 365.363 404.934 365.006 402.916 364.303C401.003 363.659 399.221 362.678 397.654 361.406C396.208 360.277 395.024 358.846 394.186 357.214C393.381 355.636 392.962 353.89 392.962 352.118C392.962 350.347 393.381 348.601 394.186 347.022C395.003 345.392 396.157 343.968 397.654 342.732C401.046 340.082 405.237 338.662 409.542 338.706C413.798 338.692 417.936 340.109 421.291 342.728C422.741 343.914 423.941 345.375 424.823 347.028C425.666 348.593 426.107 350.343 426.107 352.121C426.107 353.899 425.666 355.649 424.823 357.214H424.825ZM401.553 355.034C401.992 355.985 402.604 356.846 403.357 357.574C404.174 358.283 405.105 358.852 406.145 359.289C407.221 359.736 408.376 359.963 409.542 359.954C410.719 359.954 411.82 359.726 412.865 359.289C413.864 358.881 414.784 358.3 415.582 357.574C416.375 356.86 417.021 355.997 417.482 355.034C417.933 354.122 418.168 353.117 418.168 352.099C418.168 351.081 417.933 350.077 417.482 349.165C417.019 348.204 416.374 347.343 415.582 346.628C414.778 345.901 413.86 345.31 412.865 344.88C411.819 344.415 410.686 344.178 409.542 344.186C408.316 344.186 407.187 344.414 406.145 344.88C405.133 345.319 404.193 345.909 403.357 346.628C402.604 347.354 401.992 348.214 401.553 349.163C401.14 350.063 400.923 351.041 400.916 352.032C400.916 353.091 401.131 354.094 401.559 355.034M443.048 308.843C441.977 308.206 440.515 307.886 438.659 307.886L441.448 305.446L452.308 306.172C452.175 307.122 452.096 308.078 452.071 309.037C452.05 309.97 452.04 310.904 452.042 311.838V316.397H465.079V311.838C465.079 311.41 465.045 310.989 464.974 310.589C464.912 310.212 464.832 309.838 464.737 309.469C464.636 309.09 464.458 308.736 464.213 308.43C463.967 308.124 463.661 307.873 463.313 307.692C462.591 307.289 461.57 307.094 460.254 307.094L463.042 304.786L472.554 305.446L472.345 310.783V335.462H448.168C447.243 335.473 446.352 335.117 445.688 334.474C445.355 334.175 445.09 333.809 444.909 333.4C444.729 332.99 444.638 332.547 444.643 332.1V311.838C444.643 310.482 444.102 309.483 443.042 308.846L443.048 308.843ZM465.079 329.852V322.003H452.042V329.852H465.079ZM466.168 364.285C464.335 363.647 462.632 362.686 461.137 361.449C459.744 360.328 458.59 358.939 457.742 357.364C456.946 355.854 456.53 354.173 456.53 352.466C456.53 350.759 456.946 349.078 457.742 347.568C458.559 346 459.688 344.609 461.137 343.38C462.548 342.191 464.223 341.232 466.168 340.506C468.114 339.78 470.217 339.417 472.483 339.417C474.654 339.417 476.702 339.78 478.628 340.511C480.553 341.232 482.239 342.188 483.688 343.38C485.055 344.566 486.204 345.984 487.082 347.568C487.924 349.064 488.366 350.751 488.366 352.467C488.366 354.183 487.924 355.87 487.082 357.366C486.21 358.923 485.059 360.308 483.688 361.451C482.239 362.637 480.553 363.583 478.628 364.289C476.658 364.999 474.577 365.357 472.483 365.345C470.217 365.345 468.114 364.988 466.168 364.289V364.285ZM464.771 355.252C465.202 356.174 465.777 356.986 466.505 357.694C467.294 358.406 468.202 358.975 469.188 359.374C470.234 359.799 471.354 360.011 472.483 360C473.614 360 474.682 359.792 475.676 359.374C476.649 358.97 477.545 358.401 478.325 357.694C479.048 356.986 479.636 356.174 480.082 355.252C480.528 354.378 480.76 353.411 480.76 352.43C480.76 351.45 480.528 350.483 480.082 349.609C479.633 348.715 479.039 347.901 478.325 347.201C477.54 346.491 476.646 345.912 475.676 345.488C474.67 345.045 473.582 344.818 472.483 344.823C471.305 344.823 470.205 345.046 469.188 345.488C468.205 345.905 467.298 346.482 466.505 347.197C465.789 347.892 465.202 348.709 464.771 349.609C464.348 350.49 464.129 351.454 464.129 352.43C464.129 353.407 464.348 354.371 464.771 355.252ZM498.296 318.24V323.917H489.462V339.551H482.053V307.886C482.053 306.481 481.385 305.303 480.02 304.358C478.668 303.409 476.696 302.811 474.113 302.538L477.371 300.237L490.411 301.757C490.035 302.718 489.785 303.723 489.667 304.748C489.533 305.812 489.466 306.882 489.468 307.954V318.24H498.296ZM499.759 336.074V330.471H524.693V327.495C524.693 326.527 524.413 325.776 523.873 325.253C523.33 324.727 522.445 324.464 521.225 324.464L523.805 322.218L532.908 322.613C532.772 323.409 532.692 324.214 532.667 325.021C532.647 325.844 532.635 326.667 532.633 327.49V330.464H555.999V336.073L499.759 336.074ZM533.788 313.411C534.917 314.749 536.437 316.014 538.342 317.211C540.242 318.392 542.445 319.452 544.959 320.374C547.474 321.3 550.134 322.02 552.942 322.549L548.259 326.571C544.226 325.799 540.303 324.539 536.574 322.82C532.994 321.137 530.211 319.052 528.216 316.549C525.951 319.006 523.059 321.066 519.525 322.709C515.996 324.357 512.15 325.649 507.983 326.571L503.291 322.549C506.008 322.026 508.636 321.3 511.176 320.372C513.515 319.54 515.766 318.48 517.896 317.206C519.843 316.018 521.402 314.749 522.579 313.411C523.762 312.066 524.351 310.694 524.351 309.288V308.168C524.351 307.246 523.857 306.552 522.888 306.086C521.914 305.626 520.547 305.355 518.779 305.26L521.63 302.959L532.633 303.683C532.413 304.439 532.264 305.214 532.187 305.997C532.125 306.743 532.091 307.46 532.091 308.168V309.288C532.091 310.694 532.653 312.066 533.786 313.409L533.788 313.411ZM521.728 364.371C519.828 363.727 518.049 362.768 516.466 361.535C515.034 360.379 513.855 358.94 513.005 357.309C512.201 355.736 511.782 353.995 511.782 352.229C511.782 350.463 512.201 348.722 513.005 347.149C513.816 345.526 514.976 344.1 516.471 342.871C517.962 341.637 519.716 340.643 521.728 339.897C523.852 339.132 526.096 338.752 528.354 338.777C532.624 338.748 536.773 340.194 540.099 342.871C541.555 344.046 542.758 345.503 543.637 347.154C544.48 348.715 544.921 350.46 544.921 352.234C544.921 354.008 544.48 355.753 543.637 357.314C542.782 358.894 541.6 360.306 540.099 361.535C538.608 362.723 536.856 363.668 534.842 364.375C532.754 365.087 530.56 365.443 528.354 365.429C525.951 365.429 523.748 365.072 521.728 364.376V364.371ZM520.342 355.1C520.793 356.049 521.402 356.877 522.176 357.58C523.414 358.759 524.967 359.555 526.647 359.871C528.328 360.187 530.063 360.01 531.645 359.36C532.666 358.943 533.6 358.339 534.4 357.58C535.167 356.873 535.8 356.033 536.267 355.1C536.742 354.16 536.979 353.18 536.979 352.169C536.979 351.2 536.742 350.246 536.266 349.297C535.789 348.354 535.158 347.496 534.4 346.76C533.586 346.028 532.655 345.439 531.645 345.017C530.584 344.559 529.441 344.323 528.285 344.323C527.129 344.323 525.986 344.559 524.925 345.017C523.917 345.439 522.988 346.029 522.176 346.76C521.402 347.509 520.799 348.351 520.342 349.297C519.895 350.199 519.662 351.192 519.662 352.198C519.662 353.205 519.895 354.198 520.342 355.1ZM287.431 234.961C287.142 235.232 286.748 235.318 286.529 235.692C286.34 236.011 286.04 236.201 285.745 236.438C285.234 237.094 284.82 237.854 284.036 238.243C283.054 238.85 282.436 239.82 281.485 240.452C281.289 240.706 281.079 240.948 280.854 241.178C280.545 241.549 280.099 241.629 279.762 241.966C279.225 242.252 278.769 242.623 278.28 242.955C277.892 243.395 277.378 243.707 276.808 243.847C276.323 244.132 275.962 244.574 275.488 244.883C275.297 245.135 275.251 245.597 274.822 245.529C274.662 245.7 274.394 245.638 274.205 245.757C274.005 245.966 273.731 246.289 273.456 246.232C273.391 246.277 273.346 246.345 273.331 246.423C273.222 246.455 273.108 246.546 272.999 246.626C272.942 246.769 272.657 246.911 272.391 247.029L271.668 247.646C271.717 247.604 271.711 247.604 271.631 247.671L271.668 247.643C271.497 247.761 270.7 248.321 270.339 248.297C270.036 248.503 269.531 248.701 269.208 248.915C269.037 249.025 268.971 248.669 268.877 248.915C268.882 248.968 268.843 249.029 268.894 249.057C268.743 249.172 268.668 249.277 268.482 249.289C268.277 249.366 268.134 249.338 267.945 249.514C267.697 249.751 267.737 249.874 267.351 249.742C267.237 249.585 267.237 249.671 267.066 249.775C266.78 249.932 267.005 250.226 266.54 250.174C266.026 250.24 265.865 250.706 265.334 250.758C264.986 250.915 264.954 251.105 264.602 251.246C263.994 251.261 263.828 251.58 263.477 251.794C263.22 252.192 262.108 252.561 261.746 252.857C261.224 253.26 260.622 253.546 259.98 253.697C259.07 253.888 258.28 253.755 258.314 252.752C258.332 252.135 258.285 251.12 258.285 251.12C258.209 250.8 258.58 250.246 258.41 249.812L258.339 249.737C258.423 249.305 258.375 248.872 258.442 248.392C258.642 248.237 258.508 247.917 258.585 247.7C258.703 247.338 258.474 246.92 258.728 246.617C258.755 246.16 258.692 245.657 258.903 245.226C259.011 244.806 258.888 244.574 259.008 244.057C258.997 243.786 259.202 243.511 259.12 243.192C259.12 243.192 258.954 240.751 259.156 239.715C259.156 239.715 259.745 237.92 259.754 237.628C259.771 237.2 259.586 235.337 260.091 235.023C260.023 234.671 260.087 234.306 260.269 233.997C260.465 233.566 260.185 233.034 260.555 232.72C260.651 232.706 260.722 232.738 260.731 232.825C260.796 233.163 260.822 233.507 260.808 233.851C260.865 234.035 260.779 234.297 261.054 234.344C261.282 234.572 261.072 234.861 261.243 235.103C261.149 235.271 261.377 235.357 261.268 235.494C261.14 235.689 260.669 235.68 260.888 236.006C261.059 236.12 261.159 235.931 261.291 236.172C261.273 236.334 261.074 236.586 261.216 236.695C261.591 236.771 261.323 237.217 261.548 237.432C261.562 237.849 261.025 238.794 261.405 239.226C261.448 239.374 261.297 239.435 261.216 239.503C261.088 239.503 261.334 239.597 261.359 239.729C261.433 239.853 261.467 239.997 261.459 240.141C261.45 240.285 261.399 240.423 261.311 240.537C261.297 240.555 261.257 240.68 261.405 240.703C261.648 240.742 261.673 241.017 261.586 241.108C261.586 241.108 261.254 242.503 261.377 243.877C261.382 243.943 261.828 243.577 261.4 244.983C261.186 245.696 261.115 246.241 261.325 246.674C261.554 247.168 261.434 247.557 261.42 247.803C261.372 248.326 261.259 248.997 261.259 248.997C261.273 249.917 261.876 249.651 262.199 249.603C262.531 249.546 262.674 248.897 262.906 249.029C263.025 249.057 263.097 249.243 263.031 249.296C262.945 249.348 262.817 249.546 262.711 249.689C262.767 249.638 262.835 249.601 262.908 249.58C263.101 249.511 263.268 249.38 263.382 249.209C263.428 249.115 263.428 248.983 263.509 248.911C263.823 248.777 263.791 248.815 264.08 249.043C264.188 249.011 264.36 248.977 264.308 248.826C264.331 248.72 264.468 248.74 264.565 248.669C264.916 248.478 265.277 248.146 265.703 248.217C265.814 248.326 265.803 248.132 265.903 248.146C266.045 248.108 266.151 247.957 266.336 248.032C266.372 248.085 266.459 248.132 266.388 248.203C266.245 248.308 266.003 248.36 266.079 248.603C266.124 248.649 266.178 248.685 266.238 248.709C266.297 248.734 266.361 248.746 266.425 248.745C266.479 248.578 266.748 248.463 266.668 248.251C266.811 248.132 266.957 247.966 267.162 248.026C267.319 248.041 267.333 248.132 267.305 248.231C267.363 248.213 267.421 248.197 267.48 248.183C267.63 248.119 267.775 248.042 267.911 247.951C267.951 247.827 267.804 247.752 267.906 247.628C268.002 247.552 268.045 247.409 268.188 247.391C268.34 247.357 268.397 247.486 268.534 247.486C268.477 247.338 268.638 247.168 268.805 247.154C268.88 247.186 268.971 247.206 269.055 247.249C269.1 247.186 269.198 247.195 269.26 247.134C269.546 246.943 269.817 246.663 270.068 246.417C270.02 246.226 270.243 246.194 270.306 246.085C270.505 246.057 270.719 246.037 270.876 246.16C271.008 245.914 271.412 245.846 271.374 245.518C271.611 245.425 271.706 245.154 271.963 245.083C272.106 244.974 272.238 244.76 272.409 244.815C272.855 244.958 272.937 244.446 273.174 244.209L273.46 243.914C274.157 244.057 274.432 243.217 274.951 242.946C275.597 242.626 275.814 241.854 276.551 241.692C276.863 241.326 277.215 240.771 277.72 240.709C277.957 240.043 278.915 240.011 279.025 239.294C279.159 239.134 279.344 239.023 279.548 238.98C279.762 238.789 279.976 238.463 280.269 238.58C280.42 238.463 280.474 238.295 280.554 238.143C280.934 237.669 281.728 237.289 281.728 236.577C281.823 236.368 282.06 236.206 282.249 236.12C282.44 235.475 283.223 235.398 283.508 234.818C284.111 234.212 284.457 233.437 284.934 232.743C285.294 231.88 285.968 231.115 286.011 230.146C286.106 229.771 286.158 229.381 286.452 229.111C286.277 228.312 286.928 227.709 286.534 226.992C286.591 226.755 286.439 226.594 286.605 226.403C286.297 226.171 286.623 225.815 286.566 225.526C286.523 224.983 285.612 224.669 286.102 224.066C285.883 223.544 285.314 223.572 285.068 223.103C284.773 222.526 284.337 222.032 283.801 221.669C283.598 221.446 283.318 221.369 283.123 221.194C282.932 221.16 282.79 221.051 282.609 220.989C282.229 220.846 281.707 220.894 281.346 220.704L281.341 220.714C281.18 220.714 281.204 220.477 281.018 220.548C280.956 220.295 280.699 220.595 280.49 220.513C280.338 220.3 280.205 220.058 279.869 220.086C279.83 220.066 279.788 220.054 279.744 220.049H279.475C279.37 220.063 279.261 220.083 279.157 220.077C279.024 220.143 278.929 220.095 278.815 220.049H275.955L275.078 220.258C274.906 220.225 274.992 220.106 275.063 220.086C275.11 220.071 275.158 220.058 275.206 220.049H233.437C233.148 220.05 232.862 220.107 232.595 220.219C232.328 220.33 232.086 220.493 231.882 220.698C231.678 220.903 231.517 221.147 231.407 221.414C231.297 221.682 231.241 221.968 231.243 222.257V273.506C231.332 273.378 231.393 273.232 231.419 273.078C231.714 272.814 232.122 272.739 232.345 272.377C232.543 272.054 232.848 271.878 233.143 271.649C233.678 271.014 234.111 270.263 234.914 269.888C235.902 269.303 236.543 268.36 237.522 267.751C237.721 267.502 237.936 267.267 238.168 267.048C238.489 266.683 238.931 266.615 239.279 266.292C239.825 266.012 240.291 265.652 240.794 265.343C241.192 264.912 241.713 264.614 242.285 264.487C242.774 264.212 243.149 263.78 243.634 263.491C243.834 263.243 243.891 262.788 244.312 262.863C244.483 262.697 244.749 262.76 244.936 262.649C245.14 262.446 245.425 262.132 245.7 262.203C245.761 262.155 245.807 262.089 245.832 262.014C245.908 261.991 245.98 261.953 246.042 261.904C246.099 261.761 246.128 261.8 246.212 261.786C246.304 261.721 246.405 261.67 246.511 261.634C246.943 261.383 246.886 261.397 246.768 261.443L246.617 261.543C246.531 261.572 246.668 261.49 246.768 261.449L247.295 261.11C247.335 261.106 247.376 261.097 247.414 261.083C247.502 260.987 247.605 260.906 247.717 260.84C248.02 260.596 248.369 260.416 248.743 260.309C249.052 260.118 249.551 259.929 249.888 259.729C250.06 259.625 250.126 259.977 250.22 259.729C250.22 259.683 250.254 259.62 250.211 259.586C250.359 259.479 250.44 259.378 250.62 259.369C250.834 259.303 250.966 259.331 251.166 259.163C251.423 258.937 251.389 258.807 251.769 258.955C251.879 259.112 251.879 259.026 252.063 258.923C252.343 258.78 252.134 258.477 252.591 258.543C253.103 258.489 253.28 258.029 253.811 257.99C254.163 257.84 254.2 257.658 254.56 257.517C255.165 257.526 255.34 257.208 255.692 257.008C255.968 256.618 257.088 256.277 257.454 255.997C257.677 255.76 258.608 255.312 259.24 255.198C260.157 255.032 260.949 255.194 260.883 256.186C260.851 256.803 260.865 257.829 260.865 257.829C260.936 258.143 260.551 258.685 260.712 259.121L260.779 259.203C260.683 259.631 260.712 260.071 260.64 260.541C260.442 260.694 260.555 261.022 260.465 261.24C260.34 261.591 260.569 262.009 260.308 262.309C260.26 262.769 260.314 263.272 260.094 263.7C259.966 264.109 260.085 264.351 259.952 264.868C259.952 265.129 259.748 265.4 259.809 265.723C259.809 265.723 259.909 268.174 259.682 269.203C259.682 269.203 259.051 270.975 259.031 271.266C258.994 271.703 259.126 273.56 258.621 273.868C258.651 274.229 258.621 274.594 258.417 274.885C258.2 275.313 258.474 275.854 258.086 276.157C258.005 276.171 257.934 276.123 257.92 276.048C257.868 275.706 257.851 275.359 257.871 275.014C257.825 274.832 257.914 274.575 257.645 274.518C257.406 274.281 257.631 273.997 257.468 273.745C257.563 273.588 257.343 273.497 257.454 273.36C257.588 273.169 258.061 273.194 257.848 272.857C257.682 272.737 257.574 272.928 257.449 272.686C257.474 272.529 257.686 272.272 257.534 272.163C257.169 272.083 257.454 271.64 257.231 271.414C257.226 271.003 257.797 270.074 257.417 269.626C257.383 269.469 257.534 269.417 257.611 269.36C257.743 269.36 257.506 269.261 257.474 269.132C257.407 269.003 257.379 268.858 257.394 268.714C257.408 268.57 257.464 268.433 257.554 268.32C257.568 268.303 257.611 268.178 257.459 268.149C257.222 268.113 257.208 267.828 257.293 267.737C257.293 267.737 257.663 266.36 257.579 264.972C257.574 264.911 257.122 265.266 257.579 263.875C257.814 263.163 257.9 262.617 257.711 262.185C257.492 261.681 257.625 261.297 257.654 261.044C257.7 260.532 257.843 259.863 257.843 259.863C257.863 258.94 257.24 259.188 256.903 259.235C256.591 259.283 256.414 259.923 256.189 259.788C256.082 259.757 256 259.563 256.082 259.515C256.168 259.468 256.305 259.269 256.4 259.131C256.343 259.182 256.274 259.217 256.2 259.235C256.008 259.3 255.84 259.423 255.72 259.586C255.668 259.686 255.668 259.809 255.588 259.881C255.274 260.009 255.303 259.98 255.017 259.738C254.91 259.774 254.732 259.795 254.785 259.957C254.751 260.052 254.614 260.034 254.528 260.1C254.163 260.28 253.797 260.603 253.369 260.517C253.274 260.409 253.274 260.603 253.174 260.583C253.037 260.623 252.919 260.765 252.737 260.689C252.694 260.635 252.611 260.583 252.691 260.517C252.834 260.414 253.074 260.366 253.005 260.125C252.919 260.018 252.809 259.982 252.666 259.966C252.605 260.137 252.334 260.243 252.411 260.466C252.268 260.569 252.117 260.726 251.911 260.669C251.717 260.651 251.751 260.512 251.788 260.394C251.77 260.394 251.751 260.409 251.726 260.409C251.499 260.494 251.337 260.589 251.155 260.694H251.166C251.085 260.837 251.271 260.917 251.162 261.051C251.062 261.117 251.005 261.265 250.866 261.272C250.714 261.311 250.663 261.177 250.525 261.174C250.572 261.326 250.411 261.483 250.249 261.5C250.154 261.454 250.054 261.429 249.963 261.377C249.951 261.377 249.937 261.395 249.922 261.406C249.623 261.586 249.351 261.863 249.095 262.103C249.137 262.294 248.905 262.323 248.845 262.417C248.645 262.451 248.434 262.465 248.274 262.332C248.14 262.583 247.728 262.635 247.76 262.963C247.523 263.043 247.409 263.315 247.163 263.381C247.02 263.491 246.877 263.695 246.702 263.634C246.265 263.477 246.165 263.994 245.923 264.226L245.628 264.512C244.94 264.34 244.64 265.177 244.117 265.434C243.454 265.737 243.22 266.506 242.489 266.654C242.157 267 241.796 267.552 241.288 267.594C241.026 268.249 240.071 268.26 239.943 268.972C239.805 269.13 239.618 269.235 239.411 269.271C239.203 269.46 238.974 269.78 238.68 269.651C238.523 269.769 238.471 269.937 238.386 270.079C237.986 270.552 237.183 270.904 237.165 271.614C237.042 271.819 236.853 271.976 236.628 272.06C236.429 272.7 235.631 272.752 235.331 273.326C234.714 273.915 234.343 274.675 233.851 275.36C233.471 276.214 232.777 276.96 232.705 277.929C232.597 278.294 232.54 278.689 232.231 278.946C232.388 279.752 231.723 280.332 232.103 281.063C232.036 281.3 232.177 281.463 232.017 281.652C232.311 281.889 231.979 282.24 232.031 282.531C232.049 283.072 232.959 283.409 232.449 283.998C232.645 284.52 233.228 284.511 233.457 284.991C233.694 285.575 234.188 286.063 234.682 286.458C234.877 286.686 235.157 286.772 235.346 286.952C235.531 286.991 235.679 287.103 235.849 287.171C236.229 287.328 236.751 287.289 237.108 287.498V287.483C237.269 287.483 237.246 287.722 237.426 287.66C237.488 287.906 237.749 287.612 237.957 287.714C237.997 287.769 238.043 287.846 238.091 287.903H285.679C286.88 287.903 287.863 286.914 287.863 285.698V234.203C287.639 234.4 287.487 234.667 287.431 234.961ZM271.683 224.009C271.854 223.957 271.74 223.838 271.808 223.734C272.164 223.763 272.428 223.46 272.771 223.535C272.757 223.569 272.805 223.588 272.808 223.611C273.028 223.629 273.283 223.506 273.431 223.649C273.592 223.754 273.716 223.774 273.92 223.738C274.105 223.586 273.706 223.445 273.982 223.321C274.196 223.317 274.451 223.269 274.642 223.335C274.88 223.288 275.088 223.369 275.284 223.221C275.388 223.203 275.425 223.335 275.506 223.363C275.506 223.397 275.525 223.46 275.477 223.478C275.677 223.515 275.663 223.838 275.92 223.763C275.98 223.701 275.977 223.597 276.014 223.511L275.905 223.44C276.143 223.231 276.599 223.412 276.926 223.346C277.174 223.326 277.468 223.217 277.752 223.306C278.162 223.467 278.603 223.558 279.054 223.44C279.714 223.486 280.242 223.858 280.788 224.18C281.12 224.489 281.414 224.698 281.685 225.097C282.003 225.526 282.037 226.075 282.303 226.523C282.383 227.04 282.534 227.581 282.368 228.066C282.588 228.209 282.397 228.578 282.502 228.792C282.279 229.14 282.326 229.552 282.24 229.934C281.98 230.383 282.003 230.977 281.591 231.357C281.534 231.969 280.874 232.306 280.706 232.886C280.369 233.1 280.303 233.555 279.928 233.726C279.768 233.931 279.457 234.16 279.357 234.449C278.888 234.716 278.817 235.209 278.36 235.508C278.257 235.646 278.194 235.855 278.014 235.888C277.871 236.115 277.62 236.3 277.514 236.552C277.077 236.886 276.826 237.337 276.391 237.603C276.232 237.71 276.057 237.863 276.014 238.063C275.168 238.925 274.229 239.69 273.213 240.343C272.723 240.361 272.619 240.946 272.182 241.083C271.943 241.149 271.66 241.345 271.611 241.62C271.374 242.052 270.898 241.634 270.709 242.134C270.125 242.066 269.902 242.708 269.385 242.817C269.203 243.173 268.902 243.453 268.534 243.609C268.214 243.639 267.911 243.765 267.665 243.971C267.469 244.029 267.357 244.237 267.205 244.351C267.176 244.626 266.923 244.54 266.768 244.678C266.54 244.612 266.302 244.763 266.079 244.697C265.951 244.697 265.869 244.949 265.723 244.822C265.68 244.715 265.808 244.66 265.865 244.626H265.931C266.308 244.369 266.667 244.086 267.005 243.781L267.18 243.777C267.128 243.415 267.514 243.315 267.665 243.054C267.783 242.992 267.888 243.092 267.951 243.169C268.12 243.097 268.011 242.846 268.12 242.726C268.22 242.598 268.377 242.632 268.495 242.466C268.577 242.498 268.634 242.394 268.682 242.337C268.62 242.132 268.857 242.186 268.909 242.052C269.08 242.038 269.185 241.834 269.38 241.886C269.569 241.832 269.594 241.615 269.708 241.472C270.002 241.254 270.225 241.008 270.543 240.866C270.775 240.609 271.003 240.309 271.312 240.123C271.677 240.243 271.503 239.649 271.854 239.635C272.257 239.292 272.337 238.778 272.76 238.475C273.131 237.892 273.706 237.565 274.086 237.009C274.266 236.857 274.323 236.634 274.542 236.581C274.685 236.534 274.571 236.372 274.637 236.295C275.003 236.001 275.045 235.517 275.454 235.289C275.525 235.132 275.739 235.004 275.852 234.848C276.043 234.26 276.612 233.84 276.788 233.252C277.017 232.749 277.32 232.292 277.454 231.741C277.572 231.38 277.962 231.206 278.003 230.82C278.128 229.771 278.931 228.564 278.174 227.572L278.123 227.144C277.809 226.812 277.659 226.289 277.206 226.061C277.077 225.895 276.874 225.8 276.683 225.7C276.685 225.658 276.702 225.618 276.731 225.586C276.779 225.586 276.84 225.615 276.863 225.572C276.721 225.492 276.688 225.292 276.506 225.301C276.289 225.149 275.923 225.301 275.78 225.051C275.648 224.908 275.383 224.931 275.277 224.73C275.035 224.766 274.746 224.892 274.451 224.794C274.166 224.455 273.595 224.746 273.274 224.48C272.895 224.541 272.512 224.572 272.129 224.575C272.271 224.318 272.632 224.5 272.689 224.229C272.594 224.211 272.423 224.143 272.286 224.189L272.168 224.323C271.843 224.386 271.503 224.218 271.226 224.337C271.174 224.323 271.098 224.352 271.057 224.304C271.174 223.986 271.583 224.289 271.683 224.009ZM264.897 240.537H264.929C265.157 240.38 265.357 240.206 265.566 240.024L265.671 240.009C265.628 239.806 265.86 239.735 265.94 239.578C266.017 239.54 266.083 239.592 266.122 239.635C266.217 239.588 266.145 239.446 266.211 239.374C266.268 239.292 266.363 239.306 266.434 239.214C266.483 239.226 266.511 239.165 266.529 239.132C266.493 239.012 266.643 239.037 266.663 238.955C266.768 238.941 266.829 238.818 266.948 238.852C267.062 238.814 267.077 238.686 267.137 238.595C267.303 238.47 267.437 238.309 267.626 238.224C267.765 238.063 267.894 237.883 268.063 237.763C268.291 237.829 268.183 237.478 268.382 237.469C268.623 237.255 268.657 236.961 268.905 236.761C269.108 236.415 269.451 236.211 269.665 235.874C269.772 235.789 269.792 235.649 269.934 235.617C270.006 235.58 269.94 235.492 269.983 235.441C270.197 235.266 270.211 234.977 270.446 234.834C270.496 234.738 270.614 234.657 270.677 234.563C270.78 234.215 271.114 233.956 271.203 233.612C271.331 233.3 271.497 233.023 271.565 232.706C271.631 232.486 271.859 232.378 271.886 232.14C271.925 231.523 272.377 230.811 271.897 230.24L271.858 229.994C271.663 229.803 271.549 229.5 271.278 229.377C271.197 229.281 271.074 229.234 270.957 229.177C270.957 229.149 270.96 229.129 270.983 229.111C271.012 229.111 271.046 229.115 271.06 229.097C270.975 229.058 270.955 228.936 270.837 228.949C270.709 228.869 270.491 228.967 270.386 228.815C270.314 228.74 270.149 228.76 270.086 228.646C269.943 228.663 269.765 228.749 269.587 228.697C269.403 228.506 269.066 228.697 268.866 228.54C268.641 228.589 268.412 228.618 268.183 228.626C268.268 228.474 268.481 228.578 268.514 228.412C268.448 228.398 268.354 228.366 268.268 228.394L268.2 228.474C268.006 228.528 267.788 228.437 267.635 228.506C267.603 228.506 267.551 228.521 267.528 228.489C267.583 228.308 267.845 228.474 267.897 228.308C267.997 228.275 267.926 228.203 267.963 228.141C268.183 228.146 268.329 227.966 268.543 228.003C268.534 228.021 268.561 228.032 268.566 228.043C268.7 228.043 268.843 227.966 268.946 228.046C269.042 228.109 269.123 228.112 269.241 228.094C269.351 228 269.103 227.934 269.26 227.846C269.394 227.846 269.546 227.811 269.669 227.832C269.811 227.804 269.94 227.846 270.049 227.757C270.111 227.752 270.143 227.818 270.181 227.832C270.181 227.852 270.2 227.889 270.175 227.904C270.286 227.918 270.295 228.109 270.443 228.06C270.486 228.023 270.475 227.966 270.495 227.914L270.432 227.875C270.57 227.743 270.842 227.839 271.049 227.789C271.192 227.771 271.369 227.705 271.544 227.754C271.792 227.853 272.065 227.869 272.323 227.8C272.726 227.814 273.055 228.014 273.392 228.184C273.606 228.36 273.79 228.478 273.963 228.701C274.152 228.949 274.198 229.272 274.366 229.529C274.423 229.832 274.535 230.146 274.441 230.431C274.574 230.517 274.469 230.74 274.541 230.859C274.416 231.063 274.446 231.305 274.412 231.528C274.269 231.803 274.294 232.146 274.052 232.383C274.034 232.74 273.641 232.954 273.567 233.303C273.358 233.432 273.338 233.703 273.106 233.812C273.017 233.937 272.832 234.074 272.778 234.244C272.512 234.415 272.475 234.709 272.207 234.895C272.152 234.975 272.114 235.103 272.009 235.123C271.924 235.266 271.781 235.38 271.724 235.526C271.474 235.722 271.335 236.003 271.074 236.168C270.978 236.24 270.869 236.334 270.85 236.443C270.35 236.975 269.806 237.464 269.212 237.858C268.927 237.877 268.88 238.224 268.618 238.315C268.475 238.363 268.309 238.48 268.275 238.646C268.152 238.903 267.847 238.671 267.749 238.966C267.403 238.937 267.285 239.322 266.975 239.403C266.868 239.616 266.692 239.787 266.475 239.886C266.285 239.914 266.107 239.996 265.963 240.123C265.844 240.157 265.783 240.28 265.692 240.343C265.678 240.514 265.532 240.461 265.435 240.546C265.298 240.514 265.161 240.614 265.023 240.58C264.943 240.586 264.909 240.732 264.809 240.66C264.781 240.6 264.857 240.561 264.895 240.543L264.897 240.537ZM246.863 284.474C246.688 284.52 246.791 284.643 246.731 284.734C246.374 284.706 246.099 285.002 245.762 284.915C245.771 284.882 245.734 284.861 245.726 284.834C245.509 284.816 245.254 284.929 245.106 284.786C245.035 284.735 244.955 284.698 244.87 284.678C244.785 284.659 244.697 284.657 244.611 284.672C244.433 284.82 244.826 284.972 244.551 285.091C244.331 285.091 244.069 285.138 243.885 285.063C243.639 285.1 243.443 285.014 243.24 285.157C243.134 285.175 243.102 285.043 243.026 285.009C243.026 284.973 243.002 284.915 243.049 284.902C242.86 284.849 242.879 284.529 242.621 284.592C242.549 284.658 242.549 284.763 242.514 284.843L242.617 284.92C242.38 285.129 241.928 284.934 241.597 284.981C241.349 285 241.054 285.109 240.776 285C240.373 284.804 239.917 284.746 239.477 284.834C238.814 284.772 238.3 284.383 237.768 284.055C237.436 283.734 237.142 283.52 236.891 283.109C236.591 282.663 236.562 282.112 236.32 281.666C236.243 281.143 236.106 280.597 236.291 280.114C236.074 279.971 236.282 279.606 236.177 279.386C236.414 279.045 236.368 278.626 236.471 278.257C236.743 277.814 236.728 277.222 237.16 276.846C237.237 276.239 237.906 275.918 238.082 275.34C238.428 275.14 238.51 274.68 238.889 274.532C239.049 274.329 239.374 274.104 239.483 273.82C239.948 273.569 240.039 273.08 240.503 272.789C240.61 272.652 240.674 272.448 240.865 272.423C241.008 272.197 241.263 272.015 241.374 271.76C241.825 271.457 242.085 271.011 242.528 270.752C242.688 270.645 242.879 270.502 242.911 270.301C243.785 269.464 244.748 268.727 245.784 268.103C246.269 268.103 246.388 267.509 246.831 267.386C247.077 267.323 247.352 267.134 247.414 266.863C247.666 266.44 248.137 266.872 248.345 266.374C248.92 266.469 249.152 265.832 249.674 265.728C249.869 265.38 250.178 265.11 250.548 264.963C250.852 264.963 251.171 264.811 251.428 264.631C251.631 264.569 251.74 264.364 251.902 264.26C251.936 263.985 252.188 264.08 252.345 263.946C252.571 264.018 252.819 263.871 253.033 263.946C253.171 263.946 253.251 263.7 253.399 263.832C253.435 263.943 253.303 263.993 253.246 264.023H253.18C252.796 264.267 252.43 264.536 252.083 264.829L251.911 264.84C251.945 265.2 251.551 265.281 251.394 265.546C251.285 265.603 251.18 265.5 251.119 265.429C250.948 265.495 251.051 265.743 250.937 265.857C250.834 265.983 250.672 265.946 250.548 266.107C250.477 266.074 250.411 266.174 250.374 266.231C250.425 266.44 250.193 266.374 250.136 266.517C249.969 266.517 249.851 266.726 249.655 266.663C249.466 266.711 249.423 266.934 249.323 267.063C249.02 267.28 248.791 267.523 248.468 267.651C248.231 267.908 247.994 268.197 247.683 268.377C247.319 268.249 247.466 268.843 247.12 268.852C246.702 269.175 246.611 269.689 246.18 269.994C245.8 270.552 245.216 270.868 244.817 271.408C244.636 271.551 244.579 271.783 244.342 271.82C244.208 271.869 244.314 272.029 244.246 272.106C243.866 272.391 243.818 272.88 243.4 273.089C243.325 273.249 243.106 273.365 242.997 273.521C242.783 274.106 242.212 274.509 242 275.094C241.768 275.593 241.454 276.039 241.311 276.585C241.179 276.942 240.789 277.106 240.728 277.495C240.574 278.537 239.745 279.714 240.471 280.735L240.508 281.154C240.812 281.5 240.951 282.032 241.391 282.265C241.52 282.435 241.725 282.54 241.905 282.64C241.9 282.688 241.887 282.726 241.852 282.749C241.805 282.763 241.757 282.72 241.72 282.763C241.862 282.849 241.886 283.049 242.076 283.049C242.285 283.206 242.654 283.066 242.794 283.323C242.922 283.466 243.191 283.448 243.288 283.646C243.525 283.618 243.823 283.503 244.117 283.609C244.385 283.966 244.968 283.685 245.282 283.966C245.664 283.907 246.05 283.884 246.436 283.898C246.276 284.146 245.923 283.955 245.851 284.226C245.96 284.255 246.128 284.321 246.265 284.274L246.388 284.146C246.702 284.098 247.054 284.263 247.319 284.16C247.38 284.174 247.448 284.146 247.494 284.192C247.377 284.506 246.963 284.192 246.868 284.478L246.863 284.474ZM254.106 268.135H254.063C253.838 268.287 253.622 268.452 253.417 268.629L253.322 268.643C253.346 268.852 253.108 268.914 253.032 269.071C252.957 269.109 252.889 269.054 252.848 269.009C252.752 269.048 252.819 269.186 252.752 269.261C252.694 269.337 252.6 269.323 252.534 269.421C252.48 269.403 252.448 269.46 252.42 269.492C252.463 269.623 252.315 269.594 252.282 269.665C252.188 269.68 252.122 269.797 252.002 269.769C251.883 269.797 251.874 269.926 251.806 270.012C251.631 270.145 251.499 270.297 251.308 270.377C251.171 270.529 251.034 270.709 250.857 270.823C250.629 270.752 250.739 271.1 250.529 271.109C250.283 271.312 250.234 271.612 249.988 271.797C249.769 272.14 249.423 272.332 249.2 272.671C249.095 272.757 249.071 272.885 248.929 272.918C248.848 272.951 248.914 273.042 248.877 273.089C248.657 273.265 248.64 273.554 248.397 273.683C248.349 273.777 248.222 273.854 248.154 273.954C248.04 274.295 247.708 274.546 247.603 274.889C247.476 275.189 247.295 275.46 247.22 275.786C247.148 275.995 246.911 276.1 246.886 276.332C246.82 276.951 246.354 277.663 246.811 278.237L246.854 278.489C247.043 278.685 247.139 278.988 247.409 279.117C247.499 279.206 247.605 279.277 247.723 279.325C247.723 279.354 247.723 279.372 247.699 279.391C247.671 279.397 247.637 279.377 247.617 279.397C247.714 279.443 247.723 279.566 247.842 279.552C247.965 279.638 248.194 279.552 248.288 279.695C248.36 279.78 248.525 279.763 248.583 279.886C248.729 279.861 248.904 279.78 249.086 279.837C249.251 280.037 249.608 279.862 249.803 280.009C250.028 279.97 250.257 279.951 250.486 279.952C250.406 280.103 250.192 279.989 250.145 280.157C250.217 280.171 250.317 280.203 250.4 280.185L250.463 280.103C250.654 280.057 250.862 280.151 251.028 280.085C251.066 280.089 251.114 280.071 251.137 280.103C251.076 280.289 250.82 280.118 250.757 280.28C250.654 280.308 250.729 280.38 250.686 280.437C250.472 280.437 250.317 280.606 250.111 280.565C250.117 280.546 250.094 280.537 250.088 280.526C249.954 280.523 249.803 280.597 249.714 280.508C249.67 280.48 249.622 280.461 249.571 280.452C249.52 280.442 249.468 280.444 249.417 280.455C249.3 280.544 249.542 280.621 249.385 280.692C249.251 280.712 249.1 280.735 248.98 280.703C248.838 280.731 248.711 280.683 248.591 280.763C248.534 280.778 248.502 280.706 248.463 280.688C248.463 280.669 248.449 280.626 248.477 280.621C248.36 280.592 248.36 280.412 248.211 280.451C248.163 280.483 248.163 280.549 248.151 280.603L248.222 280.64C248.069 280.765 247.803 280.669 247.603 280.706C247.446 280.721 247.277 280.792 247.1 280.735C246.854 280.632 246.582 280.609 246.322 280.669C245.917 280.64 245.594 280.432 245.268 280.251C245.057 280.066 244.877 279.948 244.72 279.714C244.522 279.463 244.497 279.149 244.331 278.883C244.274 278.58 244.174 278.26 244.274 277.98C244.149 277.886 244.26 277.677 244.189 277.549C244.326 277.344 244.294 277.103 244.34 276.883C244.497 276.617 244.469 276.266 244.72 276.034C244.749 275.672 245.148 275.474 245.234 275.137C245.437 275.008 245.477 274.737 245.709 274.632C245.798 274.518 245.989 274.382 246.048 274.204C246.315 274.054 246.36 273.758 246.636 273.579C246.697 273.497 246.734 273.369 246.843 273.349C246.925 273.212 247.08 273.112 247.134 272.96C247.394 272.771 247.537 272.497 247.808 272.338C247.903 272.272 248.012 272.183 248.031 272.063C248.549 271.549 249.105 271.08 249.712 270.7C249.997 270.686 250.054 270.34 250.315 270.263C250.457 270.215 250.629 270.097 250.663 269.94C250.791 269.68 251.091 269.926 251.203 269.637C251.551 269.669 251.679 269.294 251.992 269.223C252.1 269.012 252.278 268.844 252.495 268.749C252.689 268.731 252.873 268.654 253.023 268.529C253.142 268.497 253.198 268.372 253.294 268.311C253.317 268.14 253.465 268.192 253.554 268.115C253.692 268.154 253.84 268.06 253.968 268.097C254.054 268.092 254.091 267.946 254.182 268.026C254.214 268.083 254.134 268.115 254.106 268.135ZM157.386 328.072C153.763 328.072 152.594 327.834 152.594 331.695C152.594 344.785 161.123 356.126 175.268 356.126C186.717 356.126 191.054 348.526 192.569 348.526C193.154 348.526 193.5 348.992 193.5 349.468C193.5 350.874 189.763 354.022 188.94 354.731C183.446 359.398 177.723 361.265 170.476 361.265C155.16 361.265 143.826 348.992 143.826 334.383C143.826 326.434 146.045 320.237 152.234 314.863C158.085 309.72 165.332 307.028 173.272 307.028C179.589 307.028 186.02 309.251 190.119 314.275C192.451 317.2 194.205 322.226 194.205 326.086C194.205 327.017 193.971 328.072 192.802 328.072H157.386ZM166.966 325.271C170.585 325.271 177.143 325.151 180.529 324.329C183.098 323.746 184.851 322.463 184.851 319.655C184.851 317.2 183.446 314.517 181.812 312.765C179.237 310.066 175.386 309.137 171.648 309.137C168.676 309.146 165.749 309.86 163.107 311.22C160.464 312.581 158.183 314.549 156.449 316.963C155.397 318.246 153.524 321.874 153.524 323.746C153.524 325.617 156.214 325.269 157.495 325.269H166.966M286.145 322.022C282.411 322.022 280.303 309.165 270.839 309.165C266.743 309.165 262.071 311.388 259.026 313.962C253.656 318.636 250.62 325.769 250.62 332.892C250.62 344.817 259.388 356.98 272.477 356.98C277.497 356.98 282.294 355.343 285.911 351.828C286.263 351.48 287.085 350.426 287.669 350.426C288.134 350.426 288.482 350.902 288.482 351.372C288.482 352.531 285.794 354.872 284.977 355.571C280.189 359.426 274.337 361.297 268.029 361.297C253.654 361.297 241.848 349.377 241.848 335.238C241.848 319.452 256.576 307.06 272.243 307.06C276.685 307.06 282.872 308.345 286.611 310.917C288.134 311.972 287.545 314.54 287.545 316.06C287.545 316.997 288.248 322.022 286.145 322.022Z" fill="white"/>
<path d="M132.015 328.699L127.523 374.211C126.54 384.112 125.029 391.66 122.974 396.842C120.926 402.028 117.606 406.686 113.032 410.828C106.317 416.917 98.7853 419.951 90.4257 419.951C88.7595 419.951 86.617 419.514 84 418.622L91.2339 412.096C94.3147 413.108 97.103 413.611 99.6005 413.611C110.286 413.611 116.466 405.548 118.137 389.439L119.554 376.023L124.34 329.454L114.311 330.512L120.494 324.163H124.786L125.1 321.028C126.402 307.716 130.257 297.348 136.678 289.916C143.086 282.488 151.363 278.769 161.51 278.769C163.428 278.769 165.588 278.945 167.977 279.3L160.383 286.686C157.841 285.675 155.135 285.144 152.4 285.119C146.168 285.119 141.742 287.265 139.102 291.559C136.457 295.843 134.542 304.074 133.345 316.208L132.548 324.163L153.283 324.18L145.589 328.2L132.011 328.699" fill="white"/>
<path d="M192.265 349.106V294.643C192.265 290.315 193.314 285.17 187.7 285.17C186.656 285.17 184.671 285.518 184.671 283.998C184.671 283.181 185.606 282.835 186.3 282.717C189.577 282.128 194.017 280.958 196.825 279.092C197.408 278.628 198.463 277.81 199.28 277.81C200.448 277.81 200.325 278.737 200.325 279.672V311.587C200.325 312.058 200.566 312.983 201.26 312.983C201.734 312.983 202.314 312.404 202.78 312.166C208.042 309.598 213.542 307.261 219.497 306.915C234.343 306.087 245.334 317.895 245.334 332.398C245.334 349.577 230.843 361.146 214.122 361.146C202.485 361.146 197.185 355.252 197.282 355.323M200.325 346.186C200.325 349.806 200.097 352.849 202.899 355.543C205.939 358.458 210.151 359.157 214.12 359.157C228.383 359.157 236.443 347.235 236.443 333.914C236.443 321.992 228.502 310.766 215.765 310.766C211.205 310.766 205.943 312.286 202.434 315.212C199.868 317.32 200.325 318.949 200.325 321.992V346.186Z" fill="white"/>
<path d="M304.174 363.877H305.123V302.449H304.174V363.877Z" fill="white"/>
</g>
<defs>
<clipPath id="clip0_2_538">
<rect width="472" height="199.903" fill="white" transform="translate(84 220.049)"/>
</clipPath>
</defs>
</svg>
