<svg width="640" height="640" viewBox="0 0 640 640" fill="none" xmlns="http://www.w3.org/2000/svg">
<rect width="640" height="640" fill="#E88B3F"/>
<g clip-path="url(#clip0_6_92)">
<mask id="mask0_6_92" style="mask-type:luminance" maskUnits="userSpaceOnUse" x="-216" y="-431" width="1015" height="1467">
<path d="M-215.821 -430.045H798.774V1035.47H-215.821V-430.045Z" fill="white"/>
</mask>
<g mask="url(#mask0_6_92)">
<path d="M130.033 293.275V289.315H140.003V318.095H130.033V313.428H121.051V305.438H130.033V301.266H121.051V293.275H130.033ZM110.799 327.572C108.725 329.407 107.689 331.672 107.689 334.36C107.689 336.999 108.725 339.26 110.799 341.147C112.779 342.936 115.088 343.833 117.728 343.833C120.369 343.833 122.68 342.936 124.658 341.147C126.684 339.308 127.701 337.045 127.701 334.36C127.701 331.624 126.684 329.361 124.658 327.572C122.725 325.828 120.417 324.953 117.728 324.953C115.171 324.923 112.697 325.858 110.799 327.572ZM131.447 320.853C135.69 324.434 137.812 328.938 137.812 334.36C137.812 339.733 135.69 344.211 131.447 347.792C127.488 351.189 122.867 352.885 117.587 352.885C112.306 352.885 107.71 351.189 103.799 347.792C99.6492 344.211 97.5753 339.733 97.5753 334.36C97.5753 328.938 99.6492 324.434 103.799 320.853C107.71 317.506 112.306 315.832 117.587 315.832C122.867 315.832 127.488 317.506 131.447 320.853ZM118.577 289.315V294.052C118.577 303.34 114.64 310.27 106.768 314.841C100.828 318.331 93.2384 320.214 84 320.499V311.378C92.1547 311.141 98.4005 309.564 102.737 306.639C106.321 304.189 108.112 301.266 108.112 297.872H84.9187V289.315H118.577Z" fill="white"/>
<path d="M264.983 308.267V318.094H255.012V289.315H264.983V299.426H273.044V308.267H264.983ZM235.283 327.145C233.209 329.031 232.173 331.341 232.173 334.075C232.173 336.809 233.209 339.122 235.283 341.005C237.263 342.844 239.574 343.763 242.213 343.763C244.901 343.763 247.234 342.844 249.214 341.005C251.288 339.122 252.326 336.809 252.326 334.075C252.326 331.341 251.288 329.031 249.214 327.145C247.234 325.356 244.901 324.459 242.213 324.459C239.574 324.459 237.263 325.356 235.283 327.145ZM218.878 309.468H234.716V303.526H218.878V309.468ZM244.547 312.791C244.547 313.31 244.521 313.735 244.476 314.065C244.393 314.445 244.299 314.821 244.193 315.195C249.145 315.714 253.362 317.649 256.852 320.993C260.622 324.626 262.507 328.985 262.507 334.075C262.507 339.591 260.361 344.187 256.074 347.863C252.113 351.305 247.468 353.025 242.143 353.025C236.768 353.025 232.125 351.305 228.212 347.863C224.016 344.187 221.92 339.591 221.92 334.075C221.92 330.635 222.77 327.499 224.466 324.67C226.021 322.031 228.212 319.838 231.042 318.094H213.716C212.113 318.094 210.934 317.742 210.181 317.034C209.379 316.185 208.979 314.771 208.979 312.791V289.315H218.878V295.678H234.718V289.315H244.547V312.791Z" fill="white"/>
<path d="M300.377 326.719C298.208 328.75 297.124 331.223 297.124 334.144C297.124 337.069 298.208 339.519 300.377 341.5C302.497 343.48 305.018 344.468 307.943 344.468C310.819 344.468 313.34 343.48 315.507 341.5C317.725 339.519 318.832 337.069 318.832 334.144C318.832 331.223 317.725 328.75 315.507 326.719C313.34 324.787 310.819 323.822 307.943 323.822C305.018 323.822 302.497 324.787 300.377 326.719ZM313.388 288.111C313.388 292.402 315.507 295.608 319.751 297.728C323.473 299.521 328.872 300.533 335.945 300.77V309.467C330.147 309.42 324.772 308.666 319.822 307.205C314.07 305.554 310.111 303.244 307.943 300.275C305.726 303.244 301.743 305.554 295.993 307.205C291.043 308.616 285.692 309.324 279.942 309.324V300.698C286.965 300.464 292.34 299.426 296.062 297.588C300.306 295.467 302.427 292.309 302.427 288.111H313.388ZM302.922 313.922V308.477H312.964V313.922H337.995V322.691H323.783C325.339 324.139 326.61 325.865 327.53 327.781C328.469 329.796 328.952 331.993 328.944 334.216C328.944 339.732 326.752 344.327 322.37 348.004C318.265 351.446 313.505 353.168 308.085 353.168C302.473 353.168 297.619 351.446 293.517 348.004C289.18 344.327 287.013 339.732 287.013 334.216C287.013 332.048 287.46 329.951 288.357 327.92C289.156 326.085 290.312 324.341 291.821 322.691H277.89V313.922H302.922Z" fill="white"/>
<path d="M386.907 302.747C385.026 300.604 382.687 299.53 379.892 299.53C376.903 299.53 374.541 300.55 372.805 302.586C371.023 304.625 370.13 307.412 370.13 310.95C370.13 314.382 370.999 317.116 372.735 319.152C374.421 321.191 376.758 322.211 379.746 322.211C382.64 322.211 385.048 321.139 386.976 318.991C388.858 316.903 389.798 314.354 389.798 311.352C389.798 307.87 388.834 304.998 386.907 302.747ZM368.034 351.24L379.313 332.262H378.084C373.214 332.262 369.021 330.172 365.503 325.989C361.983 321.863 360.226 316.927 360.226 311.193C360.229 307.231 361.223 303.332 363.117 299.852C364.805 296.313 367.118 293.579 370.059 291.648C372.95 289.719 376.205 288.753 379.822 288.753C382.39 288.747 384.93 289.296 387.267 290.361C389.629 291.487 391.725 293.095 393.558 295.187C395.37 297.275 396.79 299.673 397.752 302.264C398.764 304.893 399.271 307.52 399.271 310.147C399.271 313.684 398.45 317.303 396.809 321.002C395.847 323.364 393.966 326.848 391.172 331.459L379.313 351.24H368.034Z" fill="white"/>
<path d="M414.245 335.239C414.39 336.203 414.68 337.062 415.114 337.812C415.911 339.078 417.034 340.106 418.365 340.789C419.715 341.54 421.282 341.912 423.068 341.912C426.297 341.912 428.634 341.029 430.081 339.26C431.527 337.49 432.251 334.648 432.251 330.735V310.469C432.251 308.486 432.201 307.118 432.103 306.366C431.96 305.189 431.646 304.223 431.165 303.471C430.385 302.171 429.259 301.113 427.912 300.417C426.512 299.721 424.921 299.371 423.139 299.371C421.306 299.371 419.741 299.693 418.439 300.335C417.112 300.958 416.003 301.967 415.259 303.231C414.776 304.036 414.462 305 414.319 306.126C414.173 307.092 414.102 308.514 414.102 310.389V332.022C414.102 333.469 414.148 334.543 414.245 335.239ZM403.979 311.998C403.979 308.778 404.146 306.205 404.484 304.277C405.013 301.65 405.977 299.319 407.377 297.281C409.208 294.545 411.497 292.455 414.245 291.008C416.993 289.56 420.004 288.836 423.285 288.836C426.609 288.836 429.646 289.614 432.394 291.169C435.188 292.724 437.502 294.949 439.333 297.842C440.445 299.56 441.238 301.596 441.72 303.954C442.205 306.044 442.445 308.594 442.445 311.594V329.53C442.445 332.584 442.205 335.187 441.72 337.329C441.238 339.743 440.419 341.833 439.262 343.602C437.538 346.28 435.179 348.49 432.394 350.035C429.622 351.625 426.48 352.457 423.285 352.449C420.053 352.449 417.041 351.672 414.245 350.117C411.497 348.615 409.184 346.526 407.305 343.843C406.05 342.075 405.16 339.958 404.629 337.49C404.193 335.293 403.979 332.559 403.979 329.288V311.998Z" fill="white"/>
<path d="M459.709 351.242L480.244 300.497H458.118V289.962H490.801V300.174L470.554 351.242H459.709Z" fill="white"/>
<path d="M157.822 298.297C155.984 299.949 155.064 301.974 155.064 304.38C155.064 306.736 155.984 308.715 157.822 310.317C159.565 311.874 161.639 312.652 164.043 312.652C166.308 312.652 168.311 311.874 170.055 310.317C171.894 308.669 172.813 306.688 172.813 304.38C172.813 301.974 171.894 299.949 170.055 298.297C168.311 296.742 166.308 295.965 164.043 295.965C161.639 295.965 159.565 296.742 157.822 298.297ZM177.056 291.508C181.063 294.903 183.065 299.194 183.065 304.38C183.065 309.47 181.063 313.712 177.056 317.106C173.332 320.313 168.995 321.916 164.043 321.916C159.001 321.916 154.616 320.313 150.892 317.106C146.933 313.712 144.952 309.47 144.952 304.38C144.952 299.194 146.933 294.903 150.892 291.508C154.616 288.305 159.001 286.7 164.043 286.7C168.995 286.7 173.332 288.305 177.056 291.508Z" fill="white"/>
<path d="M193.956 289.518V341.429H162.95V328.19H153.198V345.424C153.198 347.404 153.614 348.818 154.443 349.667C155.135 350.375 156.085 350.928 157.7 350.928H203.725L203.85 345H203.926V289.518H193.956Z" fill="white"/>
<path d="M491.594 353.299V327.037H497.002L502.846 345.339L508.635 327.037H514.012V353.299H510.124V334.79L504.28 353.299H501.387L495.571 334.896V353.299H491.594Z" fill="white"/>
<path d="M519.022 353.299V327.037H523.588V337.24H532.162V327.037H536.696V353.299H532.162V341.961H523.588V353.299H519.022Z" fill="white"/>
<path d="M540.15 352.48V349.12L549.707 337.468H541.339V333.423H555.426V337.438L546.484 348.335H556V352.48H540.15Z" fill="white"/>
<path d="M453.308 352.836H443.223V340.641H453.308V352.836Z" fill="white"/>
</g>
</g>
<defs>
<clipPath id="clip0_6_92">
<rect width="472" height="66.5964" fill="white" transform="translate(84 286.701)"/>
</clipPath>
</defs>
</svg>
