<svg width="640" height="640" viewBox="0 0 640 640" fill="none" xmlns="http://www.w3.org/2000/svg">
<rect width="640" height="640" fill="#51308E"/>
<g clip-path="url(#clip0_2_226)">
<path d="M118.693 351.968L97.18 322.529V351.977H84V292.924H97.1717V320.33L118.568 292.924H135.516L111.995 321.84L136.147 351.968H118.693ZM188.967 347.072C187.473 348.657 185.663 349.912 183.655 350.755C181.646 351.599 179.484 352.012 177.306 351.968H141.102V292.924H174.965C177.08 292.879 179.181 293.27 181.138 294.074C183.094 294.878 184.864 296.078 186.336 297.597C187.722 298.871 188.84 300.409 189.623 302.121C190.407 303.832 190.841 305.683 190.901 307.565C190.901 307.786 190.663 309.457 190.187 312.578C189.599 315.895 187.749 318.855 185.024 320.836C187.296 322.068 189.25 323.811 190.733 325.927C192.215 328.044 193.185 330.476 193.566 333.032C193.947 335.588 193.728 338.197 192.927 340.654C192.126 343.111 190.764 345.348 188.95 347.188M152.73 316.139H170.301C172.093 316.154 173.82 315.469 175.115 314.23C175.767 313.663 176.289 312.961 176.645 312.173C177 311.385 177.18 310.529 177.173 309.665C177.164 308.828 176.976 308.003 176.621 307.246C176.266 306.488 175.752 305.816 175.115 305.274C173.81 304.056 172.086 303.387 170.301 303.407H152.73V316.139ZM177.206 339.461C178.728 337.955 179.603 335.916 179.646 333.775C179.639 332.748 179.419 331.734 178.999 330.796C178.579 329.859 177.968 329.019 177.206 328.331C176.515 327.596 175.686 327.006 174.766 326.594C173.845 326.182 172.852 325.957 171.844 325.932H152.73V342.1H171.836C172.886 342.083 173.919 341.839 174.865 341.383C175.811 340.927 176.647 340.271 177.314 339.461M246.418 321.168C248.085 322.844 249.402 324.835 250.291 327.025C251.181 329.215 251.624 331.561 251.597 333.925C251.623 336.3 251.167 338.656 250.257 340.85C249.346 343.044 248.001 345.031 246.301 346.69C244.703 348.417 242.758 349.789 240.595 350.715C238.431 351.642 236.097 352.103 233.744 352.068H199.906V342.001H229.768C231.734 341.676 233.531 340.693 234.864 339.212C236.258 337.801 237.045 335.9 237.055 333.917C237.019 331.902 236.238 329.971 234.864 328.497C234.254 327.729 233.48 327.106 232.598 326.676C231.716 326.245 230.749 326.016 229.768 326.007H213.982C209.553 326.094 205.269 324.433 202.055 321.384C200.448 319.918 199.174 318.124 198.318 316.124C197.462 314.124 197.044 311.964 197.092 309.789C197.053 307.56 197.473 305.347 198.327 303.288C199.181 301.229 200.45 299.368 202.055 297.821C203.611 296.244 205.47 294.997 207.519 294.155C209.569 293.314 211.767 292.895 213.982 292.924H247.165V303.05H217.709C216 303.274 214.408 304.042 213.169 305.241C212.573 305.835 212.106 306.546 211.796 307.328C211.486 308.11 211.34 308.948 211.368 309.789C211.339 310.615 211.493 311.436 211.818 312.195C212.144 312.954 212.634 313.632 213.252 314.18C214.497 315.302 216.124 315.908 217.8 315.873H233.835C236.186 315.84 238.518 316.299 240.68 317.221C242.843 318.143 244.789 319.507 246.393 321.226M266.926 346.325C264.978 344.394 263.447 342.085 262.426 339.54C261.406 336.995 260.918 334.267 260.992 331.526C260.959 328.811 261.472 326.117 262.5 323.603C263.527 321.089 265.049 318.808 266.975 316.893C268.9 314.978 271.191 313.469 273.71 312.456C276.229 311.442 278.926 310.945 281.642 310.993C287.206 310.876 292.614 312.835 296.814 316.487L291.253 322.521C288.507 320.345 285.095 319.181 281.592 319.226C279.941 319.169 278.296 319.447 276.755 320.044C275.214 320.64 273.811 321.542 272.628 322.695C271.501 323.857 270.621 325.234 270.04 326.745C269.46 328.255 269.191 329.868 269.25 331.485C269.179 333.159 269.446 334.83 270.035 336.398C270.624 337.967 271.523 339.401 272.678 340.614C273.866 341.755 275.272 342.644 276.813 343.226C278.354 343.808 279.996 344.071 281.642 344.001C285.125 344.072 288.522 342.914 291.236 340.731L296.764 346.682C292.593 350.359 287.201 352.348 281.642 352.259C278.922 352.313 276.219 351.816 273.697 350.796C271.174 349.776 268.885 348.255 266.968 346.325M301.403 310.993H309.105V352.259H301.403V310.993ZM357.592 325.517C359.096 326.185 360.461 327.128 361.618 328.298L357.219 333.128C356.661 332.428 355.949 331.866 355.139 331.486C354.328 331.106 353.441 330.918 352.546 330.937C351.89 330.853 351.225 330.9 350.587 331.077C349.95 331.254 349.355 331.556 348.836 331.966C348.69 332.074 348.572 332.215 348.49 332.377C348.408 332.539 348.366 332.718 348.366 332.9C348.366 333.081 348.408 333.26 348.49 333.423C348.572 333.585 348.69 333.726 348.836 333.834C349.951 334.572 351.22 335.046 352.546 335.22C354.958 335.363 357.284 336.167 359.269 337.544C360.21 338.391 360.937 339.45 361.39 340.633C361.843 341.816 362.009 343.09 361.875 344.349C361.923 345.535 361.665 346.713 361.128 347.771C360.59 348.829 359.79 349.731 358.804 350.392C356.702 351.86 354.189 352.627 351.625 352.583C349.375 352.667 347.131 352.285 345.035 351.462C343.395 350.761 341.902 349.756 340.636 348.499L344.902 343.669C345.647 344.466 346.544 345.106 347.541 345.551C348.537 345.996 349.613 346.236 350.704 346.258C352.146 346.451 353.608 346.082 354.787 345.229C355.078 344.978 355.267 344.63 355.319 344.249C355.371 343.869 355.282 343.482 355.069 343.162C354.629 342.482 353.185 342.025 350.679 341.785C348.507 341.538 346.413 340.83 344.537 339.71C343.55 339.002 342.769 338.044 342.278 336.933C341.786 335.822 341.6 334.6 341.74 333.394C341.661 332.114 341.913 330.836 342.471 329.682C343.029 328.527 343.875 327.536 344.927 326.804C346.838 325.397 349.144 324.631 351.517 324.613C353.563 324.522 355.607 324.832 357.534 325.526M380.782 325.517C382.3 326.18 383.68 327.123 384.849 328.298L380.45 333.128C379.891 332.429 379.179 331.869 378.369 331.489C377.558 331.109 376.672 330.92 375.777 330.937C375.121 330.853 374.455 330.9 373.818 331.077C373.181 331.254 372.586 331.556 372.067 331.966C371.921 332.074 371.803 332.215 371.721 332.377C371.639 332.539 371.597 332.718 371.597 332.9C371.597 333.081 371.639 333.26 371.721 333.423C371.803 333.585 371.921 333.726 372.067 333.834C373.182 334.572 374.451 335.046 375.777 335.22C378.238 335.328 380.619 336.125 382.649 337.519C383.592 338.366 384.32 339.424 384.775 340.607C385.229 341.79 385.397 343.064 385.264 344.324C385.311 345.51 385.054 346.688 384.516 347.746C383.979 348.804 383.179 349.706 382.193 350.367C380.092 351.838 377.579 352.608 375.014 352.566C372.764 352.644 370.521 352.263 368.424 351.446C366.782 350.747 365.289 349.741 364.025 348.483L368.291 343.652C369.035 344.448 369.931 345.088 370.926 345.533C371.921 345.977 372.995 346.218 374.084 346.242C375.531 346.434 376.996 346.062 378.176 345.204C378.46 344.951 378.644 344.604 378.696 344.227C378.748 343.85 378.663 343.467 378.458 343.146C378.018 342.465 376.566 342.001 374.059 341.76C371.887 341.519 369.793 340.814 367.917 339.693C366.916 338.986 366.124 338.02 365.626 336.9C365.128 335.779 364.942 334.545 365.087 333.327C365.002 332.048 365.251 330.768 365.808 329.613C366.365 328.458 367.212 327.467 368.266 326.737C370.175 325.327 372.483 324.56 374.856 324.546C376.91 324.454 378.963 324.764 380.898 325.459M404.785 348.873C403.455 347.801 402.391 346.437 401.676 344.886C400.96 343.336 400.613 341.641 400.66 339.934V337.137C400.613 335.43 400.96 333.735 401.676 332.185C402.391 330.634 403.455 329.27 404.785 328.198C407.479 325.913 410.913 324.686 414.446 324.745C416.505 324.691 418.551 325.081 420.446 325.889C422.341 326.697 424.039 327.903 425.426 329.426L419.982 333.51C419.279 332.744 418.429 332.129 417.481 331.703C416.534 331.276 415.509 331.047 414.471 331.028C413.56 331.042 412.662 331.245 411.833 331.623C411.005 332.002 410.264 332.548 409.657 333.228C408.305 334.629 407.565 336.51 407.598 338.457C407.557 340.382 408.248 342.251 409.532 343.685C410.141 344.395 410.9 344.96 411.754 345.339C412.608 345.718 413.536 345.902 414.471 345.876C415.505 345.867 416.526 345.648 417.473 345.233C418.42 344.818 419.274 344.215 419.982 343.461L425.476 347.586C424.085 349.104 422.385 350.306 420.492 351.114C418.598 351.921 416.554 352.314 414.495 352.267C410.955 352.353 407.504 351.141 404.785 348.873ZM331.598 352.367C331.402 352.421 331.196 352.421 331 352.367C331 352.367 330.851 352.101 330.851 351.778V349.703C330.083 350.687 329.066 351.446 327.904 351.902C326.64 352.499 325.261 352.816 323.862 352.832C322.446 352.837 321.036 352.65 319.671 352.276C318.441 351.964 317.303 351.363 316.351 350.524C315.485 349.72 314.791 348.749 314.309 347.669C313.801 346.467 313.547 345.173 313.562 343.868C313.542 342.246 314.011 340.655 314.907 339.303C315.783 337.962 316.993 336.872 318.418 336.141C320.065 335.324 321.829 334.767 323.647 334.489C325.826 334.153 328.035 334.05 330.237 334.182C330.304 333.149 329.965 332.13 329.292 331.342C328.619 330.555 327.666 330.061 326.634 329.966C325.904 329.886 325.166 329.886 324.435 329.966C323.691 330.048 322.957 330.203 322.244 330.431C321.567 330.642 320.899 330.883 320.244 331.153C319.66 331.398 319.094 331.683 318.551 332.008C318.079 332.344 317.542 332.576 316.974 332.688C316.642 332.688 316.484 332.356 316.484 331.701V327.659C316.469 327.362 316.514 327.066 316.617 326.787C316.617 326.588 316.974 326.414 317.389 326.206C318.6 325.666 319.848 325.214 321.123 324.853C322.774 324.412 324.478 324.206 326.186 324.239C329.104 324.008 331.999 324.902 334.279 326.737C335.24 327.785 335.974 329.021 336.434 330.367C336.894 331.712 337.07 333.139 336.951 334.556V352.284C336.704 352.331 336.451 352.331 336.204 352.284L331.598 352.367ZM330.851 339.013C329.183 339.008 327.517 339.141 325.871 339.411C324.777 339.583 323.714 339.916 322.717 340.399C322.035 340.723 321.47 341.251 321.099 341.909C320.815 342.514 320.673 343.175 320.684 343.843C320.653 344.293 320.728 344.745 320.902 345.161C321.077 345.577 321.346 345.947 321.688 346.242C322.493 346.86 323.496 347.164 324.51 347.097C325.366 347.13 326.219 346.976 327.011 346.646C327.802 346.317 328.512 345.819 329.091 345.188C330.397 343.406 331.021 341.215 330.851 339.013ZM393.215 321.268C392.164 321.291 391.146 320.897 390.385 320.172C390.022 319.828 389.735 319.411 389.542 318.95C389.349 318.488 389.255 317.992 389.264 317.491C389.256 316.995 389.348 316.502 389.537 316.042C389.725 315.583 390.005 315.166 390.36 314.819C390.734 314.447 391.181 314.156 391.672 313.964C392.163 313.771 392.688 313.681 393.215 313.698C393.749 313.682 394.282 313.772 394.781 313.964C395.28 314.157 395.735 314.447 396.12 314.819C396.477 315.166 396.76 315.581 396.951 316.041C397.142 316.5 397.238 316.994 397.232 317.491C397.242 317.992 397.147 318.488 396.954 318.95C396.761 319.411 396.474 319.828 396.112 320.172C395.328 320.905 394.287 321.299 393.215 321.268ZM390.601 352.018C390.482 352.031 390.363 352.02 390.249 351.985C390.135 351.951 390.028 351.895 389.937 351.819C389.798 351.587 389.739 351.316 389.771 351.047V326.281C389.751 326.015 389.802 325.748 389.92 325.509C390.013 325.429 390.121 325.37 390.239 325.335C390.356 325.301 390.479 325.292 390.601 325.31H395.697C395.949 325.284 396.201 325.355 396.402 325.509C396.538 325.742 396.596 326.012 396.568 326.281V351.072C396.597 351.338 396.539 351.606 396.402 351.836C396.201 351.989 395.949 352.061 395.697 352.035L390.601 352.018ZM547.017 326.497C541.838 328.074 537.597 335.875 547.507 337.369L544.851 344.308C531.887 344.507 526.592 338.556 521.57 314.62L521.396 313.806C516.325 289.455 503.958 284.268 492.538 288.5C487.226 290.476 483.956 295.09 483.931 298.626C483.906 302.162 486.786 304.137 490.521 302.842C495.675 301.083 494.737 295.588 490.521 294.974L492.712 290.194C502.572 289.903 509.295 292.385 513.354 318.745L513.47 319.4C517.728 344.798 534.717 349.678 544.511 346.034C554.305 342.382 557.035 334.157 555.674 330.422C555.378 329.572 554.911 328.79 554.301 328.127C553.692 327.464 552.953 326.933 552.13 326.567C551.307 326.2 550.418 326.007 549.517 325.997C548.616 325.988 547.723 326.164 546.893 326.513M434.631 310.661H462.601V318.379H442.582V327.177H457.339V334.863H442.582V351.968H434.631V310.661Z" fill="white"/>
<path d="M473.631 351.968H465.663V310.661H468.319L485.558 331.045L502.821 310.661H505.477V351.968H497.526L497.501 328.015L485.549 341.785L473.631 328.007V351.968Z" fill="white"/>
</g>
<defs>
<clipPath id="clip0_2_226">
<rect width="472" height="65.6552" fill="white" transform="translate(84 287.172)"/>
</clipPath>
</defs>
</svg>
