<svg width="640" height="640" viewBox="0 0 640 640" fill="none" xmlns="http://www.w3.org/2000/svg">
<rect width="640" height="640" fill="#1C2B59"/>
<path d="M537.478 340.64V339.802C538.337 331.346 535.889 322.886 530.648 316.195C525.407 309.503 517.779 305.1 509.364 303.908H508.945C507.793 303.862 506.669 304.268 505.814 305.041C504.958 305.813 504.439 306.889 504.367 308.04C504.199 309.16 504.474 310.302 505.134 311.223C505.794 312.144 506.788 312.772 507.903 312.972C510.995 313.395 513.972 314.424 516.665 316C519.359 317.576 521.714 319.668 523.597 322.156C525.48 324.645 526.854 327.48 527.639 330.5C528.424 333.52 528.605 336.665 528.172 339.756C528.211 340.91 528.704 342.003 529.544 342.795C530.384 343.588 531.503 344.018 532.658 343.99C533.709 344.096 534.764 343.831 535.641 343.242C536.518 342.652 537.161 341.774 537.46 340.761" fill="white"/>
<path d="M555.383 345.097C559.785 315.326 540.121 287.798 511.457 283.545H511.206C510.055 283.45 508.912 283.812 508.027 284.555C507.141 285.297 506.585 286.359 506.478 287.51C506.357 288.079 506.353 288.666 506.465 289.236C506.576 289.807 506.803 290.349 507.13 290.83C507.457 291.311 507.877 291.72 508.367 292.034C508.856 292.348 509.404 292.56 509.978 292.656H510.275C533.662 296.146 549.669 318.779 546.291 343.348C546.267 343.586 546.267 343.826 546.291 344.064C546.283 344.638 546.389 345.207 546.603 345.74C546.816 346.272 547.132 346.757 547.533 347.167C547.935 347.577 548.413 347.903 548.941 348.128C549.469 348.353 550.035 348.471 550.609 348.475C551.703 348.627 552.814 348.365 553.725 347.74C554.636 347.115 555.28 346.173 555.532 345.097H555.383ZM126.651 356.33L100.053 320.259V356.33H84V283.759H100.053V317.448L126.353 283.759H147.199L118.48 319.319L148.027 356.256L126.651 356.33ZM212.976 350.318C211.144 352.271 208.92 353.815 206.451 354.851C203.981 355.887 201.322 356.391 198.644 356.33H154.104V283.759H195.964C198.561 283.701 201.143 284.18 203.545 285.169C205.948 286.157 208.12 287.632 209.924 289.501C211.646 291.067 213.034 292.964 214.003 295.08C214.973 297.196 215.503 299.487 215.563 301.814C215.563 302.111 215.265 304.15 214.67 307.993C213.929 312.073 211.638 315.708 208.276 318.137C211.484 319.85 214.164 322.405 216.029 325.526C217.891 328.666 218.845 332.262 218.783 335.912C218.827 338.591 218.336 341.251 217.339 343.737C216.342 346.224 214.859 348.486 212.976 350.393M168.501 312.302H190.092C192.282 312.32 194.393 311.482 195.973 309.966C196.76 309.264 197.387 308.401 197.812 307.436C198.237 306.472 198.451 305.427 198.44 304.373C198.447 303.323 198.231 302.284 197.806 301.325C197.381 300.365 196.756 299.507 195.973 298.808C194.377 297.322 192.273 296.503 190.092 296.518H168.501V312.302ZM198.589 340.965C200.443 339.101 201.509 336.596 201.567 333.967C201.555 332.706 201.285 331.46 200.773 330.308C200.261 329.155 199.517 328.12 198.589 327.266C197.72 326.353 196.677 325.624 195.521 325.122C194.365 324.62 193.12 324.355 191.86 324.344H168.501V344.204H191.86C193.15 344.177 194.419 343.872 195.58 343.31C196.741 342.748 197.768 341.942 198.589 340.947M283.434 318.472C287.522 322.649 289.811 328.262 289.811 334.107C289.811 339.951 287.522 345.564 283.434 349.741C281.464 351.857 279.072 353.536 276.413 354.669C273.753 355.803 270.886 356.365 267.995 356.321H226.489V344.018H263.193C265.61 343.6 267.814 342.377 269.447 340.546C271.131 338.813 272.067 336.487 272.053 334.069C272.045 331.59 271.116 329.202 269.447 327.369C268.701 326.425 267.751 325.662 266.667 325.138C265.584 324.614 264.396 324.343 263.193 324.344H243.817C238.413 324.423 233.191 322.389 229.262 318.677C227.286 316.87 225.719 314.661 224.666 312.199C223.613 309.737 223.099 307.078 223.157 304.401C223.099 301.648 223.612 298.914 224.664 296.37C225.717 293.826 227.285 291.529 229.271 289.622C231.196 287.668 233.5 286.128 236.041 285.096C238.582 284.063 241.308 283.561 244.05 283.62H284.607V296.053H248.405C246.273 296.392 244.311 297.422 242.821 298.985C242.036 299.686 241.41 300.547 240.985 301.51C240.56 302.473 240.345 303.516 240.355 304.568C240.342 305.583 240.557 306.589 240.984 307.51C241.411 308.431 242.039 309.245 242.821 309.891C244.346 311.279 246.345 312.028 248.405 311.985H268.107C270.974 311.946 273.817 312.503 276.458 313.622C279.098 314.74 281.477 316.395 283.443 318.481M331.064 356.33H321.367V319.105L314.889 325.87L308.384 319.095L321.367 305.555V305.508H331.064V356.33ZM380.732 334.19L392.867 356.349H381.718L370.067 335.372H361.179V356.349H351.333V305.555H372.551C383.911 305.555 389.591 310.431 389.591 320.184C389.591 327.518 386.604 332.186 380.629 334.19M361.086 325.87H374.701C378.61 325.87 380.629 323.916 380.732 320.287C380.825 316.639 378.638 315.205 374.794 315.056H361.086V325.87ZM489.755 351.37C486.615 348.056 484.918 343.631 485.037 339.067C484.918 334.498 486.618 330.07 489.764 326.755C491.308 325.188 493.148 323.944 495.177 323.094C497.206 322.245 499.384 321.808 501.583 321.808C503.783 321.808 505.961 322.245 507.99 323.094C510.019 323.944 511.858 325.188 513.402 326.755C516.548 330.07 518.249 334.498 518.13 339.067C518.249 343.635 516.548 348.064 513.402 351.379C511.857 352.942 510.016 354.183 507.987 355.031C505.958 355.878 503.782 356.314 501.583 356.314C499.385 356.314 497.208 355.878 495.179 355.031C493.151 354.183 491.31 352.942 489.764 351.379M501.555 348.224C502.676 348.277 503.794 348.084 504.833 347.66C505.871 347.236 506.804 346.59 507.567 345.767C509.051 343.938 509.861 341.655 509.861 339.299C509.861 336.944 509.051 334.66 507.567 332.832C506.798 332.008 505.867 331.351 504.833 330.901C503.798 330.452 502.683 330.221 501.555 330.221C500.428 330.221 499.312 330.452 498.278 330.901C497.244 331.351 496.313 332.008 495.544 332.832C494.059 334.66 493.249 336.944 493.249 339.299C493.249 341.655 494.059 343.938 495.544 345.767C496.306 346.59 497.24 347.236 498.278 347.66C499.316 348.084 500.435 348.277 501.555 348.224ZM417.324 355.855C417.08 355.916 416.824 355.916 416.58 355.855C416.58 355.855 416.412 355.539 416.412 355.148V352.673C415.462 353.883 414.201 354.812 412.764 355.362C411.217 356.067 409.541 356.444 407.841 356.47C406.088 356.473 404.342 356.248 402.648 355.8C401.135 355.429 399.732 354.705 398.553 353.687C397.507 352.72 396.671 351.548 396.096 350.244C395.462 348.789 395.151 347.214 395.184 345.628C395.167 343.67 395.734 341.752 396.813 340.118C397.908 338.482 399.408 337.157 401.168 336.275C403.205 335.292 405.38 334.627 407.618 334.302C410.347 333.876 413.115 333.745 415.872 333.911C415.921 332.651 415.485 331.42 414.654 330.472C413.823 329.524 412.661 328.929 411.405 328.811C410.533 328.726 409.654 328.726 408.781 328.811C407.887 328.936 407.004 329.126 406.138 329.379C404.559 329.852 403.034 330.489 401.587 331.277C401.005 331.709 400.329 331.996 399.614 332.115C399.223 332.115 399.028 331.721 399.028 330.933V326.057C399.008 325.689 399.065 325.321 399.195 324.977C399.442 324.656 399.779 324.416 400.163 324.288C401.652 323.629 403.189 323.085 404.76 322.66C406.799 322.114 408.904 321.857 411.014 321.897C414.611 321.612 418.182 322.692 421.019 324.921C422.197 326.176 423.099 327.665 423.667 329.29C424.234 330.916 424.454 332.642 424.313 334.358V354.534C424.313 354.953 424.313 355.744 424.192 355.837C423.89 355.89 423.582 355.89 423.28 355.837L417.324 355.855ZM416.412 339.681C414.348 339.693 412.288 339.867 410.251 340.202C408.896 340.411 407.579 340.818 406.343 341.412C405.508 341.793 404.81 342.42 404.342 343.208C403.979 343.975 403.804 344.817 403.83 345.665C403.799 346.211 403.897 346.756 404.115 347.257C404.334 347.758 404.666 348.201 405.086 348.55C406.084 349.295 407.315 349.658 408.557 349.574C409.611 349.615 410.66 349.43 411.636 349.032C412.612 348.634 413.492 348.032 414.216 347.266C415.799 345.14 416.577 342.522 416.412 339.876M452.949 352.728C452.506 353.24 452.003 353.697 451.45 354.087C450.811 354.544 450.125 354.931 449.403 355.241C448.609 355.577 447.787 355.842 446.946 356.032C446.14 356.235 445.311 356.335 444.48 356.33C442.323 356.452 440.167 356.069 438.183 355.213C436.2 354.357 434.443 353.051 433.052 351.398C430.189 347.562 428.771 342.84 429.05 338.062C429.023 335.559 429.378 333.068 430.102 330.672C430.748 328.61 431.791 326.694 433.173 325.033C434.522 323.48 436.209 322.258 438.105 321.459C440.166 320.594 442.384 320.166 444.619 320.203C446.149 320.225 447.659 320.554 449.059 321.171C450.442 321.749 451.705 322.583 452.781 323.628V306.364C452.736 305.994 452.8 305.619 452.967 305.285C453.27 305.09 453.634 305.01 453.991 305.062H460.384C460.744 305.026 461.105 305.104 461.417 305.285C461.594 305.434 461.669 305.778 461.669 306.364V354.552C461.669 355.148 461.669 355.483 461.371 355.641C461.03 355.819 460.645 355.893 460.263 355.855H454.084C453.764 355.891 453.442 355.816 453.172 355.641C452.99 355.381 452.91 355.063 452.949 354.748V352.728ZM445.559 327.49C444.53 327.444 443.505 327.644 442.568 328.073C441.631 328.501 440.809 329.147 440.171 329.956C438.629 332.353 437.919 335.192 438.152 338.034C437.889 340.955 438.628 343.879 440.245 346.326C440.88 347.12 441.69 347.756 442.612 348.184C443.534 348.612 444.543 348.82 445.559 348.792C446.542 348.829 447.52 348.638 448.416 348.233C449.329 347.77 450.123 347.101 450.734 346.279C451.48 345.264 452.038 344.123 452.381 342.91C452.858 341.311 453.078 339.646 453.032 337.978C453.067 336.318 452.873 334.662 452.455 333.055C452.15 331.878 451.612 330.773 450.873 329.807C450.215 329.004 449.372 328.372 448.416 327.964C447.523 327.581 446.559 327.388 445.587 327.397M474.939 318.183C474.279 318.206 473.621 318.096 473.003 317.859C472.386 317.623 471.823 317.265 471.347 316.806C470.891 316.388 470.527 315.879 470.28 315.311C470.033 314.744 469.908 314.131 469.914 313.512C469.906 312.887 470.027 312.267 470.269 311.691C470.51 311.114 470.868 310.594 471.319 310.161C471.798 309.699 472.366 309.339 472.988 309.102C473.611 308.866 474.274 308.757 474.939 308.784C475.607 308.763 476.272 308.874 476.896 309.11C477.521 309.346 478.092 309.704 478.578 310.161C479.038 310.588 479.403 311.107 479.65 311.684C479.897 312.262 480.02 312.884 480.011 313.512C480.024 314.132 479.902 314.747 479.654 315.315C479.407 315.884 479.04 316.392 478.578 316.806C478.092 317.264 477.521 317.621 476.896 317.858C476.272 318.094 475.607 318.205 474.939 318.183ZM471.617 356.33C471.326 356.362 471.033 356.282 470.798 356.107C470.62 355.821 470.544 355.483 470.584 355.148V324.363C470.54 324.041 470.606 323.713 470.77 323.432C470.885 323.334 471.018 323.261 471.162 323.218C471.307 323.175 471.458 323.162 471.608 323.181H477.964C478.283 323.148 478.603 323.237 478.857 323.432C479.032 323.709 479.107 324.037 479.071 324.363V355.148C479.111 355.483 479.036 355.821 478.857 356.107C478.597 356.289 478.279 356.369 477.964 356.33H471.617Z" fill="white"/>
</svg>
