<svg width="640" height="640" viewBox="0 0 640 640" fill="none" xmlns="http://www.w3.org/2000/svg">
<rect width="640" height="640" fill="#EC7000"/>
<g clip-path="url(#clip0_2_234)">
<path d="M121.603 353.799L98.1669 321.287V353.799H84V288.45H98.1669V318.777L121.392 288.45H139.781L114.353 320.48L140.457 353.799H121.603ZM197.704 348.392C196.105 350.143 194.15 351.532 191.97 352.465C189.789 353.397 187.435 353.852 185.064 353.799H145.811V288.45H182.589C184.893 288.398 187.182 288.833 189.307 289.725C191.432 290.617 193.345 291.948 194.921 293.629C196.437 295.049 197.658 296.755 198.512 298.649C199.366 300.542 199.837 302.586 199.898 304.662C199.898 304.917 199.635 306.752 199.108 310.21C198.481 313.869 196.457 317.142 193.464 319.338C196.329 320.906 198.71 323.229 200.347 326.054C201.985 328.88 202.816 332.101 202.751 335.366C202.799 337.767 202.372 340.153 201.496 342.389C200.619 344.624 199.309 346.664 197.642 348.392M158.495 314.16H177.533C179.475 314.168 181.342 313.411 182.729 312.053C183.454 311.426 184.036 310.651 184.437 309.781C184.838 308.91 185.049 307.964 185.055 307.006C185.049 306.055 184.838 305.117 184.437 304.255C184.035 303.393 183.453 302.628 182.729 302.012C181.325 300.684 179.465 299.946 177.533 299.949H158.486L158.495 314.16ZM185.029 339.966C186.675 338.276 187.617 336.022 187.662 333.663C187.654 332.532 187.417 331.415 186.964 330.378C186.511 329.342 185.853 328.408 185.029 327.633C184.268 326.816 183.349 326.161 182.327 325.708C181.306 325.256 180.204 325.015 179.087 325H158.477V342.888H179.078C180.222 342.861 181.346 342.584 182.372 342.078C183.399 341.572 184.302 340.848 185.02 339.957M259.945 319.733C263.541 323.537 265.545 328.573 265.545 333.808C265.545 339.043 263.541 344.079 259.945 347.883C258.225 349.776 256.123 351.282 253.778 352.302C251.432 353.322 248.897 353.832 246.34 353.799H209.606V342.792H241.995C244.131 342.418 246.075 341.321 247.498 339.685C248.99 338.111 249.819 336.024 249.816 333.856C249.792 331.631 248.969 329.488 247.498 327.818C246.85 326.974 246.016 326.29 245.062 325.818C244.108 325.347 243.059 325.1 241.995 325.096H224.879C222.489 325.126 220.118 324.681 217.901 323.788C215.685 322.894 213.668 321.57 211.967 319.891C210.212 318.262 208.82 316.281 207.882 314.078C206.944 311.874 206.482 309.497 206.525 307.103C206.473 304.648 206.924 302.209 207.851 299.935C208.778 297.662 210.161 295.602 211.914 293.884C213.577 292.138 215.581 290.755 217.803 289.82C220.025 288.885 222.416 288.419 224.826 288.45H260.849V299.668H228.943C227.09 299.879 225.358 300.697 224.019 301.994C223.341 302.643 222.807 303.427 222.45 304.294C222.094 305.162 221.922 306.095 221.947 307.032C221.919 307.936 222.089 308.834 222.447 309.664C222.805 310.494 223.342 311.235 224.019 311.834C225.347 313.081 227.112 313.759 228.934 313.721H246.313C248.883 313.693 251.428 314.215 253.78 315.252C256.131 316.289 258.233 317.817 259.945 319.733ZM307.036 323.754V308.094H314.848V347.11L307.036 347.137V331.021H288.884V347.137H281.055V308.121H288.884V323.745L307.036 323.754ZM320.509 324.263C323.937 322.137 327.906 321.049 331.938 321.129C333.327 320.985 334.73 321.156 336.044 321.63C337.357 322.104 338.547 322.867 339.525 323.864C340.503 324.862 341.243 326.066 341.691 327.389C342.138 328.712 342.282 330.118 342.111 331.504V347.137H334.817V345.048C333.157 346.282 331.175 347.007 329.111 347.137C326.312 347.331 323.537 346.504 321.299 344.811C320.431 344.059 319.745 343.118 319.295 342.061C318.844 341.004 318.641 339.858 318.701 338.71C318.683 336.312 319.559 333.993 321.159 332.206C322.191 331.174 323.438 330.383 324.811 329.888C326.184 329.393 327.65 329.208 329.103 329.345C331.101 329.427 333.055 329.961 334.817 330.907V330.117C334.817 328.212 333.404 327.168 330.656 327.001C328.133 326.863 325.618 327.4 323.371 328.555L320.509 324.263ZM334.817 339.334V336.411C334.115 335.059 332.491 334.409 329.866 334.409C326.759 334.761 325.223 335.963 324.951 338.035C324.67 340.097 326.759 341.212 329.866 341.405C332.473 341.405 334.123 340.703 334.817 339.334ZM345.868 358.074V321.893L353.144 321.103V323.192C354.786 321.907 356.793 321.176 358.876 321.103C360.648 321.022 362.416 321.33 364.057 322.005C365.697 322.679 367.171 323.705 368.373 325.009C370.631 327.503 371.882 330.747 371.882 334.111C371.882 337.475 370.631 340.719 368.373 343.213C367.17 344.516 365.696 345.539 364.056 346.213C362.415 346.886 360.647 347.192 358.876 347.11C356.775 347.136 354.736 346.393 353.144 345.021V358.1L345.868 358.074ZM353.144 331.785V335.989C353.278 337.364 353.907 338.644 354.915 339.589C355.923 340.534 357.24 341.079 358.621 341.124C360.388 341.129 362.09 340.462 363.383 339.26C364.677 338.057 365.466 336.408 365.591 334.646C365.406 329.792 363.08 327.256 358.621 327.098C355.321 327.607 353.486 329.16 353.144 331.741M374.298 358.074V321.893L381.566 321.103V323.192C383.21 321.906 385.22 321.174 387.306 321.103C389.076 321.02 390.842 321.327 392.48 322.002C394.118 322.677 395.588 323.703 396.786 325.009C399.059 327.495 400.319 330.742 400.319 334.111C400.319 337.48 399.059 340.727 396.786 343.213C395.587 344.517 394.117 345.542 392.479 346.216C390.841 346.889 389.075 347.194 387.306 347.11C385.201 347.143 383.157 346.399 381.566 345.021V358.1L374.298 358.074ZM381.557 331.794V335.998C381.687 337.375 382.315 338.656 383.324 339.602C384.333 340.547 385.652 341.092 387.034 341.133C388.8 341.137 390.502 340.471 391.796 339.268C393.09 338.066 393.879 336.417 394.003 334.655C393.828 329.801 391.493 327.265 387.034 327.107C383.716 327.616 381.908 329.169 381.557 331.75M418.949 338.149V321.147H426.252V345.074C426.352 348.443 425.133 351.718 422.855 354.203C421.845 355.361 420.61 356.302 419.225 356.968C417.839 357.633 416.333 358.009 414.797 358.074L413.244 358.24C409.521 358.092 405.991 356.55 403.351 353.922L406.74 350.086C408.434 351.47 410.473 352.368 412.638 352.684C413.522 352.773 414.414 352.668 415.253 352.375C416.091 352.082 416.856 351.61 417.492 350.99C418.542 349.618 419.063 347.913 418.958 346.189V344.863C416.971 346.508 414.443 347.354 411.866 347.237C409.29 347.121 406.849 346.049 405.019 344.231C403.316 342.316 402.39 339.834 402.421 337.271V321.147H409.706V335.436C409.607 336.9 410.075 338.346 411.014 339.474C411.558 340.052 412.235 340.488 412.987 340.742C413.739 340.996 414.542 341.061 415.325 340.931C416.107 340.801 416.846 340.479 417.475 339.996C418.104 339.512 418.604 338.881 418.931 338.157M457.789 323.982V331.346H443.043V347.786H435.117V308.094H463.012V315.503H443.043V323.982H457.789ZM503.143 308.094H505.793V347.786H497.85L497.824 324.772L485.921 337.991L474.019 324.772V347.786H466.075V308.094H468.726L485.912 327.668L503.143 308.094ZM522.418 312.158H549.102V317.732H522.418V312.158Z" fill="white"/>
<path d="M516.449 323.613V308.446H518.143V323.613C518.183 325.614 518.667 327.581 519.559 329.372C520.452 331.163 521.731 332.734 523.304 333.97C526.865 336.753 531.254 338.264 535.773 338.264C540.292 338.264 544.681 336.753 548.241 333.97C549.815 332.734 551.094 331.163 551.986 329.372C552.879 327.581 553.362 325.614 553.402 323.613V308.446H555.097V323.613C555.097 332.531 546.433 339.702 535.768 339.729C525.113 339.755 516.449 332.531 516.449 323.613Z" fill="white"/>
<path d="M535.778 340.799C524.692 340.799 515.405 333.014 515.405 323.613V307.357H519.048V323.613C519.081 325.473 519.53 327.301 520.362 328.965C521.194 330.628 522.389 332.084 523.858 333.224C527.245 335.857 531.413 337.287 535.703 337.287C539.993 337.287 544.161 335.857 547.548 333.224C549.017 332.084 550.212 330.628 551.044 328.965C551.877 327.301 552.326 325.473 552.359 323.613V307.357H556.001V323.613C556.001 332.9 546.899 340.677 535.699 340.703" fill="white"/>
<path d="M522.375 317.574V319.382C522.309 321.175 522.606 322.963 523.248 324.638C523.889 326.314 524.861 327.843 526.106 329.134C527.352 330.425 528.844 331.452 530.496 332.154C532.147 332.855 533.922 333.217 535.716 333.217C537.51 333.217 539.286 332.855 540.937 332.154C542.588 331.452 544.081 330.425 545.326 329.134C546.571 327.843 547.544 326.314 548.185 324.638C548.826 322.963 549.123 321.175 549.058 319.382V317.574H522.375ZM553.982 353.799C551.888 350.93 549.147 348.595 545.98 346.986C542.814 345.377 539.312 344.538 535.76 344.538C532.208 344.538 528.707 345.377 525.54 346.986C522.374 348.595 519.632 350.93 517.538 353.799H553.982ZM535.778 281.762C534.017 281.759 532.272 282.103 530.644 282.775C529.017 283.448 527.538 284.435 526.292 285.68C525.047 286.925 524.06 288.404 523.388 290.032C522.715 291.66 522.371 293.404 522.375 295.165V310.394H549.058V295.165C549.065 293.409 548.725 291.669 548.059 290.044C547.392 288.419 546.411 286.942 545.173 285.697C543.934 284.452 542.462 283.464 540.841 282.788C539.22 282.113 537.481 281.764 535.725 281.762M526.438 308.841C526.14 308.841 525.848 308.752 525.6 308.586C525.351 308.42 525.158 308.184 525.044 307.909C524.929 307.633 524.899 307.329 524.958 307.036C525.016 306.743 525.16 306.474 525.371 306.263C525.582 306.052 525.851 305.908 526.144 305.85C526.437 305.792 526.74 305.822 527.016 305.936C527.292 306.05 527.528 306.244 527.694 306.492C527.86 306.74 527.948 307.032 527.948 307.331C527.948 307.731 527.789 308.115 527.506 308.398C527.223 308.681 526.839 308.841 526.438 308.841ZM526.438 304.592C526.14 304.592 525.848 304.504 525.6 304.338C525.351 304.172 525.158 303.936 525.044 303.66C524.929 303.384 524.899 303.081 524.958 302.788C525.016 302.495 525.16 302.226 525.371 302.015C525.582 301.804 525.851 301.66 526.144 301.602C526.437 301.544 526.74 301.573 527.016 301.688C527.292 301.802 527.528 301.995 527.694 302.244C527.86 302.492 527.948 302.784 527.948 303.083C527.948 303.483 527.789 303.867 527.506 304.15C527.223 304.433 526.839 304.592 526.438 304.592ZM526.438 300.344C526.14 300.344 525.848 300.255 525.6 300.089C525.351 299.924 525.158 299.688 525.044 299.412C524.929 299.136 524.899 298.833 524.958 298.54C525.016 298.247 525.16 297.978 525.371 297.767C525.582 297.556 525.851 297.412 526.144 297.353C526.437 297.295 526.74 297.325 527.016 297.439C527.292 297.554 527.528 297.747 527.694 297.995C527.86 298.244 527.948 298.536 527.948 298.834C527.948 299.235 527.789 299.619 527.506 299.902C527.223 300.185 526.839 300.344 526.438 300.344ZM526.438 296.087C526.139 296.087 525.847 295.998 525.599 295.832C525.35 295.666 525.157 295.429 525.043 295.153C524.929 294.876 524.899 294.572 524.958 294.279C525.017 293.986 525.162 293.717 525.374 293.506C525.586 293.296 525.856 293.153 526.149 293.095C526.443 293.038 526.747 293.069 527.022 293.185C527.298 293.3 527.533 293.495 527.698 293.745C527.863 293.994 527.95 294.287 527.948 294.586C527.946 294.985 527.786 295.367 527.503 295.648C527.22 295.929 526.837 296.087 526.438 296.087ZM526.438 291.839C526.14 291.839 525.848 291.75 525.6 291.584C525.351 291.418 525.158 291.182 525.044 290.907C524.929 290.631 524.899 290.327 524.958 290.034C525.016 289.741 525.16 289.472 525.371 289.261C525.582 289.05 525.851 288.906 526.144 288.848C526.437 288.79 526.74 288.82 527.016 288.934C527.292 289.048 527.528 289.242 527.694 289.49C527.86 289.738 527.948 290.03 527.948 290.329C527.948 290.729 527.789 291.113 527.506 291.396C527.223 291.679 526.839 291.839 526.438 291.839ZM531.082 308.841C530.783 308.841 530.491 308.752 530.243 308.586C529.995 308.42 529.801 308.184 529.687 307.909C529.573 307.633 529.543 307.329 529.601 307.036C529.659 306.743 529.803 306.474 530.014 306.263C530.225 306.052 530.494 305.908 530.787 305.85C531.08 305.792 531.384 305.822 531.66 305.936C531.935 306.05 532.171 306.244 532.337 306.492C532.503 306.74 532.591 307.032 532.591 307.331C532.591 307.731 532.432 308.115 532.149 308.398C531.866 308.681 531.482 308.841 531.082 308.841ZM531.082 304.592C530.783 304.592 530.491 304.504 530.243 304.338C529.995 304.172 529.801 303.936 529.687 303.66C529.573 303.384 529.543 303.081 529.601 302.788C529.659 302.495 529.803 302.226 530.014 302.015C530.225 301.804 530.494 301.66 530.787 301.602C531.08 301.544 531.384 301.573 531.66 301.688C531.935 301.802 532.171 301.995 532.337 302.244C532.503 302.492 532.591 302.784 532.591 303.083C532.591 303.483 532.432 303.867 532.149 304.15C531.866 304.433 531.482 304.592 531.082 304.592ZM531.082 300.344C530.783 300.344 530.491 300.255 530.243 300.089C529.995 299.924 529.801 299.688 529.687 299.412C529.573 299.136 529.543 298.833 529.601 298.54C529.659 298.247 529.803 297.978 530.014 297.767C530.225 297.556 530.494 297.412 530.787 297.353C531.08 297.295 531.384 297.325 531.66 297.439C531.935 297.554 532.171 297.747 532.337 297.995C532.503 298.244 532.591 298.536 532.591 298.834C532.591 299.235 532.432 299.619 532.149 299.902C531.866 300.185 531.482 300.344 531.082 300.344ZM531.082 296.087C530.783 296.087 530.491 295.998 530.242 295.832C529.994 295.666 529.8 295.429 529.686 295.153C529.572 294.876 529.543 294.572 529.602 294.279C529.661 293.986 529.805 293.717 530.017 293.506C530.229 293.296 530.499 293.153 530.793 293.095C531.086 293.038 531.39 293.069 531.666 293.185C531.941 293.3 532.176 293.495 532.341 293.745C532.506 293.994 532.593 294.287 532.591 294.586C532.589 294.985 532.429 295.367 532.146 295.648C531.863 295.929 531.481 296.087 531.082 296.087ZM531.082 291.839C530.783 291.839 530.491 291.75 530.243 291.584C529.995 291.418 529.801 291.182 529.687 290.907C529.573 290.631 529.543 290.327 529.601 290.034C529.659 289.741 529.803 289.472 530.014 289.261C530.225 289.05 530.494 288.906 530.787 288.848C531.08 288.79 531.384 288.82 531.66 288.934C531.935 289.048 532.171 289.242 532.337 289.49C532.503 289.738 532.591 290.03 532.591 290.329C532.591 290.729 532.432 291.113 532.149 291.396C531.866 291.679 531.482 291.839 531.082 291.839ZM531.082 287.59C530.782 287.59 530.49 287.501 530.241 287.335C529.993 287.168 529.799 286.931 529.685 286.654C529.572 286.377 529.543 286.073 529.602 285.779C529.662 285.486 529.808 285.217 530.021 285.007C530.233 284.796 530.504 284.654 530.798 284.598C531.092 284.541 531.396 284.574 531.672 284.691C531.947 284.808 532.182 285.004 532.346 285.255C532.509 285.505 532.595 285.799 532.591 286.098C532.591 286.296 532.552 286.491 532.476 286.673C532.4 286.855 532.289 287.021 532.148 287.159C532.008 287.298 531.841 287.408 531.658 287.482C531.475 287.556 531.279 287.593 531.082 287.59ZM535.734 308.841C535.435 308.842 535.142 308.755 534.893 308.59C534.643 308.426 534.448 308.19 534.333 307.915C534.217 307.639 534.186 307.335 534.243 307.042C534.301 306.748 534.444 306.478 534.654 306.266C534.865 306.054 535.134 305.91 535.427 305.851C535.72 305.792 536.024 305.821 536.301 305.935C536.577 306.049 536.813 306.243 536.98 306.491C537.146 306.74 537.235 307.032 537.235 307.331C537.235 307.731 537.076 308.115 536.793 308.398C536.509 308.681 536.134 308.841 535.734 308.841ZM535.725 304.592C535.426 304.592 535.135 304.504 534.886 304.338C534.638 304.172 534.445 303.936 534.33 303.66C534.216 303.384 534.186 303.081 534.244 302.788C534.303 302.495 534.446 302.226 534.658 302.015C534.869 301.804 535.138 301.66 535.431 301.602C535.723 301.544 536.027 301.573 536.303 301.688C536.579 301.802 536.814 301.995 536.98 302.244C537.146 302.492 537.235 302.784 537.235 303.083C537.235 303.483 537.076 303.867 536.793 304.15C536.509 304.433 536.125 304.592 535.725 304.592ZM535.725 300.344C535.426 300.344 535.135 300.255 534.886 300.089C534.638 299.924 534.445 299.688 534.33 299.412C534.216 299.136 534.186 298.833 534.244 298.54C534.303 298.247 534.446 297.978 534.658 297.767C534.869 297.556 535.138 297.412 535.431 297.353C535.723 297.295 536.027 297.325 536.303 297.439C536.579 297.554 536.814 297.747 536.98 297.995C537.146 298.244 537.235 298.536 537.235 298.834C537.235 299.235 537.076 299.619 536.793 299.902C536.509 300.185 536.125 300.344 535.725 300.344ZM535.725 296.087C535.426 296.087 535.134 295.998 534.885 295.832C534.637 295.666 534.443 295.429 534.329 295.153C534.215 294.876 534.186 294.572 534.245 294.279C534.304 293.986 534.449 293.717 534.661 293.506C534.873 293.296 535.142 293.153 535.436 293.095C535.729 293.038 536.033 293.069 536.309 293.185C536.585 293.3 536.82 293.495 536.985 293.745C537.149 293.994 537.237 294.287 537.235 294.586C537.232 294.985 537.072 295.367 536.79 295.648C536.507 295.929 536.124 296.087 535.725 296.087ZM535.725 291.839C535.426 291.839 535.135 291.75 534.886 291.584C534.638 291.418 534.445 291.182 534.33 290.907C534.216 290.631 534.186 290.327 534.244 290.034C534.303 289.741 534.446 289.472 534.658 289.261C534.869 289.05 535.138 288.906 535.431 288.848C535.723 288.79 536.027 288.82 536.303 288.934C536.579 289.048 536.814 289.242 536.98 289.49C537.146 289.738 537.235 290.03 537.235 290.329C537.235 290.729 537.076 291.113 536.793 291.396C536.509 291.679 536.125 291.839 535.725 291.839ZM535.725 287.59C535.426 287.59 535.133 287.501 534.884 287.335C534.636 287.168 534.442 286.931 534.329 286.654C534.215 286.377 534.186 286.073 534.246 285.779C534.305 285.486 534.451 285.217 534.664 285.007C534.877 284.796 535.147 284.654 535.441 284.598C535.735 284.541 536.04 284.574 536.315 284.691C536.591 284.808 536.825 285.004 536.989 285.255C537.153 285.505 537.238 285.799 537.235 286.098C537.235 286.296 537.196 286.491 537.12 286.673C537.043 286.855 536.932 287.021 536.792 287.159C536.651 287.298 536.485 287.408 536.301 287.482C536.118 287.556 535.922 287.593 535.725 287.59ZM540.377 308.841C540.077 308.846 539.783 308.762 539.531 308.599C539.28 308.436 539.082 308.202 538.964 307.927C538.845 307.652 538.812 307.347 538.867 307.053C538.922 306.758 539.064 306.487 539.274 306.273C539.484 306.059 539.753 305.913 540.046 305.852C540.34 305.792 540.645 305.82 540.922 305.934C541.2 306.047 541.437 306.241 541.604 306.489C541.771 306.738 541.86 307.031 541.861 307.331C541.861 307.728 541.704 308.11 541.425 308.392C541.145 308.675 540.774 308.836 540.377 308.841ZM540.368 304.592C540.069 304.596 539.775 304.51 539.525 304.346C539.274 304.183 539.078 303.948 538.961 303.673C538.844 303.397 538.812 303.093 538.868 302.799C538.924 302.505 539.067 302.234 539.277 302.021C539.487 301.808 539.756 301.663 540.05 301.603C540.343 301.544 540.648 301.572 540.924 301.686C541.201 301.8 541.438 301.993 541.605 302.242C541.772 302.491 541.86 302.783 541.861 303.083C541.861 303.48 541.704 303.861 541.425 304.144C541.145 304.427 540.766 304.588 540.368 304.592ZM540.368 300.344C539.998 300.304 539.656 300.128 539.407 299.851C539.159 299.574 539.021 299.215 539.021 298.843C539.021 298.471 539.159 298.112 539.407 297.835C539.656 297.558 539.998 297.382 540.368 297.342C540.738 297.382 541.081 297.558 541.329 297.835C541.578 298.112 541.716 298.471 541.716 298.843C541.716 299.215 541.578 299.574 541.329 299.851C541.081 300.128 540.738 300.304 540.368 300.344ZM540.368 296.087C540.012 296.032 539.687 295.851 539.452 295.578C539.217 295.304 539.088 294.955 539.088 294.595C539.088 294.234 539.217 293.885 539.452 293.612C539.687 293.338 540.012 293.157 540.368 293.103C540.725 293.157 541.05 293.338 541.285 293.612C541.519 293.885 541.649 294.234 541.649 294.595C541.649 294.955 541.519 295.304 541.285 295.578C541.05 295.851 540.725 296.032 540.368 296.087ZM540.368 291.839C540.006 291.79 539.673 291.612 539.432 291.337C539.19 291.061 539.058 290.708 539.058 290.342C539.058 289.976 539.19 289.623 539.432 289.347C539.673 289.072 540.006 288.894 540.368 288.845C540.731 288.894 541.064 289.072 541.305 289.347C541.546 289.623 541.679 289.976 541.679 290.342C541.679 290.708 541.546 291.061 541.305 291.337C541.064 291.612 540.731 291.79 540.368 291.839ZM540.368 287.59C540.068 287.594 539.774 287.508 539.523 287.343C539.272 287.179 539.076 286.943 538.959 286.666C538.843 286.39 538.812 286.085 538.869 285.79C538.927 285.496 539.071 285.225 539.283 285.013C539.496 284.801 539.766 284.657 540.061 284.599C540.355 284.541 540.66 284.573 540.937 284.689C541.213 284.806 541.449 285.002 541.613 285.253C541.778 285.504 541.864 285.798 541.861 286.098C541.861 286.494 541.703 286.873 541.423 287.153C541.144 287.433 540.764 287.59 540.368 287.59ZM545.02 308.841C544.721 308.846 544.426 308.762 544.175 308.599C543.923 308.436 543.725 308.202 543.607 307.927C543.489 307.652 543.455 307.347 543.51 307.053C543.565 306.758 543.707 306.487 543.917 306.273C544.127 306.059 544.396 305.913 544.69 305.852C544.983 305.792 545.288 305.82 545.566 305.934C545.843 306.047 546.08 306.241 546.247 306.489C546.415 306.738 546.504 307.031 546.504 307.331C546.504 307.728 546.347 308.11 546.068 308.392C545.788 308.675 545.418 308.836 545.02 308.841ZM545.012 304.592C544.712 304.596 544.419 304.51 544.168 304.346C543.918 304.183 543.721 303.948 543.604 303.673C543.487 303.397 543.455 303.093 543.511 302.799C543.568 302.505 543.71 302.234 543.92 302.021C544.131 301.808 544.4 301.663 544.693 301.603C544.986 301.544 545.291 301.572 545.568 301.686C545.845 301.8 546.081 301.993 546.248 302.242C546.415 302.491 546.504 302.783 546.504 303.083C546.504 303.48 546.347 303.861 546.068 304.144C545.788 304.427 545.409 304.588 545.012 304.592ZM545.012 300.344C544.642 300.304 544.299 300.128 544.051 299.851C543.802 299.574 543.664 299.215 543.664 298.843C543.664 298.471 543.802 298.112 544.051 297.835C544.299 297.558 544.642 297.382 545.012 297.342C545.382 297.382 545.724 297.558 545.973 297.835C546.221 298.112 546.359 298.471 546.359 298.843C546.359 299.215 546.221 299.574 545.973 299.851C545.724 300.128 545.382 300.304 545.012 300.344ZM545.012 296.087C544.655 296.032 544.33 295.851 544.095 295.578C543.861 295.304 543.731 294.955 543.731 294.595C543.731 294.234 543.861 293.885 544.095 293.612C544.33 293.338 544.655 293.157 545.012 293.103C545.368 293.157 545.693 293.338 545.928 293.612C546.163 293.885 546.292 294.234 546.292 294.595C546.292 294.955 546.163 295.304 545.928 295.578C545.693 295.851 545.368 296.032 545.012 296.087ZM545.012 291.839C544.649 291.79 544.316 291.612 544.075 291.337C543.834 291.061 543.701 290.708 543.701 290.342C543.701 289.976 543.834 289.623 544.075 289.347C544.316 289.072 544.649 288.894 545.012 288.845C545.374 288.894 545.707 289.072 545.948 289.347C546.19 289.623 546.322 289.976 546.322 290.342C546.322 290.708 546.19 291.061 545.948 291.337C545.707 291.612 545.374 291.79 545.012 291.839Z" fill="white"/>
<path d="M533.847 340.264H537.726V347.418H533.847V340.264Z" fill="white"/>
</g>
<defs>
<clipPath id="clip0_2_234">
<rect width="472" height="76.4759" fill="white" transform="translate(84 281.762)"/>
</clipPath>
</defs>
</svg>
