<svg width="640" height="640" viewBox="0 0 640 640" fill="none" xmlns="http://www.w3.org/2000/svg">
<rect width="640" height="640" fill="#289EDA"/>
<path d="M125.41 358.084L99.5746 323.112V358.084H84V287.63H99.584V320.271L125.107 287.63H145.364L117.415 322.14L146.147 358.084H125.41ZM209.201 352.232C207.422 354.129 205.264 355.631 202.867 356.639C200.47 357.647 197.887 358.14 195.288 358.084H152.028V287.63H192.55C195.077 287.573 197.589 288.038 199.928 288.996C202.267 289.955 204.382 291.386 206.143 293.2C207.797 294.719 209.13 296.554 210.063 298.597C210.997 300.639 211.513 302.848 211.579 305.093C211.579 305.357 211.296 307.358 210.73 311.077C210.007 315.04 207.777 318.568 204.51 320.922C207.599 322.557 210.188 324.997 212.004 327.983C213.876 331.051 214.844 334.584 214.798 338.177C214.84 340.779 214.363 343.363 213.394 345.778C212.424 348.193 210.983 350.391 209.154 352.241M166.017 315.278H186.972C189.109 315.29 191.167 314.463 192.701 312.975C193.486 312.308 194.116 311.477 194.546 310.541C194.977 309.605 195.198 308.587 195.193 307.557C195.199 306.53 194.979 305.515 194.548 304.584C194.118 303.652 193.487 302.827 192.701 302.167C191.148 300.722 189.102 299.925 186.981 299.939H166.026L166.017 315.278ZM195.25 343.076C196.993 341.267 197.991 338.867 198.044 336.355C198.032 335.132 197.769 333.924 197.27 332.807C196.771 331.69 196.048 330.687 195.146 329.861C194.305 328.968 193.292 328.255 192.168 327.765C191.043 327.275 189.831 327.018 188.605 327.011H166.017V346.295H188.69C189.944 346.274 191.18 345.981 192.311 345.437C193.442 344.893 194.441 344.11 195.24 343.142M277.644 321.319C281.613 325.376 283.836 330.826 283.836 336.502C283.836 342.177 281.613 347.628 277.644 351.685C275.737 353.743 273.417 355.377 270.836 356.48C268.255 357.583 265.47 358.129 262.664 358.084H222.331V346.191H257.973C260.328 345.763 262.467 344.548 264.042 342.746C265.657 341.049 266.55 338.792 266.534 336.45C266.524 334.053 265.638 331.744 264.042 329.956C263.305 329.062 262.377 328.343 261.328 327.851C260.278 327.36 259.132 327.108 257.973 327.114H239.142C233.857 327.209 228.746 325.226 224.908 321.593C222.991 319.846 221.469 317.711 220.444 315.33C219.419 312.948 218.913 310.375 218.961 307.783C218.915 305.126 219.419 302.487 220.443 300.034C221.466 297.581 222.986 295.367 224.908 293.53C226.76 291.641 228.977 290.149 231.424 289.143C233.871 288.137 236.497 287.638 239.142 287.678H278.73V299.76H243.588C241.555 299.974 239.65 300.853 238.17 302.261C237.417 302.965 236.824 303.822 236.432 304.775C236.039 305.728 235.856 306.753 235.895 307.783C235.865 308.759 236.053 309.73 236.445 310.624C236.837 311.519 237.423 312.315 238.16 312.956C239.648 314.293 241.588 315.015 243.588 314.976H262.721C265.525 314.939 268.306 315.488 270.886 316.589C273.465 317.689 275.787 319.316 277.701 321.366M302.45 351.467C300.168 349.111 298.382 346.32 297.198 343.26C296.015 340.201 295.457 336.935 295.56 333.656C295.506 330.43 296.09 327.225 297.277 324.226C298.464 321.226 300.232 318.49 302.478 316.174C304.647 313.848 307.284 312.008 310.216 310.776C313.148 309.544 316.308 308.949 319.488 309.029C325.945 308.925 332.199 311.292 336.969 315.646L330.702 322.763C327.549 320.159 323.577 318.754 319.488 318.799C317.56 318.725 315.638 319.058 313.847 319.777C312.056 320.496 310.437 321.584 309.095 322.971C307.772 324.387 306.742 326.051 306.065 327.867C305.388 329.683 305.077 331.615 305.15 333.552C305.055 335.561 305.36 337.568 306.045 339.459C306.73 341.349 307.783 343.086 309.143 344.567C310.493 345.934 312.114 347.003 313.902 347.705C315.691 348.408 317.606 348.728 319.526 348.645C323.608 348.73 327.581 347.324 330.702 344.69L337.064 351.958C332.299 356.322 326.042 358.694 319.582 358.585C316.403 358.645 313.246 358.041 310.313 356.811C307.381 355.58 304.738 353.751 302.554 351.439" fill="white"/>
<path d="M342.585 354.092C339.593 350.79 337.937 346.493 337.937 342.038C337.937 337.582 339.593 333.286 342.585 329.984C344.106 328.448 345.916 327.228 347.911 326.396C349.907 325.564 352.047 325.135 354.209 325.135C356.371 325.135 358.511 325.564 360.507 326.396C362.502 327.228 364.312 328.448 365.833 329.984C367.37 331.586 368.572 333.477 369.369 335.548C370.167 337.62 370.543 339.829 370.477 342.047C370.543 344.266 370.167 346.475 369.369 348.546C368.572 350.617 367.37 352.509 365.833 354.111C364.314 355.65 362.504 356.873 360.509 357.707C358.513 358.542 356.372 358.971 354.209 358.971C352.046 358.971 349.905 358.542 347.909 357.707C345.914 356.873 344.104 355.65 342.585 354.111M354.176 350.967C355.286 351.015 356.393 350.816 357.417 350.383C358.44 349.95 359.355 349.296 360.094 348.466C361.552 346.682 362.348 344.45 362.348 342.146C362.348 339.843 361.552 337.61 360.094 335.827C359.351 334.995 358.431 334.34 357.403 333.909C356.374 333.478 355.262 333.282 354.148 333.335C353.046 333.293 351.949 333.495 350.934 333.925C349.919 334.356 349.012 335.005 348.276 335.827C346.819 337.61 346.023 339.843 346.023 342.146C346.023 344.45 346.819 346.682 348.276 348.466C349.014 349.293 349.925 349.946 350.945 350.379C351.966 350.811 353.069 351.012 354.176 350.967ZM378.973 354.092C377.429 352.498 376.22 350.611 375.418 348.542C374.615 346.474 374.235 344.265 374.3 342.047C374.234 339.826 374.613 337.615 375.415 335.543C376.218 333.471 377.427 331.581 378.973 329.984C380.491 328.449 382.299 327.23 384.292 326.398C386.285 325.566 388.423 325.138 390.583 325.138C392.742 325.138 394.88 325.566 396.873 326.398C398.866 327.23 400.674 328.449 402.193 329.984C403.738 331.581 404.948 333.471 405.75 335.543C406.553 337.615 406.932 339.826 406.865 342.047C406.933 344.268 406.555 346.479 405.754 348.551C404.954 350.623 403.746 352.513 402.202 354.111C400.685 355.65 398.877 356.872 396.883 357.706C394.889 358.54 392.749 358.97 390.587 358.97C388.426 358.97 386.286 358.54 384.292 357.706C382.298 356.872 380.49 355.65 378.973 354.111M390.564 350.967C391.669 351.011 392.771 350.809 393.789 350.377C394.808 349.944 395.718 349.292 396.454 348.466C397.911 346.682 398.708 344.45 398.708 342.146C398.708 339.843 397.911 337.61 396.454 335.827C395.695 335.023 394.78 334.382 393.765 333.944C392.749 333.506 391.655 333.28 390.55 333.28C389.444 333.28 388.35 333.506 387.335 333.944C386.319 334.382 385.404 335.023 384.646 335.827C383.188 337.61 382.392 339.843 382.392 342.146C382.392 344.45 383.188 346.682 384.646 348.466C385.385 349.296 386.299 349.95 387.323 350.383C388.347 350.816 389.454 351.015 390.564 350.967ZM412.765 308.906H421.704V358.604H412.765V308.906ZM436.759 309.058H470.155V318.251H446.255V328.757H463.887V337.922H446.255V358.339H436.759V309.058ZM483.294 358.339H473.798V309.048H476.97L497.547 333.344L518.153 309.048H521.305V358.32H511.81L511.781 329.748L497.547 346.163L483.294 329.748V358.339Z" fill="white"/>
<path d="M551.425 325.264C551.159 325.707 550.796 326.084 550.362 326.365C549.929 326.647 549.437 326.825 548.924 326.888C547.818 327.123 546.664 326.92 545.705 326.322L540.929 323.49L548.82 309.105C551.125 305.176 551.806 300.502 550.717 296.079C550.157 293.807 549.131 291.677 547.705 289.823C546.278 287.969 544.482 286.432 542.43 285.308C540.532 284.038 538.381 283.194 536.126 282.835C533.87 282.477 531.564 282.612 529.366 283.232C527.255 283.925 525.302 285.026 523.618 286.474C521.933 287.922 520.551 289.688 519.549 291.67L511.658 306.056L506.665 303.13C505.683 302.59 504.942 301.7 504.588 300.638C504.41 300.154 504.341 299.636 504.385 299.123C504.429 298.609 504.585 298.111 504.843 297.664L509.015 290.019C509.261 289.571 509.596 289.178 510.001 288.866C510.405 288.555 510.87 288.33 511.365 288.206C511.915 288.074 512.486 288.056 513.043 288.153C513.6 288.251 514.131 288.461 514.603 288.773L517.605 290.547C518.708 288.368 520.256 286.444 522.148 284.899C524.04 283.355 526.236 282.224 528.592 281.58C531.068 280.959 533.645 280.861 536.161 281.292C538.677 281.723 541.075 282.673 543.204 284.081C545.492 285.299 547.51 286.968 549.137 288.985C550.764 291.003 551.966 293.329 552.671 295.824C553.313 298.221 553.473 300.721 553.142 303.181C552.812 305.64 551.997 308.01 550.746 310.152L553.596 311.851C554.611 312.431 555.374 313.366 555.739 314.475C555.936 314.968 556.022 315.498 555.993 316.028C555.964 316.558 555.819 317.075 555.569 317.543L551.425 325.264Z" fill="white"/>
</svg>
