<svg width="640" height="640" viewBox="0 0 640 640" fill="none" xmlns="http://www.w3.org/2000/svg">
<rect width="640" height="640" fill="#E63462"/>
<g clip-path="url(#clip0_2_222)">
<path d="M126.851 356.676L100.126 320.43V356.676H84V283.737H100.126V317.585L126.556 283.737H147.56L118.6 319.465L148.373 356.676H126.851ZM213.62 350.651C211.773 352.609 209.535 354.157 207.051 355.195C204.567 356.233 201.893 356.737 199.201 356.676H154.44V283.737H196.386C199.001 283.679 201.599 284.163 204.018 285.158C206.437 286.153 208.623 287.638 210.44 289.519C212.155 291.092 213.539 292.992 214.511 295.106C215.483 297.221 216.023 299.509 216.1 301.835C216.1 302.099 215.795 304.172 215.216 308.013C214.469 312.124 212.156 315.786 208.763 318.225C212.043 319.901 214.788 322.462 216.688 325.617C218.588 328.772 219.567 332.396 219.514 336.079C219.562 338.774 219.071 341.451 218.069 343.954C217.068 346.456 215.576 348.733 213.681 350.651M168.91 312.586H190.574C192.776 312.585 194.894 311.737 196.488 310.218C197.322 309.529 197.994 308.667 198.46 307.691C198.925 306.715 199.171 305.649 199.181 304.568C199.17 303.5 198.923 302.448 198.457 301.487C197.992 300.526 197.319 299.68 196.488 299.01C194.921 297.425 192.802 296.508 190.574 296.449H168.91V312.586ZM199.181 341.241C201.067 339.34 202.136 336.776 202.158 334.097C202.152 332.832 201.884 331.581 201.371 330.423C200.859 329.266 200.113 328.227 199.181 327.371C198.308 326.448 197.257 325.71 196.093 325.202C194.928 324.694 193.674 324.426 192.403 324.414H168.91V344.391H192.403C193.699 344.362 194.974 344.057 196.143 343.497C197.312 342.936 198.347 342.132 199.181 341.139M284.67 318.632C288.769 322.835 291.064 328.475 291.064 334.346C291.064 340.218 288.769 345.858 284.67 350.061C282.69 352.185 280.287 353.87 277.616 355.009C274.946 356.149 272.066 356.716 269.163 356.676H227.217V344.381H264.103C266.531 343.967 268.749 342.751 270.403 340.926C272.114 339.193 273.078 336.858 273.086 334.423C273.058 331.916 272.102 329.508 270.403 327.665C269.648 326.719 268.69 325.954 267.599 325.428C266.509 324.902 265.314 324.628 264.103 324.627H244.613C239.141 324.73 233.848 322.675 229.879 318.906C227.886 317.087 226.307 314.861 225.25 312.378C224.193 309.896 223.682 307.215 223.751 304.517C223.701 301.768 224.219 299.039 225.273 296.5C226.328 293.961 227.896 291.667 229.879 289.763C231.797 287.809 234.093 286.265 236.625 285.224C239.158 284.183 241.875 283.667 244.613 283.706H285.615V296.205H249.237C247.12 296.466 245.147 297.412 243.617 298.898C242.852 299.617 242.246 300.489 241.838 301.457C241.43 302.425 241.23 303.467 241.25 304.517C241.227 305.533 241.427 306.542 241.836 307.472C242.246 308.403 242.853 309.232 243.617 309.903C245.152 311.297 247.164 312.046 249.237 311.996H269.052C271.975 311.943 274.877 312.506 277.568 313.65C280.259 314.793 282.679 316.491 284.67 318.632ZM372.211 334.443L384.395 356.676H373.187L361.491 335.601H352.539V356.666H342.753V305.594H364.092C375.493 305.594 381.194 310.496 381.194 320.298C381.194 327.665 378.207 332.35 372.211 334.392M352.539 326.029H366.246C370.169 326.029 372.191 324.099 372.293 320.41C372.394 316.721 370.199 315.329 366.328 315.024H352.539V326.029ZM481.803 351.707C478.741 348.31 477.047 343.899 477.047 339.326C477.047 334.752 478.741 330.341 481.803 326.944C483.352 325.368 485.2 324.117 487.237 323.263C489.275 322.409 491.463 321.969 493.672 321.969C495.882 321.969 498.069 322.409 500.107 323.263C502.144 324.117 503.992 325.368 505.541 326.944C508.605 330.346 510.3 334.762 510.3 339.341C510.3 343.919 508.605 348.336 505.541 351.738C503.99 353.311 502.143 354.56 500.105 355.413C498.067 356.265 495.881 356.704 493.672 356.704C491.463 356.704 489.277 356.265 487.239 355.413C485.202 354.56 483.354 353.311 481.803 351.738M493.631 348.476C494.776 348.503 495.912 348.276 496.958 347.81C498.003 347.344 498.932 346.652 499.678 345.783C501.239 343.995 502.066 341.683 501.994 339.31C502.06 336.929 501.234 334.61 499.678 332.807C498.928 331.935 497.994 331.241 496.943 330.775C495.892 330.31 494.75 330.084 493.601 330.114C492.464 330.087 491.335 330.314 490.298 330.78C489.26 331.246 488.34 331.939 487.606 332.807C486.041 334.604 485.217 336.929 485.299 339.31C485.213 341.683 486.038 343.999 487.606 345.783C488.344 346.654 489.269 347.349 490.312 347.815C491.355 348.281 492.49 348.507 493.631 348.476ZM408.966 356.219C408.717 356.267 408.462 356.267 408.214 356.219C408.214 356.219 408.051 355.894 408.051 355.498V352.906C407.089 354.107 405.827 355.032 404.393 355.589C402.817 356.31 401.106 356.687 399.373 356.697C397.61 356.708 395.853 356.483 394.15 356.026C392.633 355.646 391.227 354.915 390.045 353.892C388.963 352.933 388.097 351.756 387.504 350.437C386.868 348.977 386.555 347.396 386.59 345.804C386.564 343.833 387.138 341.902 388.236 340.266C389.336 338.621 390.85 337.296 392.626 336.424C394.662 335.41 396.847 334.727 399.099 334.402C401.848 333.982 404.635 333.856 407.411 334.026C407.48 332.759 407.056 331.515 406.228 330.553C405.401 329.591 404.233 328.986 402.97 328.864C402.079 328.769 401.179 328.769 400.288 328.864C399.378 328.994 398.479 329.184 397.595 329.433C396.759 329.692 395.935 329.987 395.126 330.317C394.404 330.623 393.701 330.972 393.022 331.364C392.426 331.778 391.746 332.055 391.03 332.177C390.655 332.177 390.441 331.801 390.441 330.988V326.182C390.417 325.805 390.473 325.428 390.604 325.074C390.852 324.759 391.188 324.526 391.569 324.403C393.078 323.735 394.633 323.178 396.223 322.737C398.27 322.209 400.379 321.956 402.493 321.985C406.113 321.704 409.706 322.8 412.553 325.054C413.742 326.314 414.652 327.81 415.225 329.445C415.797 331.08 416.019 332.818 415.875 334.545V356.107C415.572 356.149 415.264 356.149 414.961 356.107L408.966 356.219ZM408.051 340.093C405.982 340.103 403.916 340.273 401.873 340.601C400.51 340.81 399.185 341.217 397.94 341.81C397.087 342.183 396.38 342.825 395.928 343.639C395.578 344.368 395.404 345.168 395.42 345.976C395.388 346.526 395.483 347.075 395.696 347.582C395.909 348.089 396.235 348.541 396.65 348.903C397.662 349.637 398.898 349.996 400.145 349.919C401.208 349.964 402.268 349.778 403.252 349.375C404.236 348.971 405.121 348.36 405.846 347.582C407.477 345.441 408.262 342.775 408.051 340.093ZM444.775 353.069C444.335 353.584 443.83 354.038 443.271 354.421C442.638 354.879 441.956 355.268 441.239 355.579C440.477 355.903 439.692 356.171 438.891 356.382C438.094 356.583 437.275 356.682 436.453 356.676C434.293 356.805 432.133 356.433 430.141 355.588C428.149 354.744 426.379 353.451 424.97 351.809C422.074 347.948 420.644 343.183 420.936 338.365C420.896 335.818 421.256 333.281 422.003 330.846C422.642 328.762 423.696 326.83 425.102 325.165C426.398 323.626 428.023 322.396 429.858 321.568C431.926 320.702 434.15 320.27 436.392 320.298C437.94 320.327 439.467 320.666 440.883 321.294C442.263 321.846 443.522 322.66 444.592 323.692V306.56C444.55 306.181 444.624 305.798 444.805 305.462C445.115 305.292 445.471 305.224 445.821 305.269H452.254C452.604 305.234 452.957 305.302 453.27 305.462C453.463 305.625 453.544 305.97 453.544 306.56V354.959C453.544 355.518 453.544 355.894 453.239 356.036C452.89 356.199 452.505 356.269 452.122 356.239H445.994C445.675 356.275 445.354 356.203 445.08 356.036C444.98 355.912 444.906 355.768 444.864 355.615C444.822 355.461 444.813 355.3 444.836 355.142L444.775 353.069ZM437.458 327.696C436.415 327.684 435.385 327.922 434.451 328.388C433.518 328.855 432.71 329.537 432.093 330.378C430.542 332.769 429.824 335.606 430.051 338.447C429.778 341.395 430.528 344.348 432.174 346.81C432.811 347.622 433.628 348.274 434.562 348.713C435.495 349.153 436.519 349.367 437.55 349.34C438.482 349.327 439.398 349.105 440.233 348.689C441.152 348.224 441.951 347.553 442.57 346.728C443.318 345.705 443.885 344.56 444.246 343.344C444.695 341.752 444.901 340.101 444.856 338.447C444.893 336.769 444.705 335.095 444.297 333.467C443.994 332.281 443.455 331.169 442.712 330.195C442.08 329.398 441.269 328.761 440.344 328.336C439.442 327.964 438.475 327.774 437.499 327.777M466.886 318.337C465.55 318.375 464.252 317.882 463.279 316.965C462.822 316.54 462.46 316.023 462.215 315.449C461.97 314.875 461.848 314.256 461.856 313.632C461.848 313.008 461.968 312.389 462.207 311.812C462.446 311.236 462.801 310.714 463.248 310.279C463.73 309.818 464.3 309.459 464.923 309.221C465.546 308.984 466.21 308.874 466.876 308.897C468.239 308.849 469.565 309.342 470.565 310.269C471.018 310.703 471.378 311.226 471.622 311.804C471.867 312.382 471.991 313.004 471.987 313.632C471.996 314.256 471.874 314.875 471.629 315.449C471.384 316.023 471.021 316.54 470.565 316.965C469.565 317.892 468.249 318.385 466.886 318.337ZM463.543 356.676C463.398 356.697 463.25 356.685 463.11 356.643C462.97 356.601 462.84 356.529 462.73 356.432C462.531 356.164 462.447 355.828 462.496 355.498V324.576C462.46 324.242 462.528 323.905 462.69 323.611C462.808 323.514 462.945 323.443 463.091 323.401C463.238 323.359 463.392 323.348 463.543 323.367H470.026C470.341 323.334 470.657 323.421 470.91 323.611C471.107 323.892 471.194 324.235 471.154 324.576V355.599C471.178 355.765 471.169 355.934 471.127 356.096C471.085 356.259 471.012 356.411 470.91 356.544C470.657 356.734 470.341 356.821 470.026 356.788L463.543 356.676ZM548.158 297.343C546.202 296.314 544.035 295.749 541.825 295.693C539.615 295.636 537.422 296.09 535.416 297.018L535.04 297.181C534.786 295.155 534.111 293.205 533.06 291.455C532.008 289.705 530.602 288.194 528.933 287.019C528.54 286.747 528.133 286.496 527.713 286.267L526.727 285.861L525.244 285.403C524.742 285.27 524.233 285.161 523.72 285.078C521.779 284.721 519.787 284.763 517.863 285.202C515.94 285.64 514.126 286.466 512.532 287.629L511.516 288.462C509.551 290.174 507.971 292.283 506.882 294.65C506.686 295.118 506.507 295.593 506.343 296.073C505.997 297.146 505.729 298.243 505.541 299.355C505.541 299.731 505.541 300.107 505.409 300.483C505.276 300.859 505.409 301.316 505.409 301.743C505.126 306.043 506.127 310.329 508.284 314.059L508.894 315.187L509.524 316.345C509.951 317.128 510.408 317.87 510.896 318.632C511.373 319.384 511.424 319.445 511.668 319.851C512.481 321.02 513.253 322.239 513.954 323.499L514.442 324.515C514.749 325.24 515 325.988 515.194 326.751C515.194 327.127 515.357 327.533 515.408 327.929C515.562 328.806 515.53 329.706 515.313 330.569C515.096 331.432 514.698 332.24 514.148 332.939L519.523 331.801L520.864 331.567C524.868 330.917 528.77 330.053 532.804 329.149L534.125 328.844L536.808 328.255L538.129 327.909L539.389 327.533L540.872 326.964L542.325 326.354C542.803 326.151 543.26 325.917 543.748 325.704C548.07 323.948 551.741 320.894 554.255 316.965C556.083 313.588 556.495 309.623 555.401 305.942C554.308 302.261 551.797 299.165 548.422 297.333M327.318 330.866C327.877 331.079 328.395 331.323 328.872 331.537C332.155 333.122 333.791 336.516 333.791 341.678C333.764 343.721 333.265 345.73 332.333 347.547C331.4 349.365 330.059 350.942 328.415 352.154C325.005 355.057 320.658 356.624 316.181 356.565C312.386 356.69 308.608 355.997 305.105 354.532C302.242 353.253 299.659 351.423 297.504 349.147L303.845 342.399C305.218 343.881 306.88 345.066 308.73 345.881C310.579 346.695 312.575 347.122 314.595 347.135C318.823 347.135 321.455 346.159 322.501 344.259C323.018 343.387 323.291 342.392 323.291 341.378C323.291 340.364 323.018 339.369 322.501 338.497C321.444 336.58 317.762 335.507 311.456 335.276V326.029C317.776 326.486 321.455 325.724 322.501 323.824C323.016 322.953 323.288 321.96 323.288 320.948C323.288 319.937 323.016 318.944 322.501 318.073C321.455 316.162 318.823 315.187 314.595 315.187C312.847 315.085 311.099 315.401 309.497 316.107C307.894 316.814 306.483 317.892 305.379 319.251L299.191 312.586C301.122 310.472 303.44 308.748 306.019 307.505C309.286 306.224 312.787 305.645 316.292 305.808C318.424 305.738 320.548 306.092 322.542 306.849C324.535 307.606 326.359 308.751 327.907 310.218C329.362 311.538 330.523 313.149 331.314 314.947C332.105 316.745 332.509 318.689 332.5 320.654C332.5 325.379 331.077 328.58 328.232 330.277L327.318 330.785" fill="white"/>
</g>
<defs>
<clipPath id="clip0_2_222">
<rect width="472" height="72.5914" fill="white" transform="translate(84 283.704)"/>
</clipPath>
</defs>
</svg>
