<svg width="640" height="640" viewBox="0 0 640 640" fill="none" xmlns="http://www.w3.org/2000/svg">
<rect width="640" height="640" fill="#588835"/>
<path d="M123.402 360.014L98.8551 326.31V360.014H84V292.137H98.8457V323.653L123.102 292.137H142.373L115.796 325.402L143.027 360.061L123.402 360.014ZM203.046 354.392C201.361 356.217 199.307 357.661 197.019 358.629C194.732 359.597 192.265 360.066 189.782 360.005H148.715V292.137H187.312C189.719 292.082 192.111 292.534 194.332 293.464C196.553 294.394 198.553 295.781 200.203 297.535C201.771 299.011 203.03 300.784 203.905 302.752C204.78 304.719 205.255 306.841 205.301 308.994C205.301 309.275 205.03 311.174 204.487 314.766C203.825 318.574 201.704 321.974 198.575 324.242C201.598 325.833 204.122 328.228 205.869 331.163C207.615 334.098 208.516 337.459 208.472 340.875C208.517 343.372 208.068 345.854 207.149 348.178C206.231 350.501 204.862 352.619 203.121 354.411M162.017 318.901H181.812C182.832 318.906 183.843 318.709 184.787 318.322C185.731 317.935 186.589 317.366 187.312 316.646C188.071 316.012 188.685 315.222 189.111 314.329C189.537 313.436 189.766 312.462 189.782 311.473C189.779 310.478 189.556 309.496 189.129 308.596C188.702 307.697 188.082 306.904 187.312 306.272C185.876 304.865 183.953 304.068 181.943 304.046H162.139L162.017 318.901ZM189.782 345.655C191.493 343.894 192.475 341.552 192.532 339.097C192.438 336.745 191.466 334.514 189.806 332.844C188.147 331.174 185.922 330.188 183.57 330.08H162.017V348.602H183.57C184.756 348.582 185.923 348.308 186.995 347.8C188.066 347.292 189.016 346.561 189.782 345.655ZM268.173 324.607C271.938 328.542 274.04 333.778 274.04 339.224C274.04 344.67 271.938 349.906 268.173 353.84C266.369 355.819 264.165 357.393 261.707 358.457C259.25 359.521 256.595 360.052 253.917 360.014H215.525V348.602H249.408C251.64 348.212 253.674 347.078 255.18 345.384C256.762 343.759 257.648 341.581 257.649 339.313C257.624 336.994 256.744 334.766 255.18 333.054C254.492 332.178 253.617 331.467 252.618 330.975C251.619 330.483 250.522 330.221 249.408 330.211H231.494C229.001 330.256 226.523 329.808 224.203 328.893C221.883 327.978 219.767 326.614 217.976 324.878C216.133 323.177 214.675 321.1 213.702 318.788C212.729 316.475 212.263 313.981 212.336 311.473C212.318 308.942 212.8 306.432 213.754 304.087C214.708 301.743 216.115 299.609 217.895 297.809C219.674 296.008 221.791 294.576 224.125 293.595C226.458 292.614 228.962 292.103 231.494 292.091H269.137V303.803H235.741C233.795 304.035 231.98 304.903 230.577 306.272C229.879 306.944 229.328 307.753 228.958 308.648C228.587 309.543 228.406 310.505 228.425 311.473C228.401 312.405 228.582 313.331 228.953 314.186C229.325 315.041 229.879 315.804 230.577 316.422C231.985 317.715 233.838 318.415 235.75 318.377H253.917C256.594 318.338 259.249 318.867 261.706 319.93C264.164 320.993 266.368 322.565 268.173 324.542M333.936 333.747C334.027 333.652 334.096 333.538 334.138 333.414C334.18 333.289 334.194 333.157 334.179 333.026V329.116C334.179 328.676 334.179 328.368 333.88 328.33C333.643 328.305 333.405 328.305 333.169 328.33H326.948V312.661C326.948 311.988 326.63 311.698 326.013 311.698H320.961C320.297 311.698 319.932 311.988 319.932 312.661V347.311C319.92 347.445 319.936 347.581 319.978 347.71C320.02 347.838 320.087 347.957 320.175 348.059C320.406 348.214 320.685 348.28 320.961 348.246H325.919C326.186 348.282 326.457 348.215 326.677 348.059C326.819 347.837 326.882 347.573 326.854 347.311V333.924H333.066C333.337 333.94 333.606 333.868 333.833 333.718M310.521 317.086C310.686 316.901 310.788 316.669 310.811 316.422V313.204C310.811 312.456 310.437 312.119 309.679 312.119H296.34C296.092 312.109 295.846 312.157 295.619 312.259C295.339 312.409 295.245 312.708 295.245 313.157V316.422C295.245 316.871 295.245 317.17 295.619 317.264C295.831 317.407 296.085 317.476 296.34 317.46H309.679C309.848 317.48 310.018 317.463 310.18 317.412C310.341 317.36 310.489 317.275 310.615 317.161M317.397 323.597V320.379C317.397 319.687 317.023 319.35 316.265 319.35H289.38C288.613 319.35 288.267 319.687 288.267 320.379V323.475C288.267 324.224 288.613 324.598 289.333 324.598H316.265C317.032 324.598 317.397 324.224 317.397 323.522M307.5 342.755C308.783 342.341 309.994 341.732 311.092 340.95C312.096 340.213 312.937 339.277 313.562 338.199C314.133 337.125 314.432 335.927 314.432 334.71C314.479 333.518 314.221 332.333 313.683 331.268C313.064 330.189 312.222 329.254 311.214 328.527C310.122 327.732 308.909 327.119 307.621 326.712C306.199 326.267 304.715 326.046 303.225 326.057C301.734 326.042 300.25 326.263 298.828 326.712C297.53 327.117 296.305 327.727 295.199 328.517C294.17 329.225 293.321 330.164 292.72 331.258C292.102 332.299 291.785 333.491 291.803 334.701C291.789 335.925 292.106 337.13 292.72 338.19C293.327 339.283 294.174 340.223 295.199 340.94C296.296 341.722 297.508 342.331 298.791 342.746C300.207 343.19 301.684 343.408 303.169 343.391C304.677 343.409 306.18 343.192 307.621 342.746M328.632 358.807C328.838 358.807 328.959 358.461 328.959 357.994V354.214C328.968 354.073 328.944 353.931 328.887 353.8C328.83 353.67 328.742 353.555 328.632 353.466C328.387 353.372 328.127 353.324 327.865 353.326H304.235C303.711 353.326 303.468 353.073 303.468 352.577V346.843C303.468 346.188 303.122 345.851 302.373 345.851H297.425C297.289 345.832 297.151 345.843 297.021 345.886C296.89 345.928 296.772 346 296.674 346.096C296.576 346.192 296.502 346.31 296.457 346.439C296.412 346.569 296.397 346.707 296.415 346.843V355.328C296.401 355.908 296.448 356.488 296.555 357.058C296.636 357.479 296.833 357.868 297.126 358.181C297.423 358.458 297.793 358.645 298.192 358.723C298.766 358.873 299.358 358.937 299.951 358.91H327.865C328.12 358.934 328.377 358.934 328.632 358.91M306.705 332.156C307.096 332.467 307.413 332.863 307.63 333.313C307.847 333.763 307.96 334.257 307.96 334.757C307.96 335.257 307.847 335.75 307.63 336.201C307.413 336.651 307.096 337.046 306.705 337.357C305.711 338.096 304.505 338.495 303.267 338.495C302.028 338.495 300.823 338.096 299.829 337.357C299.426 337.044 299.1 336.643 298.876 336.184C298.652 335.725 298.537 335.221 298.538 334.71C298.554 334.228 298.679 333.756 298.902 333.328C299.126 332.901 299.443 332.529 299.829 332.24C300.796 331.458 302.021 331.067 303.262 331.146C304.52 331.069 305.762 331.459 306.751 332.24M376.574 345.449C376.691 345.221 376.743 344.966 376.724 344.71V312.661C376.724 311.988 376.406 311.698 375.788 311.698H370.456C369.801 311.698 369.474 311.988 369.474 312.661V344.579C369.454 344.713 369.464 344.849 369.502 344.978C369.541 345.108 369.608 345.227 369.698 345.328C369.804 345.417 369.926 345.485 370.057 345.526C370.189 345.568 370.328 345.583 370.466 345.571H375.639C375.919 345.604 376.201 345.534 376.434 345.374M360.765 337.704C361.164 337.659 361.537 337.481 361.822 337.198C362.105 336.911 362.289 336.541 362.346 336.141C362.459 335.569 362.509 334.985 362.495 334.401V318.199C362.509 317.594 362.459 316.989 362.346 316.394C362.261 316.015 362.066 315.67 361.784 315.402C361.484 315.125 361.098 314.96 360.69 314.934C360.114 314.902 359.536 314.902 358.959 314.934H342.813C341.866 314.845 340.916 315.062 340.101 315.552C339.53 315.954 339.277 316.843 339.277 318.302V334.514C339.264 335.094 339.315 335.674 339.427 336.244C339.505 336.647 339.7 337.018 339.988 337.311C340.319 337.607 340.742 337.782 341.186 337.806C341.815 337.92 342.454 337.97 343.094 337.956H358.959C359.565 337.966 360.169 337.916 360.765 337.806M377.884 358.667C378.09 358.667 378.183 358.321 378.183 357.853V353.924C378.198 353.786 378.18 353.645 378.13 353.515C378.079 353.385 377.998 353.268 377.893 353.176C377.666 353.076 377.421 353.025 377.173 353.026H354.16C353.581 353.026 353.337 352.783 353.337 352.278V344.046C353.337 343.354 352.963 342.998 352.252 342.998H347.294C347.154 342.983 347.012 343 346.879 343.047C346.745 343.095 346.625 343.172 346.526 343.273C346.427 343.374 346.352 343.496 346.307 343.629C346.262 343.763 346.247 343.906 346.265 344.046V355.084C346.252 355.665 346.299 356.245 346.406 356.815C346.504 357.235 346.699 357.626 346.976 357.956C347.303 358.277 347.735 358.47 348.192 358.499C348.771 358.656 349.371 358.722 349.97 358.695H377.191C377.431 358.721 377.672 358.721 377.912 358.695M355.61 331.268C355.653 331.531 355.653 331.799 355.61 332.063C355.61 332.212 355.236 332.259 354.843 332.259H347.425C346.957 332.259 346.705 332.259 346.602 332.11C346.441 331.859 346.363 331.565 346.377 331.268V321.492C346.377 321.024 346.377 320.725 346.602 320.631C346.858 320.509 347.142 320.457 347.425 320.482H354.843C355.108 320.449 355.377 320.502 355.61 320.631C355.656 320.917 355.656 321.207 355.61 321.492V331.268ZM419.83 319.097C420.718 318.24 421.255 317.083 421.336 315.851C421.312 315.441 421.186 315.044 420.971 314.695C420.755 314.345 420.456 314.055 420.101 313.849C418.964 313.185 417.655 312.872 416.34 312.951H392.047C391.773 312.933 391.499 312.984 391.251 313.101C391.095 313.317 391.028 313.585 391.064 313.849V317.535C391.033 317.805 391.1 318.077 391.251 318.302C391.484 318.462 391.766 318.532 392.047 318.499H408.885C409.296 318.499 409.493 318.499 409.493 318.751C409.493 318.994 409.343 319.097 408.978 319.247C406.149 320.731 403.201 321.979 400.166 322.979C396.231 324.347 392.213 325.463 388.136 326.319C387.369 326.469 387.145 326.964 387.416 327.732L388.585 330.978C388.754 331.324 388.96 331.567 389.147 331.614C389.487 331.722 389.853 331.722 390.194 331.614C393.228 331.098 396.227 330.398 399.175 329.518C402.04 328.673 404.852 327.655 407.594 326.469C410.391 327.432 413.263 328.274 416.181 328.948C419.1 329.612 421.775 330.285 424.245 330.753C424.546 330.83 424.861 330.83 425.162 330.753C425.454 330.545 425.658 330.234 425.732 329.883L426.874 326.89C427.023 326.441 427.061 326.095 426.874 325.898C426.612 325.69 426.291 325.569 425.957 325.552C425.115 325.402 424.245 325.253 423.338 325.009C422.412 324.766 421.467 324.616 420.513 324.364L417.566 323.597L414.797 322.848C415.012 322.755 415.219 322.642 415.414 322.512C415.597 322.413 415.769 322.297 415.929 322.166C417.336 321.324 418.612 320.281 419.717 319.069M429.942 339.023V335.458C429.96 335.312 429.942 335.163 429.89 335.024C429.838 334.886 429.753 334.762 429.643 334.663C429.415 334.517 429.146 334.448 428.876 334.467H410.438V330.351C410.463 330.092 410.401 329.831 410.26 329.612C409.992 329.484 409.695 329.432 409.399 329.462H404.441C403.974 329.462 403.73 329.462 403.628 329.612C403.537 329.712 403.47 329.832 403.432 329.961C403.393 330.09 403.383 330.227 403.403 330.36V334.467H384.872C384.583 334.42 384.288 334.487 384.048 334.654C383.88 334.886 383.803 335.173 383.833 335.458V339.041C383.813 339.323 383.872 339.604 384.002 339.855C384.002 340.005 384.395 340.108 384.872 340.108H428.95C429.096 340.13 429.244 340.118 429.383 340.072C429.523 340.026 429.65 339.948 429.754 339.844C429.857 339.741 429.935 339.614 429.981 339.474C430.027 339.335 430.039 339.186 430.017 339.041M422.982 358.845V347.086C422.99 346.481 422.94 345.876 422.833 345.281C422.753 344.865 422.577 344.474 422.318 344.139C422.023 343.823 421.643 343.599 421.224 343.494C420.622 343.385 420.011 343.338 419.399 343.354H391.008C390.769 343.326 390.527 343.326 390.288 343.354C390.091 343.354 389.989 343.747 389.989 344.196V348.078C389.972 348.213 389.991 348.351 390.044 348.477C390.096 348.603 390.18 348.714 390.288 348.798C390.514 348.9 390.76 348.952 391.008 348.948H415.143C415.243 348.936 415.344 348.946 415.44 348.979C415.535 349.012 415.621 349.066 415.692 349.138C415.764 349.209 415.818 349.295 415.85 349.39C415.883 349.485 415.894 349.587 415.882 349.687V358.667C415.882 359.322 416.228 359.659 416.995 359.659H421.953C422.085 359.673 422.219 359.657 422.344 359.611C422.469 359.566 422.581 359.493 422.674 359.397C422.766 359.301 422.835 359.186 422.875 359.059C422.916 358.933 422.927 358.799 422.907 358.667M479.128 328.031V324.214C479.128 323.775 479.128 323.522 478.848 323.428C478.593 323.396 478.335 323.396 478.081 323.428H471.72V312.661C471.739 312.397 471.687 312.132 471.57 311.894C471.338 311.734 471.055 311.664 470.775 311.698H465.602C465.331 311.66 465.057 311.727 464.835 311.885C464.736 311.987 464.661 312.11 464.615 312.244C464.568 312.378 464.55 312.52 464.563 312.661V338.05C464.563 338.704 464.938 338.985 465.602 338.985H470.775C471.402 338.985 471.72 338.704 471.72 338.106V329.022H478.081C478.217 329.041 478.357 329.029 478.488 328.987C478.619 328.944 478.739 328.873 478.839 328.777C478.939 328.682 479.016 328.565 479.065 328.436C479.113 328.307 479.141 328.168 479.128 328.031ZM458.408 335.608C458.704 335.237 458.924 334.812 459.056 334.356C459.188 333.9 459.228 333.423 459.175 332.951V314.149C459.195 314.016 459.184 313.88 459.142 313.751C459.101 313.623 459.03 313.507 458.936 313.41C458.841 313.314 458.726 313.241 458.599 313.197C458.471 313.154 458.336 313.14 458.202 313.157H453.057C452.922 313.138 452.785 313.149 452.655 313.191C452.526 313.233 452.408 313.304 452.31 313.399C452.212 313.494 452.138 313.61 452.092 313.739C452.047 313.867 452.031 314.004 452.047 314.139V319.64H442.879V314.195C442.879 313.55 442.543 313.26 441.869 313.26H436.668C436.051 313.26 435.761 313.55 435.761 314.195V332.811C435.744 333.416 435.791 334.021 435.901 334.617C435.989 335.02 436.21 335.382 436.528 335.646C436.875 335.949 437.305 336.141 437.762 336.197C438.424 336.308 439.094 336.358 439.764 336.347H455.293C456.387 336.476 457.492 336.211 458.408 335.599M462.515 359.219C464.26 358.769 465.928 358.06 467.463 357.114C468.813 356.332 469.985 355.277 470.906 354.018C471.748 352.882 472.198 351.503 472.187 350.089C472.225 348.667 471.791 347.272 470.953 346.123C470.004 344.892 468.837 343.845 467.51 343.036C465.968 342.116 464.301 341.423 462.561 340.978C460.59 340.512 458.572 340.277 456.546 340.276C454.468 340.263 452.397 340.514 450.382 341.024C448.638 341.458 446.97 342.152 445.433 343.082C444.164 343.907 443.079 344.983 442.243 346.244C441.487 347.381 441.08 348.714 441.074 350.08C441.071 351.476 441.477 352.842 442.243 354.009C443.086 355.284 444.213 356.347 445.536 357.114C447.066 358.069 448.736 358.779 450.485 359.219C452.5 359.726 454.571 359.975 456.649 359.958C458.678 359.967 460.7 359.716 462.664 359.21M452.14 330.061C452.14 330.529 451.897 330.772 451.373 330.772H443.777C443.254 330.772 442.982 330.529 442.982 330.061V325.103H452.15L452.14 330.061ZM459.886 346.151C460.815 346.367 461.713 346.697 462.561 347.133C463.241 347.507 463.851 347.994 464.367 348.574C464.737 349.049 464.953 349.627 464.984 350.229C464.962 350.819 464.745 351.385 464.367 351.838C463.88 352.402 463.281 352.858 462.608 353.176C461.761 353.595 460.866 353.909 459.942 354.111C458.844 354.362 457.72 354.481 456.593 354.467C454.496 354.558 452.41 354.114 450.531 353.176C449.044 352.334 448.333 351.371 448.333 350.229C448.365 349.636 448.559 349.064 448.894 348.574C449.333 347.983 449.89 347.493 450.531 347.133C451.36 346.697 452.24 346.367 453.151 346.151C454.279 345.889 455.435 345.763 456.593 345.777C457.702 345.769 458.807 345.894 459.886 346.151ZM510.607 359.116C512.415 358.738 514.151 358.075 515.752 357.152C517.025 356.463 518.126 355.494 518.97 354.317C519.72 353.31 520.121 352.084 520.111 350.828C520.111 349.556 519.712 348.316 518.97 347.283C518.118 346.111 517.02 345.14 515.752 344.439C514.133 343.567 512.402 342.925 510.607 342.531C508.309 342.05 505.966 341.818 503.619 341.838C501.293 341.815 498.972 342.048 496.696 342.531C494.878 342.908 493.126 343.551 491.495 344.439C490.199 345.11 489.085 346.086 488.249 347.283C487.511 348.317 487.115 349.557 487.117 350.828C487.104 352.083 487.502 353.309 488.249 354.317C489.078 355.52 490.194 356.498 491.495 357.161C493.108 358.098 494.866 358.759 496.696 359.116C498.972 359.599 501.293 359.831 503.619 359.808C505.966 359.828 508.309 359.596 510.607 359.116ZM526.743 338.255V334.663C526.758 334.514 526.736 334.364 526.679 334.225C526.621 334.086 526.531 333.964 526.416 333.868C526.188 333.722 525.919 333.653 525.649 333.672H507.014V328.471C507.033 328.338 507.023 328.204 506.984 328.076C506.945 327.949 506.879 327.831 506.79 327.732C506.554 327.564 506.263 327.493 505.976 327.535H501.018C500.732 327.493 500.44 327.564 500.204 327.732C500.116 327.833 500.051 327.952 500.013 328.082C499.976 328.211 499.968 328.347 499.989 328.48V333.747H481.645C481.506 333.7 481.357 333.693 481.214 333.726C481.072 333.759 480.941 333.831 480.836 333.933C480.732 334.036 480.658 334.165 480.622 334.307C480.587 334.449 480.591 334.598 480.635 334.738V338.321C480.607 338.594 480.656 338.869 480.775 339.116C480.894 339.216 481.033 339.291 481.183 339.334C481.333 339.378 481.49 339.389 481.645 339.369H525.724C526.444 339.369 526.818 339.023 526.818 338.321M497.361 326.993C499.924 325.63 502.15 323.708 503.871 321.37C504.871 322.516 505.99 323.551 507.211 324.457C508.499 325.387 509.856 326.216 511.271 326.936C512.633 327.679 514.057 328.302 515.527 328.798C516.838 329.303 518.199 329.666 519.587 329.883C519.893 329.969 520.217 329.969 520.522 329.883C520.672 329.883 520.775 329.64 520.925 329.387L522.58 326.048C522.718 325.733 522.803 325.398 522.833 325.056C522.833 324.813 522.534 324.663 522.066 324.56C520.502 324.175 518.97 323.671 517.482 323.054C515.948 322.487 514.475 321.766 513.086 320.903C511.72 320.102 510.441 319.161 509.269 318.096C508.183 317.164 507.276 316.042 506.593 314.785C506.695 314.179 506.745 313.566 506.743 312.951C506.785 312.818 506.794 312.677 506.768 312.54C506.741 312.402 506.682 312.274 506.593 312.166C506.444 311.988 506.098 311.941 505.63 311.885L501.14 311.698C500.844 311.606 500.528 311.606 500.232 311.698C500.083 311.698 500.036 312.109 499.989 312.558C499.843 314.051 499.387 315.496 498.649 316.801C497.911 318.106 496.908 319.242 495.705 320.136C492.474 322.456 488.829 324.136 484.966 325.084C484.62 325.084 484.367 325.327 484.311 325.533C484.251 325.647 484.22 325.774 484.22 325.903C484.22 326.031 484.251 326.158 484.311 326.272L485.854 329.509C485.952 329.827 486.149 330.106 486.416 330.304C486.575 330.482 486.921 330.482 487.445 330.304C490.831 329.654 494.099 328.493 497.136 326.862M510.204 348.171C511.841 348.938 512.683 349.78 512.683 350.828C512.654 351.341 512.434 351.825 512.066 352.184C511.527 352.671 510.906 353.057 510.232 353.326C509.284 353.714 508.296 353.996 507.286 354.168C506.039 354.418 504.769 354.534 503.497 354.514C502.219 354.533 500.943 354.417 499.69 354.168C498.701 354.007 497.737 353.725 496.818 353.326C496.126 353.075 495.493 352.687 494.956 352.184C494.76 352.015 494.6 351.807 494.486 351.574C494.372 351.341 494.306 351.087 494.292 350.828C494.292 349.78 495.106 348.938 496.771 348.171C498.91 347.397 501.178 347.048 503.45 347.142C505.74 347.055 508.026 347.404 510.186 348.171M555.181 313.578C555.009 313.376 554.782 313.229 554.526 313.157C552.849 312.674 551.124 312.373 549.381 312.259C548.221 312.259 545.546 312.044 547.651 310.762C549.491 309.634 551.161 308.248 552.609 306.646C555.892 303.232 556.266 298.358 555.873 293.896C555.493 288.858 553.718 284.025 550.747 279.939C550.206 283.427 549.32 286.852 548.1 290.164C547.108 293.491 544.86 296.303 541.832 298.003C540.962 298.58 539.954 298.915 538.911 298.973C537.869 299.03 536.83 298.808 535.901 298.33C535.349 297.703 534.672 297.198 533.913 296.849C533.154 296.499 532.331 296.312 531.495 296.3C531.093 296.289 530.692 296.358 530.317 296.503C529.941 296.647 529.598 296.865 529.308 297.144C529.017 297.422 528.784 297.756 528.624 298.125C528.463 298.494 528.377 298.891 528.371 299.294C527.604 299.294 526.247 300.884 526.247 300.884C530.036 300.107 530.897 300.884 531.711 301.277C532.242 301.567 532.698 301.977 533.042 302.476C533.386 302.974 533.608 303.546 533.69 304.146C533.772 304.746 533.711 305.357 533.514 305.929C533.316 306.502 532.987 307.02 532.552 307.441C528.942 312.119 524.414 313.428 518.549 312.961C522.176 315.095 526.187 316.496 530.354 317.086C533.929 317.632 537.584 317.189 540.925 315.804C541.888 315.477 542.16 316.225 542.113 317.039C542.064 318.386 541.914 319.728 541.664 321.052C541.29 322.951 540.972 324.841 543.647 324.635C547.02 324.245 550.144 322.667 552.459 320.182C553.844 318.826 557.043 315.655 555.256 313.578" fill="white"/>
</svg>
