<svg width="640" height="640" viewBox="0 0 640 640" fill="none" xmlns="http://www.w3.org/2000/svg">
<rect width="640" height="640" fill="#0074BE"/>
<g clip-path="url(#clip0_2_242)">
<path d="M84.8652 293.395H214.61V346.744H84.8652V293.395Z" fill="#0074BE"/>
<path d="M84 292.323V347.678H416.807V292.323H84ZM85.9725 294.415H213.416V345.671H85.9725V294.415Z" fill="white"/>
<path d="M262.732 303.065C262.732 303.065 257.8 320.866 256.97 323.91C256.105 320.866 251.156 303.152 251.156 303.152H244.234C244.234 303.152 239.25 320.813 238.368 323.824L232.744 303.065H225.304L234.908 336.867H242.002C242.002 336.867 246.882 319.222 247.712 316.108L253.423 336.867H260.569L270.104 303.065H262.732ZM298.812 307.269C291.792 300.835 281.017 300.835 273.998 307.269C270.842 310.759 269.194 315.353 269.412 320.053C269.191 324.793 270.838 329.432 273.998 332.974C280.997 339.458 291.811 339.458 298.812 332.974C302.003 329.448 303.67 324.803 303.449 320.053C303.556 317.721 303.202 315.392 302.406 313.198C301.61 311.004 300.389 308.989 298.812 307.269ZM293.222 328.373C289.85 332.151 284.053 332.482 280.273 329.111C280.013 328.879 279.766 328.633 279.535 328.373C277.781 325.963 276.902 323.028 277.043 320.052C276.914 317.147 277.794 314.286 279.535 311.956C282.907 308.177 288.704 307.847 292.483 311.218C292.743 311.449 292.99 311.696 293.222 311.956C294.969 314.283 295.85 317.146 295.713 320.052C295.863 323.029 294.983 325.967 293.222 328.373ZM327.951 322.958C329.893 322.217 331.635 321.033 333.038 319.499C334.528 317.839 335.326 315.673 335.27 313.444C335.307 311.964 334.985 310.497 334.331 309.168C333.677 307.84 332.711 306.689 331.516 305.816C328.858 303.881 325.63 302.888 322.345 302.996H307.169V336.901H314.506V323.996H319.697L329.422 336.953H338.42L327.951 322.958ZM326.03 316.472C324.909 317.134 323.631 317.486 322.328 317.492H314.506V309.569H322.725C323.978 309.551 325.21 309.893 326.273 310.556C326.734 310.906 327.104 311.363 327.353 311.886C327.602 312.409 327.722 312.984 327.704 313.563C327.685 314.142 327.528 314.708 327.246 315.214C326.964 315.72 326.565 316.151 326.083 316.472H326.03V316.472ZM341.293 303.065V336.884H366.66V330.518H348.542V303.065H341.293ZM394.104 307.873C392.76 306.263 391.06 304.989 389.137 304.151C387.215 303.313 385.123 302.935 383.029 303.047H370.241V336.97H383.029C385.123 337.082 387.215 336.704 389.137 335.867C391.06 335.029 392.76 333.754 394.104 332.144C397.16 328.865 398.802 324.515 398.672 320.035C398.747 317.807 398.382 315.586 397.598 313.5C396.814 311.413 395.627 309.501 394.104 307.873ZM389.795 327.473C388.843 328.543 387.654 329.375 386.323 329.904C384.992 330.432 383.556 330.642 382.13 330.517H377.492V309.552H382.13C383.554 309.429 384.988 309.638 386.319 310.163C387.649 310.689 388.839 311.516 389.795 312.579C391.442 314.683 392.304 317.295 392.235 319.965C392.303 322.678 391.429 325.331 389.761 327.473H389.795Z" fill="#0074BE"/>
<path d="M136.12 337.869L121.411 319.36L135.601 302.234H125.599L112.102 319.187V302.234H104.488V337.869H112.102V319.55L125.34 337.869H136.12ZM190.074 316.177C192.271 316.177 201.667 317.596 201.667 326.92C201.667 336.798 192.185 337.87 192.185 337.87H170.036V332.092H187.859C190.528 332.283 192.847 330.276 193.039 327.608C193.049 327.46 193.053 327.311 193.05 327.162C193.05 321.748 186.941 321.973 186.941 321.973H180.055C176.922 321.973 168.842 320.848 168.842 312.493C168.842 302.46 178.843 302.217 178.843 302.217H199.14V307.926H182.477C177.095 307.926 177.181 312.113 177.181 312.113C177.204 312.695 177.347 313.267 177.6 313.792C177.853 314.318 178.211 314.786 178.652 315.167C179.094 315.548 179.609 315.834 180.165 316.008C180.722 316.182 181.309 316.24 181.889 316.178L190.074 316.177ZM158.251 337.869C163.745 338.022 168.322 333.694 168.474 328.203C168.477 328.104 168.478 328.005 168.478 327.906C168.593 326.072 168.173 324.245 167.27 322.646C166.367 321.046 165.02 319.742 163.391 318.893C163.391 318.893 167.44 317.509 167.042 311.333C166.506 302.373 156.4 302.234 156.4 302.234H136.795V337.852H158.251M143.993 308.03H153.805C153.805 308.03 159.152 307.77 159.152 312.216C159.161 312.788 159.05 313.356 158.826 313.883C158.601 314.41 158.269 314.884 157.849 315.274C157.43 315.663 156.933 315.961 156.391 316.146C155.85 316.332 155.275 316.401 154.704 316.35H143.993V308.03ZM152.94 332.074H143.993V322.093H155.033C155.033 322.093 160.605 322.301 160.605 327.024C160.605 331.746 156.418 332.109 152.94 332.109M519.091 334.998C514.145 334.988 510.137 330.982 510.127 326.037V313.928C510.127 308.979 514.141 304.968 519.091 304.968C524.042 304.968 528.055 308.979 528.055 313.928V326.037C528.055 330.986 524.042 334.998 519.091 334.998ZM519.091 310.78C518.266 310.784 517.477 311.114 516.894 311.697C516.31 312.28 515.981 313.069 515.976 313.894V326.003C515.971 326.415 516.048 326.824 516.202 327.207C516.356 327.589 516.585 327.937 516.875 328.23C517.164 328.523 517.51 328.756 517.89 328.915C518.27 329.074 518.679 329.156 519.091 329.156C519.503 329.156 519.912 329.074 520.292 328.915C520.672 328.756 521.017 328.523 521.307 328.23C521.597 327.937 521.826 327.589 521.98 327.207C522.134 326.824 522.211 326.415 522.206 326.003V313.893C522.188 313.08 521.852 312.305 521.269 311.736C520.687 311.167 519.905 310.849 519.091 310.849V310.78ZM503.362 334.998C502.978 334.998 502.598 334.922 502.243 334.775C501.888 334.628 501.566 334.413 501.294 334.141C501.022 333.87 500.807 333.548 500.66 333.193C500.513 332.838 500.438 332.458 500.438 332.074V307.856C500.438 307.081 500.746 306.338 501.294 305.789C501.843 305.241 502.586 304.933 503.362 304.933C504.137 304.933 504.881 305.241 505.429 305.789C505.978 306.338 506.286 307.081 506.286 307.856V332.074C506.286 332.458 506.21 332.838 506.063 333.193C505.917 333.548 505.701 333.87 505.43 334.141C505.158 334.413 504.836 334.628 504.481 334.775C504.126 334.922 503.746 334.998 503.362 334.998ZM487.684 334.998H481.645C481.261 334.998 480.881 334.922 480.526 334.775C480.171 334.628 479.849 334.413 479.577 334.142C479.306 333.87 479.09 333.548 478.943 333.193C478.796 332.838 478.721 332.458 478.721 332.074V307.856C478.725 307.084 479.036 306.345 479.583 305.801C480.131 305.256 480.872 304.95 481.645 304.95H487.684C492.628 304.95 496.638 308.952 496.648 313.894V326.003C496.667 330.952 492.669 334.979 487.719 334.998L487.684 334.998ZM484.57 329.151H487.684C488.509 329.147 489.298 328.817 489.882 328.234C490.465 327.651 490.794 326.862 490.799 326.037V313.928C490.794 313.104 490.465 312.314 489.882 311.731C489.298 311.148 488.509 310.819 487.684 310.814H484.57V329.151ZM439.199 334.998C438.815 334.998 438.434 334.922 438.079 334.775C437.725 334.628 437.402 334.413 437.131 334.142C436.859 333.87 436.644 333.548 436.497 333.193C436.35 332.838 436.274 332.458 436.274 332.074V319.965C436.274 319.581 436.35 319.201 436.497 318.846C436.644 318.492 436.859 318.169 437.131 317.898C437.402 317.627 437.725 317.411 438.079 317.264C438.434 317.118 438.815 317.042 439.199 317.042H445.237C445.651 317.049 446.062 316.974 446.446 316.821C446.83 316.667 447.18 316.439 447.475 316.149C447.77 315.86 448.004 315.514 448.164 315.133C448.324 314.751 448.407 314.342 448.407 313.928C448.407 313.515 448.324 313.105 448.164 312.724C448.004 312.343 447.77 311.997 447.475 311.707C447.18 311.417 446.83 311.189 446.446 311.036C446.062 310.883 445.651 310.807 445.237 310.814H439.199C438.796 310.846 438.392 310.794 438.011 310.662C437.63 310.53 437.28 310.32 436.984 310.046C436.688 309.773 436.451 309.441 436.29 309.071C436.128 308.702 436.045 308.303 436.045 307.899C436.045 307.496 436.128 307.097 436.29 306.728C436.451 306.358 436.688 306.026 436.984 305.752C437.28 305.479 437.63 305.269 438.011 305.137C438.392 305.005 438.796 304.953 439.199 304.984H445.237C450.183 304.767 454.369 308.599 454.586 313.543C454.804 318.487 450.971 322.671 446.025 322.889C445.763 322.9 445.5 322.9 445.237 322.889H442.123V332.04C442.132 332.815 441.833 333.562 441.291 334.117C440.749 334.672 440.009 334.989 439.233 334.998L439.199 334.998Z" fill="white"/>
<path d="M451.207 334.998C450.823 334.998 450.443 334.922 450.088 334.775C449.733 334.628 449.411 334.413 449.14 334.141C448.868 333.87 448.653 333.548 448.506 333.193C448.359 332.838 448.283 332.458 448.283 332.074V326.037C448.278 325.213 447.949 324.423 447.366 323.84C446.782 323.257 445.993 322.928 445.168 322.923C443.553 322.923 442.244 321.615 442.244 320C442.244 318.385 443.553 317.076 445.168 317.076C450.114 317.086 454.122 321.092 454.131 326.037V332.074C454.132 332.458 454.056 332.838 453.909 333.193C453.762 333.548 453.547 333.87 453.275 334.141C453.004 334.413 452.681 334.628 452.326 334.775C451.972 334.922 451.591 334.998 451.207 334.998ZM475.017 313.945V332.074C475.049 332.477 474.998 332.881 474.866 333.262C474.734 333.644 474.524 333.994 474.25 334.29C473.976 334.587 473.644 334.823 473.274 334.985C472.905 335.147 472.505 335.23 472.102 335.23C471.698 335.23 471.299 335.147 470.929 334.985C470.559 334.823 470.227 334.587 469.953 334.29C469.679 333.994 469.47 333.644 469.338 333.262C469.206 332.881 469.154 332.477 469.186 332.074V326.054C469.186 324.335 467.792 322.941 466.071 322.941C464.351 322.941 462.956 324.335 462.956 326.054V332.074C462.956 332.85 462.648 333.593 462.1 334.141C461.552 334.69 460.808 334.998 460.032 334.998C459.257 334.998 458.513 334.69 457.964 334.141C457.416 333.593 457.108 332.85 457.108 332.074V313.945C456.891 309.002 460.724 304.817 465.669 304.6C470.615 304.383 474.801 308.215 475.018 313.159C475.029 313.421 475.029 313.683 475.017 313.945ZM469.186 317.63V313.945C469.186 312.226 467.792 310.832 466.071 310.832C464.351 310.832 462.956 312.226 462.956 313.945V317.63C464.963 316.868 467.179 316.868 469.186 317.63Z" fill="white"/>
</g>
<defs>
<clipPath id="clip0_2_242">
<rect width="472" height="55.358" fill="white" transform="translate(84 292.321)"/>
</clipPath>
</defs>
</svg>
