<svg width="640" height="640" viewBox="0 0 640 640" fill="none" xmlns="http://www.w3.org/2000/svg">
<rect width="640" height="640" fill="#666A6F"/>
<g clip-path="url(#clip0_2_678)">
<path d="M482.888 303.863H460.902C455.255 303.863 453.208 305.788 453.208 312.146V320.453H478.204C478.718 320.451 479.211 320.653 479.576 321.015C479.941 321.376 480.148 321.867 480.152 322.381V329.317C480.148 329.831 479.941 330.322 479.576 330.684C479.211 331.046 478.718 331.25 478.204 331.25H453.208V362.842C453.204 363.356 452.997 363.847 452.632 364.209C452.267 364.57 451.774 364.773 451.26 364.771H441.711C441.197 364.773 440.704 364.57 440.339 364.209C439.974 363.847 439.766 363.356 439.763 362.842V312.146C439.763 295.769 449.601 292.388 462.273 292.388C473.865 292.388 479.766 293.258 482.888 293.739C484.35 293.936 484.837 294.416 484.837 295.769V301.931C484.832 302.445 484.625 302.936 484.26 303.298C483.895 303.66 483.402 303.863 482.888 303.863Z" fill="white"/>
<path d="M554.339 364.771H544.498C543.621 364.771 542.936 363.808 542.936 362.843V318.028C542.936 317.348 542.839 317.065 542.648 317.065C542.552 317.065 542.353 317.348 542.16 317.646L532.808 336.053C532.221 337.108 530.95 337.689 529.688 337.689H519.845C518.58 337.689 517.312 337.108 516.729 336.053L507.276 317.646C507.083 317.348 506.89 317.065 506.793 317.065C506.594 317.065 506.498 317.348 506.498 318.028V362.843C506.498 363.808 505.812 364.771 504.942 364.771H495.097C494.218 364.771 493.44 364.292 493.44 363.327V297.018C493.44 294.894 495.196 293.161 497.337 293.161H505.328C506.89 293.161 508.249 294.124 508.934 295.47L523.644 324.97C524.131 325.832 524.33 326.319 524.714 326.319C525.112 326.319 525.301 325.832 525.791 324.97L540.501 295.47C541.187 294.124 542.552 293.161 544.11 293.161H552.095C554.242 293.161 555.999 294.894 555.999 297.018V363.327C555.999 364.292 555.217 364.771 554.339 364.771Z" fill="white"/>
<path d="M343.415 329.136V321.666H330.647C331.562 320.488 332.332 318.591 332.956 315.966C333.576 313.353 333.884 310.927 333.884 308.701V296.923C333.884 296.923 333.884 289.66 323.335 289.66H277.292V293.928C277.292 297.126 281.942 297.126 281.942 297.126H317.29C320.621 297.126 320.621 300.033 320.621 300.033V308.993C320.621 311.288 320.523 313.548 320.328 315.771C320.133 317.998 319.841 319.969 317.7 321.666H268.248V325.936C268.248 329.136 272.902 329.136 272.902 329.136H298.906V341.044H276.999V345.314C276.999 348.512 281.648 348.512 281.648 348.512H317.099C320.424 348.512 320.424 351.419 320.424 351.419V367.325C320.424 370.523 325.078 370.523 325.078 370.523H333.691V348.317C333.691 348.317 333.691 341.044 323.14 341.044H312.172V329.136H343.415Z" fill="white"/>
<path d="M398.833 362.662C397.066 364.953 395.033 366.107 392.741 366.107C390.388 366.107 388.321 364.953 386.554 362.662C384.813 360.452 383.879 357.714 383.906 354.901C383.906 351.953 384.784 349.315 386.554 346.99C388.321 344.668 390.388 343.502 392.741 343.502C395.033 343.502 397.066 344.668 398.833 346.99C400.582 349.254 401.518 352.04 401.491 354.901C401.513 357.715 400.576 360.453 398.833 362.662ZM408.169 341.49C403.909 337.789 398.774 335.934 392.741 335.934C386.65 335.934 381.477 337.789 377.22 341.49C372.96 345.189 370.832 349.664 370.832 354.901C370.832 360.144 372.96 364.594 377.22 368.266C381.477 371.932 386.65 373.768 392.741 373.768C398.774 373.768 403.909 371.932 408.169 368.266C412.424 364.594 414.559 360.144 414.559 354.901C414.559 349.664 412.424 345.189 408.169 341.49ZM416.62 304.593V292.633C416.62 292.633 416.62 289.366 413.056 289.366H403.355V332.148C403.355 335.347 408.009 335.347 408.009 335.347H416.62V312.161H429.883V304.593H416.62ZM380.365 323.954H367.627C368.258 323.954 365.427 323.954 365.427 321.267V310.979H380.365V323.954ZM393.625 294.894C393.625 294.894 393.625 291.624 390.066 291.624H380.365V303.517H365.427V294.894C365.427 294.894 365.427 291.624 361.861 291.624H352.16V322.675C352.16 325.296 353.002 327.405 354.664 329.012C356.34 330.617 358.583 331.414 361.397 331.414H393.625V294.894Z" fill="white"/>
<path d="M226.562 357.185C202.669 388.787 156.825 402.302 127.574 388.261C96.0232 372.205 83.5077 342.27 84.0148 316.034C84.6593 282.168 110.994 267.079 152.539 269.09C209.841 271.857 262.307 309.964 226.562 357.185Z" fill="white"/>
<path d="M230.893 265.037L207.444 281.278L224.552 261.478L214.192 257.461L227.294 256.091L225.849 246.205L233.627 253.31L243.306 246.899L239.582 256.028L252.697 259.735L238.636 263.329L239.621 274.515L230.893 265.037Z" fill="#EDAC09"/>
<path d="M173.78 358.011H172.48L171.983 361.548H173.609C174.882 361.548 175.742 360.934 175.927 359.637C176.109 358.338 175.325 358.011 173.78 358.011ZM158.955 357.935C156.703 357.935 155.584 360.226 155.256 362.558C154.946 364.748 155.065 367.462 157.713 367.462C160.014 367.462 161.005 365.179 161.338 362.79C161.619 360.813 161.475 357.935 158.955 357.935ZM209.164 358.387H202.592L202.255 360.77H207.902L207.407 364.301H201.764L201.387 366.988H208.13L207.633 370.525H196.589L198.256 358.676C198.786 354.92 197.694 354.852 197.694 354.852H209.659L209.164 358.387ZM188.978 367.481C190.251 367.481 191.484 366.867 192.687 365.925L194.492 368.569C192.474 370.122 190.583 370.808 188.284 370.808C183.608 370.808 180.976 368.07 181.717 362.823C182.59 356.62 186.97 354.571 190.69 354.571C192.915 354.571 194.984 355.493 196.253 357.823L192.917 359.89C192.121 358.625 191.22 357.935 190.017 357.935C188.145 357.935 186.601 359.495 186.166 362.583C185.749 365.549 186.55 367.481 188.978 367.481ZM180.371 359.303C180.09 361.283 178.616 362.677 177.232 363.291C177.659 363.496 177.99 363.946 178.154 364.51L180.112 370.525H175.514L173.917 365.549C173.728 364.964 173.369 364.654 172.72 364.654H171.542L170.719 370.525H166.425L168.098 358.639C168.615 354.92 167.531 354.852 167.531 354.852H174.574C178.415 354.852 180.837 355.963 180.371 359.303ZM165.721 362.722C164.969 368.07 161.59 370.808 157.07 370.808C152.421 370.808 150.066 368.055 150.807 362.722C151.661 356.687 156.054 354.571 159.673 354.571C163.522 354.571 166.562 356.733 165.721 362.722ZM148.024 361.129L147.535 364.49H142.188L141.338 370.525H137.046L138.713 358.617C139.22 354.922 138.142 354.852 138.142 354.852H151.037L150.541 358.387H143.044L142.66 361.129H148.024ZM205.888 283.066L174.402 319.283H178.176L178.172 319.287C183.023 319.287 184.739 321.467 185.706 322.955L200.919 348.249L191.008 348.257C189.629 348.257 184.616 348.212 182.524 344.993V344.997L169.36 322.854C167.962 320.738 166.687 319.287 161.97 319.287H158.947L155.486 343.915C154.88 348.249 147.451 348.249 147.451 348.249H139.953L146.702 300.241C148.161 289.85 145.146 289.66 145.146 289.66H163.109L159.201 317.478L193.445 277.727H193.451C193.512 277.651 193.584 277.583 193.652 277.518C181.149 272.739 167.001 269.787 152.54 269.091C110.995 267.078 84.6582 282.169 84.0157 316.035C83.5087 342.271 96.0242 372.206 127.575 388.26C156.826 402.301 202.67 388.786 226.563 357.186C250.194 325.972 235.269 298.741 205.888 283.066Z" fill="#EDAC09"/>
</g>
<defs>
<clipPath id="clip0_2_678">
<rect width="472" height="147.59" fill="white" transform="translate(84 246.205)"/>
</clipPath>
</defs>
</svg>
