<svg width="640" height="640" viewBox="0 0 640 640" fill="none" xmlns="http://www.w3.org/2000/svg">
<rect width="640" height="640" fill="#6C9CD3"/>
<g clip-path="url(#clip0_2_665)">
<path d="M179.745 313.881H119.398C117.789 313.881 116.393 315.278 116.393 316.887V321.182C116.393 321.527 116.468 321.857 116.585 322.171C116.842 323.551 118.101 324.661 119.535 324.661H146.697C148.95 324.661 149.704 326.163 148.95 328.097C146.374 334.43 138.753 343.664 124.581 343.664C108.048 343.664 96.0256 330.136 96.0256 314.463C96.0256 298.465 108.369 285.261 124.366 285.261C134.566 285.261 141.222 290.951 144.443 294.709C145.515 295.997 147.235 296.641 148.521 295.675L153.245 292.131C154.534 291.165 155.286 289.233 154.211 287.945C148.843 281.182 138.431 274.525 124.688 274.525C101.285 274.525 84 292.131 84 314.463C84 336.579 101.394 354.398 124.366 354.398C146.832 354.398 160.274 339.032 162.867 324.189H168.794C171.05 324.189 172.231 325.368 172.231 327.623V362.472C172.231 364.082 173.626 365.476 175.237 365.476H181.25C182.859 365.476 184.255 364.082 184.255 362.472V318.393C184.255 315.493 182.644 313.881 179.745 313.881Z" fill="white"/>
<path d="M221.918 293.342H269.899C271.771 293.342 272.753 294.323 272.753 296.197V303.955C272.753 305.292 273.912 306.452 275.251 306.452H280.245C281.582 306.452 282.742 305.292 282.742 303.955V288.526C282.742 286.119 281.404 284.78 278.995 284.78H221.918C220.58 284.78 219.421 285.94 219.421 287.278V290.845C219.421 292.183 220.58 293.342 221.918 293.342ZM216.568 318.224H285.953C287.29 318.224 288.45 317.066 288.45 315.727V312.249C288.45 310.911 287.29 309.752 285.953 309.752H216.568C215.229 309.752 214.069 310.911 214.069 312.249V315.727C214.069 317.066 215.229 318.224 216.568 318.224ZM278.995 334.991H221.562C220.224 334.991 219.063 336.15 219.063 337.488V341.055C219.063 342.393 220.224 343.552 221.562 343.552H269.899C271.771 343.552 272.753 344.533 272.753 346.407V355.86C272.753 357.198 273.912 358.357 275.251 358.357H280.245C281.582 358.357 282.742 357.198 282.742 355.86V338.736C282.742 336.329 281.404 334.991 278.995 334.991ZM251.349 333.029C254.917 333.029 257.859 330.086 257.859 326.43C257.859 322.863 254.917 319.919 251.349 319.919C247.692 319.919 244.749 322.863 244.749 326.43C244.747 327.297 244.917 328.156 245.248 328.958C245.579 329.759 246.065 330.488 246.678 331.101C247.291 331.714 248.02 332.2 248.821 332.531C249.623 332.862 250.482 333.031 251.349 333.029ZM370.677 355.86V332.583C370.677 330.174 369.249 328.747 366.841 328.747H308.516C307.178 328.747 306.019 329.908 306.019 331.246V334.902C306.019 336.239 307.178 337.399 308.516 337.399H357.835C359.707 337.399 360.688 338.38 360.688 340.252V355.86C360.688 357.198 361.847 358.357 363.185 358.357H368.18C369.518 358.357 370.677 357.198 370.677 355.86ZM365.772 322.327V286.119C365.772 284.78 364.613 283.62 363.274 283.62H358.28C356.943 283.62 355.783 284.78 355.783 286.119V322.327C355.783 323.664 356.943 324.824 358.28 324.824H363.274C364.613 324.824 365.772 323.664 365.772 322.327ZM324.3 321.257C335.36 321.257 343.744 313.499 343.744 303.063C343.744 292.628 335.36 284.869 324.3 284.869C313.242 284.869 304.859 292.628 304.859 303.063C304.859 313.499 313.242 321.257 324.3 321.257ZM324.3 293.342C330.277 293.342 334.2 297.711 334.2 303.063C334.2 308.414 330.277 312.785 324.3 312.785C318.326 312.785 314.402 308.414 314.402 303.063C314.402 297.711 318.326 293.342 324.3 293.342ZM374.512 309.574C378.079 309.574 381.022 306.63 381.022 302.974C381.022 299.406 378.079 296.463 374.512 296.463C370.855 296.463 367.912 299.406 367.912 302.974C367.91 303.841 368.079 304.7 368.41 305.501C368.741 306.303 369.227 307.031 369.841 307.645C370.454 308.258 371.182 308.744 371.984 309.075C372.785 309.406 373.644 309.575 374.512 309.574ZM434.711 319.919V288.616C434.711 287.188 433.64 286.119 432.214 286.119H427.309C425.882 286.119 424.812 287.188 424.812 288.616V294.858H403.229V288.616C403.229 287.188 402.159 286.119 400.732 286.119H395.826C394.399 286.119 393.329 287.188 393.329 288.616V319.919C393.329 321.257 394.488 322.416 395.826 322.416H432.214C433.551 322.416 434.711 321.257 434.711 319.919ZM455.847 321.971V286.119C455.847 284.78 454.689 283.62 453.35 283.62H448.356C447.019 283.62 445.859 284.78 445.859 286.119V321.971C445.859 323.308 447.019 324.467 448.356 324.467H453.35C454.689 324.467 455.847 323.308 455.847 321.971ZM424.812 314.122H403.229V303.064H424.812V314.122ZM441.489 344.444C441.489 348.904 438.189 352.827 432.659 352.827C427.131 352.827 423.831 348.904 423.831 344.444C423.831 339.985 427.131 336.061 432.659 336.061C438.189 336.061 441.489 339.985 441.489 344.444ZM464.587 309.574C468.155 309.574 471.098 306.63 471.098 302.974C471.098 299.406 468.155 296.463 464.587 296.463C460.931 296.463 457.987 299.406 457.987 302.974C457.986 303.841 458.155 304.7 458.486 305.501C458.817 306.303 459.303 307.031 459.917 307.645C460.53 308.258 461.258 308.744 462.06 309.075C462.861 309.406 463.72 309.575 464.587 309.574ZM450.764 344.444C450.764 335.526 443.629 327.588 432.659 327.588C421.69 327.588 414.556 335.526 414.556 344.444C414.556 353.363 421.69 361.299 432.659 361.299C443.629 361.299 450.764 353.363 450.764 344.444ZM553.504 319.205H484.119C482.781 319.205 481.622 320.364 481.622 321.702V325.18C481.622 326.518 482.781 327.678 484.119 327.678H553.504C554.842 327.678 556.001 326.518 556.001 325.18V321.702C556.001 320.364 554.842 319.205 553.504 319.205ZM526.48 346.674C526.48 350.866 523.182 353.898 518.811 353.898C514.441 353.898 511.141 350.866 511.141 346.674C511.141 342.482 514.441 339.45 518.811 339.45C523.182 339.45 526.48 342.482 526.48 346.674ZM518.901 316.53C522.468 316.53 525.411 313.586 525.411 309.93C525.411 306.363 522.468 303.42 518.901 303.42C515.244 303.42 512.301 306.363 512.301 309.93C512.299 310.797 512.468 311.656 512.799 312.458C513.13 313.259 513.616 313.988 514.23 314.601C514.843 315.214 515.571 315.7 516.373 316.031C517.174 316.362 518.033 316.532 518.901 316.53ZM535.846 346.674C535.846 337.844 528.532 331.157 518.811 331.157C509.09 331.157 501.777 337.844 501.777 346.674C501.777 355.502 509.09 362.191 518.811 362.191C528.532 362.191 535.846 355.502 535.846 346.674ZM521.041 283.711C519.971 282.908 517.83 282.73 516.671 283.62L487.061 306.095C485.991 306.988 485.813 308.592 486.705 309.663L489.202 312.872C490.094 313.944 491.521 314.122 492.591 313.319L518.811 293.431L545.031 313.319C546.102 314.122 547.529 313.944 548.421 312.872L550.917 309.663C551.809 308.592 551.631 306.988 550.56 306.095L521.041 283.711Z" fill="white"/>
</g>
<defs>
<clipPath id="clip0_2_665">
<rect width="472" height="90.95" fill="white" transform="translate(84 274.525)"/>
</clipPath>
</defs>
</svg>
