<svg width="640" height="640" viewBox="0 0 640 640" fill="none" xmlns="http://www.w3.org/2000/svg">
<rect width="640" height="640" fill="#F75E5C"/>
<g clip-path="url(#clip0_2_299)">
<path d="M97.2168 294.657L97.6588 294.656C98.0203 294.656 98.3819 294.656 98.7434 294.656C99.1769 294.656 99.6103 294.655 100.044 294.655C101.091 294.654 102.139 294.654 103.186 294.653C103.682 294.653 104.178 294.653 104.674 294.653C106.856 294.652 109.037 294.651 111.219 294.651C112.941 294.651 114.663 294.65 116.385 294.649C118.409 294.647 120.433 294.646 122.456 294.646H122.606C123.397 294.646 124.188 294.646 124.98 294.645C125.776 294.644 126.573 294.644 127.37 294.644C127.842 294.645 128.315 294.644 128.787 294.643C129.141 294.643 129.496 294.643 129.85 294.644C129.992 294.644 130.134 294.644 130.276 294.643C131.589 294.639 132.904 294.73 134.193 294.992L134.415 295.036C136.614 295.488 138.658 296.39 140.3 297.94L140.424 298.053C141.133 298.723 141.681 299.554 142.139 300.41L142.195 300.514C143.434 302.872 143.47 305.53 143.467 308.125C143.467 308.284 143.467 308.443 143.467 308.602C143.467 308.945 143.467 309.288 143.467 309.631C143.466 310.141 143.466 310.651 143.466 311.162C143.466 312.02 143.466 312.879 143.466 313.737C143.465 314.909 143.465 316.08 143.465 317.252C143.465 319.153 143.465 321.054 143.464 322.955C143.464 324.801 143.463 326.647 143.463 328.492V328.665L143.462 334.041C143.462 335.682 143.462 337.323 143.461 338.964V339.105L143.46 344.76H129.098V308.568H120.94V344.76H106.578V308.568H98.4199V344.76H84.0002C83.9968 340.165 83.9968 340.165 83.9958 338.743L83.9957 338.59C83.9946 336.881 83.9936 335.173 83.9929 333.465L83.9929 333.296C83.9921 331.489 83.9914 329.682 83.9908 327.876L83.9907 327.696C83.9899 325.781 83.9887 323.865 83.9871 321.949C83.9852 319.701 83.9841 317.453 83.9839 315.205V315.039C83.9836 314.158 83.9829 313.278 83.9819 312.397C83.9808 311.511 83.9804 310.625 83.9807 309.738C83.9809 309.213 83.9804 308.687 83.9794 308.161C83.9788 307.809 83.9787 307.456 83.9793 307.104C83.9795 306.904 83.9795 306.704 83.9787 306.504C83.9748 305.309 84.0311 304.122 84.3269 302.959L84.3714 302.781C84.8195 301.045 85.6167 299.512 86.8727 298.227L87.0183 298.07C89.0891 295.9 92.1305 295.028 95.0304 294.722L95.1716 294.707C95.8519 294.644 96.5343 294.657 97.2168 294.657ZM151.043 294.665L169.244 294.654L174.987 294.649C177.304 294.649 177.304 294.649 178.39 294.649C179.196 294.648 180.003 294.648 180.809 294.647C181.634 294.646 182.458 294.645 183.282 294.645C183.729 294.646 184.175 294.645 184.622 294.644C188.076 294.637 188.076 294.637 189.706 294.837L189.927 294.864C193.259 295.277 196.693 296.204 199.185 298.572L199.277 298.658C200.075 299.41 200.696 300.239 201.196 301.214L201.257 301.332C202.588 303.93 202.775 307.288 201.909 310.06C201.461 311.425 200.689 312.584 199.702 313.623L199.616 313.715C198.909 314.464 198.125 315.061 197.232 315.576L197.12 315.642C194.634 317.107 191.889 317.59 189.074 317.989L189.238 318.001C193.018 318.286 197.028 318.886 200.219 321.091L200.325 321.163C200.731 321.439 201.111 321.729 201.471 322.064C201.584 322.17 201.701 322.27 201.821 322.37C204.013 324.299 205.157 327.238 205.343 330.104C205.448 331.888 205.359 333.682 204.815 335.396L204.773 335.529C203.869 338.317 201.723 340.65 199.183 342.055C199.078 342.114 198.974 342.173 198.87 342.233C196.437 343.594 193.63 344.198 190.887 344.545L190.682 344.571C189.422 344.723 188.167 344.777 186.898 344.774C186.743 344.774 186.587 344.774 186.432 344.775C186.096 344.775 185.761 344.775 185.426 344.774C184.921 344.773 184.415 344.773 183.91 344.774C183.063 344.774 182.216 344.773 181.369 344.773C180.224 344.772 179.079 344.771 177.933 344.771C175.182 344.771 172.43 344.769 169.678 344.768L151.043 344.76V294.665ZM165.693 308.51V331.088H186.891V308.51H165.693ZM222.552 294.644L223.014 294.644C223.346 294.644 223.678 294.644 224.01 294.644C224.504 294.646 224.998 294.646 225.492 294.645C226.323 294.645 227.154 294.646 227.985 294.647C229.119 294.648 230.253 294.649 231.387 294.649C233.227 294.649 235.067 294.65 236.907 294.652C238.693 294.654 240.48 294.655 242.267 294.656L242.434 294.656L244.096 294.656L247.638 294.658C249.272 294.658 250.906 294.659 252.54 294.661C254.364 294.662 256.188 294.664 258.013 294.665V308.453H224.233V331.145H258.185V344.76C253.897 344.764 253.897 344.764 252.57 344.765L252.426 344.765C250.779 344.766 249.131 344.767 247.483 344.768C245.796 344.769 244.108 344.769 242.421 344.77L242.253 344.77C240.465 344.771 238.677 344.772 236.888 344.774C234.789 344.775 232.69 344.777 230.59 344.777H230.435C229.613 344.777 228.792 344.778 227.97 344.779C227.142 344.78 226.315 344.78 225.487 344.78C224.996 344.78 224.505 344.78 224.015 344.781C223.686 344.782 223.356 344.782 223.027 344.781C222.841 344.781 222.654 344.781 222.467 344.782C218.712 344.795 214.972 343.892 212.226 341.199C210.838 339.686 210.004 337.93 209.569 335.931L209.543 335.812C209.369 334.962 209.337 334.116 209.337 333.251L209.336 332.906C209.335 332.593 209.335 332.279 209.335 331.966C209.334 331.627 209.333 331.288 209.332 330.949C209.331 330.285 209.33 329.622 209.329 328.959C209.328 328.224 209.327 327.489 209.325 326.755C209.322 325.293 209.319 323.83 209.317 322.368C209.315 320.988 209.313 319.609 209.31 318.229L209.309 318.104L209.308 317.483L209.308 317.359C209.306 316.273 209.303 315.187 209.302 314.101L209.301 313.984L209.301 313.517C209.3 312.94 209.298 312.363 209.297 311.786C209.296 311.129 209.295 310.472 209.294 309.815C209.294 309.48 209.293 309.146 209.292 308.811C209.284 305.15 209.378 301.297 212.054 298.463C212.16 298.351 212.257 298.235 212.355 298.116C212.868 297.531 213.521 297.081 214.179 296.676L214.295 296.604C215.041 296.151 215.832 295.827 216.65 295.527L216.793 295.474C217.366 295.268 217.951 295.127 218.546 294.999L218.734 294.957C219.996 294.7 221.268 294.64 222.552 294.644Z" fill="white"/>
<path d="M314.484 305.638H323.849C324.761 307.072 324.761 307.072 325.12 307.659C325.383 308.088 325.647 308.516 325.917 308.941C326.23 309.434 326.535 309.931 326.84 310.428C327.066 310.796 327.294 311.162 327.525 311.526C327.838 312.019 328.144 312.516 328.449 313.014C328.675 313.381 328.903 313.747 329.134 314.112C329.447 314.604 329.752 315.101 330.058 315.599C330.283 315.966 330.511 316.333 330.742 316.697C331.055 317.189 331.361 317.686 331.666 318.184C331.918 318.594 332.174 319.003 332.432 319.41C332.721 319.865 333.002 320.325 333.283 320.785C333.537 321.201 333.802 321.607 334.074 322.011C334.459 321.407 334.838 320.8 335.213 320.19C335.688 319.416 336.169 318.646 336.651 317.877C337.102 317.157 337.55 316.436 337.994 315.712C338.244 315.306 338.497 314.902 338.752 314.5C338.997 314.114 339.236 313.725 339.475 313.336C339.74 312.903 340.007 312.472 340.279 312.043C340.547 311.621 340.811 311.195 341.073 310.769C341.548 309.995 342.029 309.225 342.511 308.455C342.618 308.284 342.725 308.114 342.832 307.943L342.938 307.774C343.155 307.426 343.371 307.077 343.585 306.727C343.688 306.56 343.79 306.392 343.892 306.224L344.003 306.042L344.102 305.881C344.185 305.753 344.185 305.753 344.3 305.638H353.665V344.703H345.047L344.99 319.426L343.554 321.609C343.14 322.237 342.726 322.864 342.312 323.492L342.206 323.653C341.96 324.027 341.714 324.4 341.468 324.774L341.051 325.407C341.017 325.459 340.983 325.511 340.948 325.564C340.524 326.208 340.098 326.851 339.669 327.492C339.497 327.75 339.324 328.009 339.151 328.267C338.841 328.729 338.537 329.193 338.245 329.666C338.021 330.027 337.787 330.379 337.55 330.731C337.414 330.934 337.278 331.137 337.143 331.34L337.054 331.472C336.712 331.986 336.372 332.501 336.032 333.017C335.924 333.18 335.816 333.343 335.708 333.507C335.401 333.973 335.094 334.439 334.798 334.913L334.598 335.228C334.54 335.322 334.482 335.416 334.425 335.511L334.321 335.675L334.234 335.816C334.132 335.913 334.132 335.913 333.962 335.946C333.787 335.913 333.787 335.913 333.669 335.795L333.562 335.627L333.439 335.438L333.31 335.231C333.264 335.16 333.217 335.088 333.171 335.016C333.076 334.869 332.982 334.722 332.888 334.574C332.733 334.33 332.575 334.089 332.417 333.848C332.298 333.667 332.18 333.486 332.062 333.305C331.705 332.758 331.346 332.214 330.987 331.669L330.879 331.506L330.33 330.673C330.013 330.194 329.697 329.714 329.381 329.234L328.861 328.445L328.653 328.129L328.549 327.971L326.466 324.811L325.74 323.71C325.416 323.218 325.092 322.726 324.768 322.235L324.093 321.213L323.792 320.756L323.704 320.622C323.48 320.283 323.263 319.941 323.044 319.598L322.987 344.703H314.484L314.484 305.638ZM400.83 305.638H409.505L409.508 307.726C409.513 310.279 409.518 312.831 409.523 315.383L409.524 315.59C409.526 316.695 409.528 317.8 409.529 318.906C409.531 320.041 409.533 321.176 409.536 322.311C409.538 323.01 409.539 323.71 409.54 324.41C409.54 324.89 409.541 325.371 409.543 325.852C409.543 326.128 409.544 326.405 409.544 326.682C409.545 329.773 409.793 332.869 412.018 335.235C413.621 336.762 415.742 337.32 417.903 337.31L418.053 337.31C418.777 337.307 419.484 337.291 420.19 337.12L420.339 337.084C422.289 336.605 423.945 335.505 425.007 333.785C425.534 332.897 425.838 331.882 426.039 330.876L426.073 330.712C426.331 329.328 426.298 327.903 426.298 326.501C426.298 326.22 426.299 325.939 426.3 325.658C426.301 325.174 426.302 324.689 426.303 324.204C426.304 323.503 426.305 322.802 426.307 322.1C426.309 320.963 426.311 319.825 426.313 318.687C426.315 317.582 426.317 316.478 426.319 315.374L426.32 315.167L426.322 314.14C426.328 311.306 426.333 308.472 426.337 305.638H434.955C434.959 309 434.962 312.361 434.964 315.723L434.964 315.938C434.965 317.081 434.966 318.224 434.968 319.367C434.97 320.542 434.971 321.717 434.971 322.892C434.971 323.616 434.972 324.339 434.973 325.063C434.974 325.561 434.975 326.059 434.974 326.557C434.974 326.843 434.974 327.129 434.975 327.415C434.988 331.467 434.392 335.696 431.967 339.073L431.846 339.242C430.973 340.431 429.96 341.498 428.75 342.348L428.641 342.425C425.82 344.417 422.204 345.334 418.779 345.347L418.559 345.348C418.406 345.348 418.253 345.349 418.1 345.349C417.871 345.349 417.643 345.351 417.415 345.353C413.471 345.369 409.37 344.402 406.288 341.831L406.188 341.749C405.419 341.115 404.715 340.434 404.12 339.631C404.049 339.536 403.977 339.44 403.905 339.346C401.076 335.574 400.818 330.753 400.823 326.225C400.824 325.948 400.824 325.67 400.824 325.393C400.824 324.914 400.824 324.436 400.824 323.958C400.824 323.266 400.825 322.574 400.825 321.882C400.825 320.759 400.825 319.636 400.826 318.514C400.826 317.424 400.827 316.334 400.827 315.245V315.041L400.827 314.027C400.828 311.23 400.829 308.434 400.83 305.638ZM469.388 307.752L469.591 307.751C469.732 307.75 469.873 307.75 470.014 307.75C470.225 307.749 470.435 307.747 470.645 307.746C472.453 307.737 474.266 307.95 475.973 308.568L476.115 308.619C477.56 309.147 478.797 309.954 479.937 310.981L480.031 311.065C483.466 314.149 484.671 318.591 484.928 323.075C485.201 328.319 484.642 333.806 480.856 339.935L480.734 340.091C478.319 343.104 474.886 344.864 471.065 345.293C470.664 345.334 470.267 345.345 469.864 345.347L469.663 345.348C469.451 345.349 469.238 345.349 469.026 345.349L468.806 345.349C467.776 345.349 466.765 345.338 465.747 345.163L465.564 345.132C462.719 344.64 460.115 343.397 457.819 341.658L457.703 341.57C457.492 341.409 457.282 341.247 457.073 341.084C457.269 340.722 457.5 340.39 457.737 340.053L457.986 339.697L458.109 339.522C458.255 339.312 458.4 339.101 458.545 338.89C458.814 338.497 459.087 338.108 459.36 337.718C459.588 337.392 459.815 337.065 460.04 336.736C460.203 336.499 460.367 336.262 460.531 336.026L460.658 335.844C460.742 335.724 460.825 335.604 460.909 335.485L461.024 335.32L461.128 335.171C461.21 335.055 461.21 335.055 461.266 334.937C461.421 335.01 461.554 335.089 461.689 335.194L461.799 335.278L461.916 335.368C463.839 336.825 466.073 337.979 468.539 337.993L468.677 337.994C468.772 337.995 468.868 337.995 468.963 337.995C469.106 337.996 469.249 337.998 469.392 337.999C470.189 338.005 470.968 337.921 471.726 337.658L471.854 337.614C473.482 337.027 474.612 335.73 475.353 334.199C475.408 334.082 475.461 333.964 475.514 333.845L475.572 333.715C476.106 332.5 476.363 331.247 476.548 329.939L476.437 330.031C476.057 330.348 475.656 330.612 475.226 330.858L475.117 330.921C471.967 332.72 468.009 332.674 464.584 331.756C462.638 331.209 460.917 330.268 459.428 328.905L459.294 328.784C458.933 328.44 458.633 328.04 458.336 327.641L458.263 327.543C456.39 325.012 455.961 321.56 456.385 318.511C456.734 316.233 457.653 314.033 459.198 312.302L459.273 312.218C459.456 312.013 459.642 311.812 459.83 311.613L459.957 311.476C462.301 309.037 466.065 307.765 469.388 307.752ZM467.801 314.984L467.673 315.028C467.017 315.265 466.441 315.63 465.92 316.094L465.788 316.209C464.746 317.181 464.32 318.577 464.243 319.964C464.216 321.334 464.593 322.646 465.518 323.677L465.659 323.835C466.69 324.925 468.215 325.52 469.706 325.582C469.787 325.583 469.868 325.584 469.949 325.584L470.083 325.585C470.177 325.586 470.27 325.586 470.363 325.586C470.502 325.587 470.641 325.589 470.78 325.591C471.593 325.596 472.406 325.517 473.176 325.242L473.305 325.198C473.911 324.98 474.449 324.671 474.939 324.251L475.082 324.133C476.133 323.236 476.663 321.93 476.777 320.575C476.861 319.117 476.463 317.685 475.49 316.576C474.432 315.409 473.042 314.847 471.492 314.657C471.336 314.651 471.18 314.647 471.024 314.646L470.89 314.645C470.797 314.644 470.704 314.644 470.611 314.644C470.471 314.643 470.332 314.641 470.193 314.639C469.383 314.634 468.571 314.713 467.801 314.984ZM540.452 307.752L540.655 307.751C540.796 307.75 540.937 307.75 541.078 307.75C541.289 307.749 541.499 307.747 541.71 307.746C543.517 307.737 545.331 307.95 547.037 308.568L547.179 308.619C548.624 309.147 549.861 309.954 551.001 310.981L551.096 311.065C554.288 313.931 555.556 317.951 555.92 322.135L555.932 322.263C556.013 323.218 556.026 324.17 556.022 325.127C556.021 325.358 556.022 325.589 556.023 325.819C556.026 326.762 556.005 327.698 555.92 328.637L555.91 328.756C555.545 332.706 554.407 336.776 551.921 339.935L551.798 340.091C549.384 343.104 545.95 344.864 542.129 345.293C541.729 345.334 541.331 345.345 540.928 345.347L540.728 345.348C540.515 345.349 540.302 345.349 540.09 345.349L539.87 345.349C538.84 345.349 537.829 345.338 536.812 345.163L536.628 345.132C533.783 344.64 531.179 343.397 528.884 341.658L528.767 341.57C528.556 341.409 528.346 341.247 528.137 341.084C528.333 340.722 528.564 340.39 528.801 340.053L529.05 339.697L529.173 339.522C529.319 339.312 529.464 339.101 529.609 338.89C529.878 338.497 530.151 338.108 530.424 337.718C530.653 337.392 530.879 337.065 531.104 336.736C531.267 336.499 531.431 336.262 531.595 336.026L531.723 335.844C531.806 335.724 531.89 335.604 531.973 335.485L532.089 335.32L532.192 335.171C532.274 335.055 532.274 335.055 532.331 334.937C532.485 335.01 532.619 335.089 532.754 335.194L532.864 335.278L532.98 335.368C534.903 336.825 537.138 337.979 539.603 337.993L539.741 337.994C539.836 337.995 539.932 337.995 540.028 337.995C540.17 337.996 540.313 337.998 540.456 337.999C541.253 338.005 542.032 337.921 542.79 337.658L542.918 337.614C544.546 337.027 545.676 335.73 546.417 334.199C546.472 334.082 546.525 333.964 546.578 333.845L546.636 333.715C547.17 332.5 547.428 331.247 547.612 329.939L547.502 330.031C547.121 330.348 546.72 330.612 546.291 330.858L546.181 330.921C543.031 332.72 539.073 332.674 535.648 331.756C533.702 331.209 531.981 330.268 530.492 328.905L530.359 328.784C529.997 328.44 529.698 328.04 529.401 327.641L529.327 327.543C527.454 325.012 527.026 321.56 527.449 318.511C527.799 316.233 528.718 314.033 530.262 312.302L530.337 312.218C530.52 312.013 530.706 311.812 530.894 311.613L531.021 311.476C533.365 309.037 537.13 307.765 540.452 307.752ZM538.865 314.984L538.737 315.028C538.081 315.265 537.505 315.63 536.984 316.094L536.852 316.209C535.81 317.181 535.384 318.577 535.307 319.964C535.28 321.334 535.658 322.646 536.582 323.677L536.723 323.835C537.754 324.925 539.279 325.52 540.77 325.582C540.851 325.583 540.932 325.584 541.014 325.584L541.147 325.585C541.241 325.586 541.334 325.586 541.427 325.586C541.566 325.587 541.705 325.589 541.844 325.591C542.657 325.596 543.47 325.517 544.24 325.242L544.369 325.198C544.976 324.98 545.513 324.671 546.003 324.251L546.147 324.133C547.197 323.236 547.727 321.93 547.842 320.575C547.925 319.117 547.528 317.685 546.555 316.576C545.496 315.409 544.106 314.847 542.556 314.657C542.401 314.651 542.245 314.647 542.089 314.646L541.955 314.645C541.861 314.644 541.768 314.644 541.675 314.644C541.536 314.643 541.397 314.641 541.258 314.639C540.447 314.634 539.635 314.713 538.865 314.984ZM381.412 305.351H388.766V329.249H394.051V336.316H388.766V344.761H380.493V336.316H361.42C361.156 335.324 361.156 335.324 361.058 334.898L361.024 334.75C360.987 334.593 360.951 334.435 360.915 334.278L360.877 334.113C360.811 333.826 360.745 333.538 360.679 333.251C360.611 332.955 360.543 332.66 360.474 332.364C360.421 332.135 360.369 331.907 360.317 331.678C360.292 331.569 360.267 331.46 360.241 331.351C360.206 331.199 360.171 331.047 360.137 330.894L360.105 330.76C360.045 330.489 360.033 330.271 360.099 329.996C360.201 329.863 360.296 329.754 360.415 329.637C360.478 329.572 360.542 329.506 360.605 329.441L360.7 329.343C360.825 329.21 360.94 329.069 361.054 328.926C361.227 328.711 361.406 328.504 361.592 328.301C361.781 328.097 361.963 327.886 362.138 327.669C362.359 327.396 362.592 327.138 362.829 326.88C362.968 326.725 363.1 326.567 363.23 326.406C363.45 326.132 363.683 325.874 363.921 325.616C364.06 325.461 364.191 325.303 364.321 325.142C364.542 324.868 364.775 324.61 365.012 324.352C365.151 324.197 365.283 324.039 365.413 323.878C365.633 323.605 365.866 323.346 366.104 323.088C366.243 322.934 366.374 322.775 366.504 322.614C366.725 322.341 366.958 322.082 367.196 321.824C367.334 321.67 367.466 321.512 367.596 321.35C367.816 321.077 368.049 320.818 368.287 320.56C368.426 320.406 368.557 320.248 368.687 320.086C368.908 319.813 369.141 319.555 369.379 319.296C369.517 319.142 369.649 318.984 369.779 318.822C369.999 318.549 370.232 318.291 370.47 318.032C370.609 317.878 370.74 317.72 370.87 317.558C371.091 317.285 371.324 317.027 371.562 316.769C371.7 316.614 371.832 316.456 371.962 316.295C372.182 316.021 372.416 315.763 372.653 315.505C372.792 315.35 372.923 315.192 373.054 315.031C373.274 314.757 373.507 314.499 373.745 314.241C373.883 314.086 374.015 313.928 374.145 313.767C374.366 313.494 374.599 313.235 374.836 312.977C374.975 312.823 375.106 312.664 375.237 312.503C375.457 312.23 375.69 311.971 375.928 311.713C376.066 311.559 376.198 311.401 376.328 311.239C376.549 310.966 376.782 310.707 377.019 310.449C377.158 310.295 377.289 310.137 377.42 309.975C377.64 309.702 377.873 309.444 378.111 309.185C378.249 309.031 378.381 308.873 378.511 308.711C378.732 308.438 378.965 308.18 379.202 307.921C379.341 307.767 379.472 307.609 379.603 307.447C379.778 307.231 379.96 307.02 380.148 306.816C380.381 306.563 380.601 306.303 380.815 306.034C381.008 305.801 381.211 305.577 381.412 305.351ZM380.436 317.243C380.099 317.588 379.789 317.958 379.486 318.334C379.321 318.534 379.152 318.731 378.982 318.927L378.886 319.037L378.693 319.258C378.336 319.669 377.981 320.08 377.639 320.503C377.434 320.754 377.22 320.995 377.002 321.235C376.874 321.379 376.751 321.527 376.63 321.677C376.33 322.047 376.017 322.405 375.705 322.764C375.47 323.033 375.239 323.305 375.007 323.576C374.919 323.679 374.831 323.781 374.742 323.884C374.479 324.19 374.217 324.497 373.962 324.811C373.758 325.063 373.544 325.304 373.326 325.543C373.197 325.688 373.075 325.835 372.953 325.986C372.653 326.355 372.341 326.713 372.028 327.072C371.625 327.536 371.227 328.004 370.831 328.474C370.649 328.689 370.464 328.902 370.276 329.112C370.204 329.182 370.204 329.182 370.21 329.249H380.493V317.243H380.436ZM277.832 305.638H307.648V313.508H286.507V321.781H305.12V329.651H286.507V344.703H277.832V305.638ZM504.87 308.108V344.761H496.942V316.266L493.265 317.185C491.498 317.619 491.498 317.619 490.68 317.817C490.554 317.628 490.515 317.482 490.46 317.261L490.43 317.144C490.398 317.015 490.366 316.885 490.333 316.756L490.264 316.481C490.203 316.239 490.142 315.996 490.082 315.753C490.01 315.466 489.938 315.18 489.866 314.894C489.806 314.658 489.747 314.422 489.688 314.186C489.568 313.707 489.446 313.229 489.321 312.752L489.247 312.47C489.201 312.293 489.154 312.117 489.106 311.94L489.044 311.702L488.989 311.493C488.957 311.325 488.957 311.325 489.014 311.153C489.122 311.102 489.122 311.102 489.267 311.059L489.433 311.009L489.618 310.956L489.813 310.898C489.993 310.845 490.172 310.793 490.351 310.741C490.543 310.685 490.734 310.628 490.925 310.572C491.214 310.486 491.504 310.401 491.794 310.316C492.394 310.139 492.994 309.961 493.594 309.781L493.739 309.738L494.318 309.564C494.64 309.468 494.962 309.372 495.284 309.276C498.861 308.208 500.725 308.108 504.87 308.108ZM512.798 336.43H521.3V344.761H512.798V336.43Z" fill="white"/>
</g>
<defs>
<clipPath id="clip0_2_299">
<rect width="472" height="50.6699" fill="white" transform="translate(84 294.665)"/>
</clipPath>
</defs>
</svg>
