<svg width="640" height="640" viewBox="0 0 640 640" fill="none" xmlns="http://www.w3.org/2000/svg">
<rect width="640" height="640" fill="#7C85FF"/>
<g clip-path="url(#clip0_2_291)">
<path d="M96.9114 296.084L97.3432 296.083C97.6964 296.083 98.0496 296.082 98.4028 296.082C98.8263 296.082 99.2497 296.082 99.6731 296.082C100.696 296.081 101.72 296.08 102.743 296.08C103.227 296.08 103.712 296.08 104.197 296.08C106.328 296.079 108.459 296.078 110.591 296.078C112.273 296.078 113.955 296.077 115.638 296.076C117.615 296.074 119.592 296.073 121.569 296.073H121.715C122.488 296.073 123.261 296.073 124.034 296.072C124.812 296.071 125.591 296.071 126.369 296.071C126.831 296.072 127.292 296.071 127.753 296.07C128.099 296.07 128.446 296.07 128.792 296.071C128.931 296.071 129.069 296.071 129.208 296.07C130.491 296.066 131.775 296.155 133.034 296.411L133.251 296.454C135.4 296.896 137.396 297.776 139.001 299.291L139.122 299.401C139.815 300.056 140.35 300.867 140.797 301.704L140.852 301.806C142.062 304.109 142.097 306.706 142.094 309.241C142.094 309.396 142.095 309.551 142.095 309.707C142.095 310.042 142.095 310.377 142.094 310.712C142.094 311.211 142.094 311.709 142.094 312.207C142.094 313.046 142.094 313.885 142.094 314.724C142.093 315.868 142.093 317.013 142.093 318.157C142.093 320.014 142.092 321.871 142.092 323.728C142.091 325.532 142.091 327.335 142.091 329.139V329.307L142.09 334.559C142.09 336.162 142.09 337.765 142.089 339.368V339.506L142.088 345.031H128.057V309.673H120.087V345.031H106.056V309.673H98.0868V345.031H83.9997C83.9964 340.542 83.9964 340.542 83.9954 339.153L83.9953 339.003C83.9942 337.334 83.9933 335.665 83.9926 333.996L83.9926 333.831C83.9918 332.066 83.9911 330.301 83.9905 328.536L83.9904 328.361C83.9897 326.489 83.9885 324.618 83.9869 322.746C83.985 320.55 83.984 318.354 83.9837 316.158V315.995C83.9835 315.135 83.9828 314.275 83.9818 313.415C83.9808 312.549 83.9804 311.683 83.9807 310.817C83.9808 310.304 83.9804 309.79 83.9794 309.276C83.9788 308.932 83.9787 308.588 83.9793 308.244C83.9795 308.048 83.9795 307.853 83.9787 307.657C83.9749 306.49 84.0299 305.33 84.3189 304.194L84.3623 304.02C84.8001 302.325 85.5789 300.827 86.8059 299.571L86.9482 299.418C88.9712 297.298 91.9425 296.446 94.7755 296.148L94.9134 296.133C95.578 296.071 96.2447 296.083 96.9114 296.084ZM149.496 296.091L167.277 296.081L172.887 296.076C175.151 296.076 175.151 296.076 176.212 296.075C177 296.075 177.788 296.075 178.576 296.074C179.381 296.072 180.186 296.072 180.992 296.072C181.428 296.072 181.864 296.072 182.3 296.071C185.675 296.064 185.675 296.064 187.267 296.26L187.483 296.286C190.738 296.689 194.093 297.595 196.528 299.908L196.617 299.992C197.396 300.727 198.004 301.537 198.492 302.49L198.552 302.605C199.852 305.143 200.034 308.424 199.189 311.131C198.751 312.465 197.997 313.597 197.033 314.612L196.949 314.702C196.258 315.434 195.492 316.017 194.619 316.52L194.511 316.585C192.081 318.016 189.4 318.488 186.65 318.878L186.81 318.89C190.503 319.168 194.42 319.754 197.538 321.908L197.641 321.978C198.038 322.248 198.409 322.531 198.76 322.859C198.872 322.962 198.986 323.06 199.102 323.157C201.244 325.042 202.362 327.913 202.543 330.713C202.646 332.456 202.559 334.209 202.028 335.883L201.987 336.013C201.103 338.736 199.007 341.015 196.525 342.389C196.423 342.446 196.321 342.503 196.22 342.562C193.843 343.891 191.101 344.481 188.421 344.821L188.221 344.847C186.989 344.994 185.764 345.048 184.524 345.045C184.372 345.045 184.22 345.045 184.069 345.045C183.741 345.045 183.413 345.045 183.086 345.045C182.592 345.044 182.099 345.044 181.605 345.044C180.778 345.044 179.95 345.044 179.123 345.043C178.004 345.042 176.885 345.042 175.766 345.042C173.078 345.041 170.389 345.04 167.701 345.038L149.496 345.031V296.091ZM163.808 309.617V331.674H184.517V309.617H163.808ZM219.355 296.071L219.807 296.071C220.131 296.07 220.456 296.071 220.78 296.071C221.262 296.072 221.745 296.072 222.227 296.072C223.039 296.072 223.851 296.073 224.663 296.074C225.771 296.075 226.878 296.076 227.986 296.076C229.784 296.076 231.581 296.077 233.379 296.079C235.125 296.08 236.87 296.081 238.615 296.082L238.779 296.082L240.402 296.083L243.863 296.084C245.459 296.085 247.055 296.086 248.651 296.087C250.434 296.089 252.216 296.09 253.998 296.091V309.561H220.998V331.73H254.167V345.031C249.978 345.035 249.978 345.035 248.681 345.036L248.541 345.036C246.931 345.037 245.321 345.038 243.712 345.039C242.063 345.039 240.415 345.04 238.766 345.041L238.602 345.041C236.855 345.041 235.108 345.043 233.361 345.044C231.31 345.046 229.259 345.047 227.208 345.047H227.057C226.254 345.048 225.451 345.048 224.649 345.049C223.84 345.05 223.031 345.051 222.223 345.05C221.743 345.05 221.264 345.051 220.785 345.052C220.463 345.052 220.141 345.052 219.82 345.052C219.637 345.052 219.455 345.052 219.273 345.052C215.604 345.065 211.95 344.183 209.268 341.552C207.912 340.074 207.097 338.358 206.672 336.406L206.646 336.289C206.477 335.459 206.445 334.632 206.446 333.788L206.444 333.451C206.444 333.144 206.443 332.838 206.443 332.532C206.443 332.201 206.442 331.869 206.441 331.538C206.439 330.89 206.438 330.242 206.437 329.594C206.436 328.876 206.435 328.159 206.433 327.441C206.43 326.013 206.428 324.584 206.426 323.155C206.424 321.807 206.421 320.46 206.419 319.112L206.418 318.99L206.417 318.383L206.417 318.262C206.415 317.201 206.413 316.14 206.411 315.079L206.411 314.965L206.41 314.508C206.409 313.945 206.408 313.381 206.406 312.818C206.405 312.176 206.404 311.534 206.403 310.892C206.403 310.565 206.402 310.238 206.402 309.911C206.393 306.335 206.485 302.57 209.1 299.802C209.203 299.692 209.298 299.579 209.394 299.462C209.895 298.891 210.533 298.452 211.176 298.056L211.289 297.986C212.017 297.543 212.791 297.227 213.589 296.933L213.73 296.882C214.289 296.68 214.861 296.543 215.441 296.418L215.626 296.377C216.858 296.125 218.101 296.067 219.355 296.071Z" fill="white"/>
<path d="M401.636 295.012L401.85 295.01C402.078 295.009 402.306 295.008 402.533 295.007L402.651 295.007C403.905 295.005 405.135 295.046 406.374 295.249L406.574 295.281C409.923 295.829 413.208 297.196 415.701 299.536C415.851 299.675 416.004 299.811 416.157 299.946C416.397 300.162 416.607 300.39 416.813 300.637C416.859 300.689 416.904 300.741 416.951 300.794C417.588 301.523 418.136 302.318 418.609 303.163L418.683 303.293C420.631 306.792 421.09 311.14 420.069 315.005C419.433 317.223 418.395 319.22 416.869 320.954L416.779 321.059C416.23 321.696 415.631 322.296 414.961 322.806L414.761 322.963C412.719 324.543 409.595 326.286 406.936 326.286V334.087H426.916V340.654C425.111 340.718 425.111 340.718 424.416 340.717C424.334 340.717 424.252 340.717 424.17 340.717C423.95 340.717 423.729 340.717 423.509 340.717C423.267 340.716 423.025 340.717 422.784 340.717C422.362 340.717 421.94 340.717 421.518 340.716C420.89 340.716 420.263 340.716 419.635 340.716C418.58 340.716 417.524 340.716 416.468 340.716C415.423 340.715 414.379 340.715 413.335 340.715H413.137L412.145 340.715C409.807 340.715 407.469 340.714 405.131 340.714C402.861 340.713 400.591 340.713 398.32 340.713H398.108L391.698 340.712H391.498C388.092 340.712 384.686 340.711 381.28 340.71L381.135 340.71L378.313 340.71V334.087H398.349L398.293 326.342L396.553 325.949C396.205 325.848 395.863 325.745 395.521 325.626L395.395 325.583C393.925 325.082 392.49 324.44 391.221 323.536C391.159 323.493 391.096 323.45 391.034 323.407C390.545 323.069 390.094 322.696 389.649 322.301L389.561 322.224C386.669 319.681 384.978 315.945 384.697 312.133C384.444 308.097 385.5 303.965 388.214 300.883C388.345 300.738 388.478 300.593 388.612 300.451C388.728 300.325 388.841 300.197 388.951 300.066C389.181 299.802 389.442 299.575 389.706 299.347L389.868 299.203C393.05 296.423 397.448 295.039 401.636 295.012ZM398.012 302.489L397.895 302.545C396.986 302.985 396.205 303.577 395.486 304.285L395.344 304.426C393.895 305.934 393.074 308.149 393.062 310.23L393.06 310.37C393.059 310.518 393.059 310.666 393.059 310.813L393.059 310.966C393.06 311.689 393.077 312.389 393.241 313.097L393.27 313.228C393.749 315.413 395.033 317.374 396.911 318.605C398.419 319.558 400.15 320.165 401.946 320.182L402.091 320.183C403.903 320.2 405.568 320.019 407.216 319.214L407.337 319.156C408.066 318.796 408.68 318.368 409.279 317.814C409.388 317.716 409.499 317.62 409.612 317.527C411.159 316.199 411.992 313.961 412.155 311.974C412.175 311.606 412.174 311.238 412.173 310.869L412.172 310.719C412.17 310.003 412.15 309.307 411.987 308.607L411.958 308.476C411.479 306.291 410.195 304.33 408.317 303.099C406.81 302.146 405.078 301.539 403.283 301.522L403.137 301.52C401.324 301.504 399.663 301.687 398.012 302.489ZM276.111 297.494H302.995V319.383H284.586V329.373L289.196 329.139C290.666 329.065 292.136 328.991 293.606 328.917L293.798 328.907C294.821 328.856 295.844 328.804 296.866 328.752C297.917 328.699 298.968 328.646 300.018 328.593C300.666 328.561 301.313 328.528 301.961 328.495C302.406 328.472 302.851 328.45 303.295 328.428C303.552 328.415 303.808 328.402 304.064 328.389C304.299 328.377 304.535 328.365 304.77 328.353C304.854 328.349 304.939 328.345 305.023 328.34C305.714 328.304 306.398 328.306 307.092 328.306V335.097L276.111 337.062V313.041H294.52V304.061H276.111V297.494ZM460.891 308.539L461.089 308.538C461.227 308.538 461.365 308.538 461.503 308.537C461.709 308.537 461.914 308.535 462.12 308.533C463.885 308.525 465.657 308.733 467.325 309.337L467.463 309.386C468.875 309.903 470.083 310.691 471.197 311.694L471.289 311.776C474.645 314.789 475.822 319.129 476.073 323.509C476.339 328.633 475.794 333.993 472.095 339.98L471.975 340.133C469.617 343.076 466.262 344.795 462.53 345.215C462.138 345.254 461.75 345.266 461.356 345.267L461.16 345.268C460.953 345.269 460.745 345.27 460.537 345.27L460.323 345.27C459.316 345.269 458.329 345.258 457.335 345.087L457.155 345.057C454.376 344.577 451.832 343.362 449.59 341.664L449.476 341.578C449.269 341.421 449.064 341.262 448.86 341.103C449.052 340.749 449.278 340.424 449.509 340.096L449.752 339.748L449.872 339.577C450.015 339.372 450.157 339.166 450.298 338.959C450.561 338.576 450.827 338.195 451.094 337.815C451.318 337.496 451.539 337.176 451.759 336.855C451.918 336.623 452.078 336.392 452.239 336.162L452.363 335.983C452.445 335.867 452.526 335.75 452.608 335.633L452.721 335.471L452.822 335.327C452.902 335.213 452.902 335.213 452.957 335.097C453.108 335.169 453.238 335.246 453.37 335.348L453.478 335.43L453.592 335.518C455.47 336.942 457.653 338.069 460.062 338.083L460.196 338.084C460.29 338.085 460.383 338.085 460.476 338.085C460.616 338.086 460.755 338.088 460.895 338.089C461.674 338.095 462.435 338.013 463.175 337.756L463.3 337.713C464.891 337.14 465.995 335.872 466.718 334.377C466.772 334.262 466.824 334.147 466.876 334.031L466.933 333.903C467.454 332.717 467.706 331.493 467.886 330.215L467.778 330.305C467.406 330.615 467.014 330.872 466.595 331.113L466.488 331.174C463.411 332.931 459.544 332.887 456.198 331.989C454.297 331.456 452.616 330.537 451.161 329.204L451.031 329.086C450.677 328.75 450.385 328.36 450.095 327.97L450.023 327.874C448.193 325.401 447.774 322.029 448.188 319.05C448.53 316.825 449.427 314.675 450.937 312.985L451.009 312.903C451.188 312.702 451.37 312.506 451.554 312.311L451.678 312.178C453.968 309.795 457.645 308.552 460.891 308.539ZM459.341 315.605L459.216 315.648C458.575 315.879 458.012 316.236 457.503 316.689L457.374 316.802C456.356 317.751 455.94 319.115 455.865 320.47C455.839 321.808 456.207 323.09 457.11 324.097L457.248 324.251C458.256 325.316 459.745 325.898 461.202 325.958C461.281 325.959 461.36 325.96 461.44 325.961L461.571 325.961C461.662 325.962 461.753 325.962 461.844 325.963C461.98 325.963 462.116 325.965 462.251 325.967C463.045 325.972 463.84 325.895 464.592 325.626L464.718 325.583C465.31 325.37 465.835 325.069 466.314 324.658L466.454 324.543C467.48 323.667 467.998 322.39 468.11 321.066C468.192 319.642 467.804 318.244 466.853 317.16C465.819 316.02 464.461 315.471 462.947 315.286C462.795 315.279 462.642 315.275 462.49 315.274L462.359 315.273C462.268 315.273 462.177 315.272 462.086 315.272C461.95 315.272 461.814 315.27 461.678 315.268C460.886 315.263 460.093 315.34 459.341 315.605ZM540.812 308.539L541.009 308.538C541.147 308.538 541.285 308.538 541.423 308.537C541.629 308.537 541.834 308.535 542.04 308.533C543.805 308.525 545.577 308.733 547.245 309.337L547.383 309.386C548.795 309.903 550.003 310.691 551.117 311.694L551.209 311.776C554.328 314.576 555.567 318.504 555.923 322.59L555.934 322.716C556.013 323.649 556.026 324.578 556.022 325.514C556.021 325.739 556.022 325.965 556.023 326.19C556.026 327.111 556.005 328.025 555.923 328.943L555.912 329.059C555.556 332.918 554.445 336.894 552.015 339.98L551.895 340.133C549.537 343.076 546.182 344.795 542.45 345.215C542.058 345.254 541.67 345.266 541.277 345.267L541.081 345.268C540.873 345.269 540.665 345.27 540.457 345.27L540.243 345.27C539.236 345.269 538.249 345.258 537.255 345.087L537.075 345.057C534.296 344.577 531.752 343.362 529.51 341.664L529.396 341.578C529.19 341.421 528.984 341.262 528.78 341.103C528.972 340.749 529.198 340.424 529.429 340.096L529.673 339.748L529.792 339.577C529.935 339.372 530.077 339.166 530.218 338.959C530.481 338.576 530.748 338.195 531.015 337.815C531.238 337.496 531.459 337.176 531.679 336.855C531.838 336.623 531.998 336.392 532.159 336.162L532.283 335.983C532.365 335.867 532.446 335.75 532.528 335.633L532.641 335.471L532.742 335.327C532.822 335.213 532.822 335.213 532.877 335.097C533.028 335.169 533.158 335.246 533.29 335.348L533.398 335.43L533.512 335.518C535.39 336.942 537.573 338.069 539.982 338.083L540.116 338.084C540.21 338.085 540.303 338.085 540.397 338.085C540.536 338.086 540.676 338.088 540.815 338.089C541.594 338.095 542.355 338.013 543.095 337.756L543.22 337.713C544.811 337.14 545.915 335.872 546.639 334.377C546.692 334.262 546.744 334.147 546.796 334.031L546.853 333.903C547.374 332.717 547.626 331.493 547.806 330.215L547.698 330.305C547.327 330.615 546.934 330.872 546.515 331.113L546.408 331.174C543.331 332.931 539.464 332.887 536.118 331.989C534.217 331.456 532.536 330.537 531.081 329.204L530.951 329.086C530.598 328.75 530.305 328.36 530.015 327.97L529.943 327.874C528.113 325.401 527.695 322.029 528.108 319.05C528.45 316.825 529.347 314.675 530.857 312.985L530.93 312.903C531.108 312.702 531.29 312.506 531.474 312.311L531.598 312.178C533.888 309.795 537.565 308.552 540.812 308.539ZM539.261 315.605L539.136 315.648C538.495 315.879 537.932 316.236 537.423 316.689L537.294 316.802C536.276 317.751 535.86 319.115 535.785 320.47C535.759 321.808 536.127 323.09 537.03 324.097L537.168 324.251C538.176 325.316 539.665 325.898 541.122 325.958C541.201 325.959 541.281 325.96 541.36 325.961L541.491 325.961C541.582 325.962 541.673 325.962 541.764 325.963C541.9 325.963 542.036 325.965 542.172 325.967C542.965 325.972 543.76 325.895 544.512 325.626L544.638 325.583C545.231 325.37 545.755 325.069 546.235 324.658L546.374 324.543C547.4 323.667 547.918 322.39 548.03 321.066C548.112 319.642 547.724 318.244 546.773 317.16C545.739 316.02 544.381 315.471 542.867 315.286C542.715 315.279 542.562 315.275 542.41 315.274L542.279 315.273C542.188 315.273 542.097 315.272 542.006 315.272C541.87 315.272 541.734 315.27 541.598 315.268C540.806 315.263 540.013 315.34 539.261 315.605ZM329.036 297.719H355.526V304.342H337.286V328.25C344.508 327.9 344.508 327.9 351.73 327.548L353.783 327.449C354.239 327.427 354.696 327.405 355.152 327.382C355.679 327.357 356.207 327.331 356.734 327.306C357.003 327.293 357.273 327.28 357.542 327.266C357.786 327.254 358.031 327.242 358.275 327.231C358.363 327.227 358.45 327.222 358.538 327.218C359.238 327.183 359.931 327.184 360.634 327.184V333.975L355.827 334.276L355.705 334.283C354.342 334.369 352.98 334.454 351.617 334.539L351.482 334.547L347.021 334.826C345.492 334.922 343.963 335.017 342.434 335.113C340.642 335.225 338.849 335.337 337.057 335.449L336.925 335.457C336.221 335.501 335.518 335.545 334.814 335.59C334.108 335.634 333.402 335.678 332.695 335.722C332.312 335.746 331.929 335.77 331.546 335.794C331.196 335.816 330.846 335.838 330.496 335.859C330.368 335.867 330.241 335.875 330.114 335.883C329.942 335.894 329.77 335.905 329.598 335.915L329.446 335.925C329.105 335.946 329.105 335.946 328.98 335.883L329.036 297.719ZM484.33 309.168H506.162V316.071H491.065L491.009 317.306C490.988 317.651 490.967 317.997 490.944 318.342L490.926 318.62C490.913 318.811 490.9 319.003 490.888 319.194C490.872 319.438 490.856 319.682 490.84 319.926C490.827 320.116 490.815 320.306 490.802 320.496L490.784 320.766C490.756 321.204 490.726 321.641 490.672 322.077C490.718 322.064 490.764 322.051 490.811 322.037C491.338 321.897 491.868 321.794 492.405 321.701C492.509 321.683 492.509 321.683 492.615 321.665C493.227 321.561 493.819 321.506 494.44 321.504L494.635 321.503C494.771 321.503 494.907 321.502 495.043 321.502C495.246 321.501 495.449 321.5 495.653 321.498C496.802 321.493 497.93 321.592 499.056 321.831L499.259 321.874C501.361 322.34 503.185 323.25 504.759 324.714L504.883 324.827C506.802 326.646 507.66 329.473 507.743 332.047C507.773 333.182 507.764 334.313 507.565 335.434L507.537 335.597C507.028 338.414 505.485 341.095 503.129 342.767C501.244 344.064 499.112 344.841 496.846 345.143L496.626 345.174C495.883 345.268 495.142 345.275 494.394 345.273C494.185 345.273 493.976 345.275 493.767 345.276C492.528 345.279 491.296 345.183 490.079 344.937L489.862 344.893C487.392 344.388 485.051 343.294 483.039 341.776L482.948 341.708C482.232 341.172 481.561 340.589 480.907 339.98C481.068 339.727 481.246 339.501 481.443 339.275L481.623 339.067L481.715 338.961C481.852 338.802 481.988 338.642 482.124 338.482L482.201 338.391C482.36 338.203 482.516 338.014 482.671 337.823C482.893 337.55 483.121 337.283 483.351 337.016C483.564 336.768 483.772 336.517 483.978 336.263C484.196 335.997 484.42 335.735 484.643 335.473C484.779 335.311 484.916 335.15 485.053 334.989L485.128 334.9C485.293 334.705 485.457 334.508 485.621 334.312C485.848 334.405 486.015 334.564 486.196 334.725C488.21 336.481 490.799 338.067 493.548 338.083L493.678 338.084C493.769 338.085 493.86 338.085 493.951 338.085C494.086 338.086 494.222 338.088 494.357 338.089C495.991 338.101 497.61 337.649 498.824 336.511C499.559 335.742 499.948 334.636 499.989 333.582L499.997 333.423C500.036 332.142 499.675 330.955 498.796 330.004C498.152 329.406 497.36 329 496.527 328.741L496.401 328.701C495.526 328.446 494.634 328.388 493.727 328.394L493.572 328.395C492.719 328.399 491.9 328.456 491.065 328.643L490.903 328.679C489.954 328.893 488.973 329.175 488.09 329.588C487.908 329.659 487.874 329.66 487.698 329.597C487.585 329.534 487.585 329.534 487.464 329.454L487.326 329.363L487.177 329.263L487.02 329.16C486.854 329.05 486.688 328.939 486.522 328.829L486.199 328.614C485.566 328.195 484.933 327.774 484.302 327.352C484.03 327.171 483.759 326.991 483.487 326.811C483.376 326.735 483.376 326.735 483.32 326.679C483.298 326.178 483.326 325.676 483.356 325.176L483.367 324.971C483.378 324.786 483.389 324.601 483.4 324.416C483.412 324.215 483.423 324.014 483.435 323.814C483.457 323.422 483.48 323.03 483.503 322.638C483.521 322.319 483.54 322.001 483.558 321.682L483.566 321.545L483.582 321.268C483.632 320.404 483.683 319.54 483.733 318.676C483.776 317.935 483.819 317.194 483.862 316.453C483.917 315.499 483.973 314.545 484.028 313.592L484.036 313.455C484.055 313.137 484.073 312.818 484.091 312.5C484.114 312.112 484.136 311.725 484.159 311.337C484.171 311.139 484.182 310.942 484.193 310.744C484.206 310.53 484.218 310.316 484.231 310.102L484.242 309.912L484.252 309.738L484.261 309.588C484.274 309.449 484.274 309.449 484.33 309.168ZM308.888 294.744H317.25V312.928H324.209V320.056H317.25V345.256H308.888V294.744ZM362.43 294.744H370.792V345.256H362.43V294.744ZM513.795 336.557H522.101V344.694H513.795V336.557Z" fill="white"/>
</g>
<defs>
<clipPath id="clip0_2_291">
<rect width="472" height="50.5113" fill="white" transform="translate(84 294.744)"/>
</clipPath>
</defs>
</svg>
