<svg width="640" height="640" viewBox="0 0 640 640" fill="none" xmlns="http://www.w3.org/2000/svg">
<rect width="640" height="640" fill="#FEB407"/>
<g filter="url(#filter0_f_2_339)">
<path d="M187.356 369.231C214.546 369.231 236.588 347.189 236.588 319.999C236.588 292.809 214.546 270.767 187.356 270.767C160.166 270.767 138.124 292.809 138.124 319.999C138.124 347.189 160.166 369.231 187.356 369.231Z" fill="#FCCF34"/>
</g>
<g filter="url(#filter1_f_2_339)">
<path d="M187.485 362.84C211.017 362.84 230.094 343.763 230.094 320.231C230.094 296.699 211.017 277.623 187.485 277.623C163.953 277.623 144.877 296.699 144.877 320.231C144.877 343.763 163.953 362.84 187.485 362.84Z" fill="#F6B523"/>
</g>
<g filter="url(#filter2_f_2_339)">
<path d="M187.88 356.051C207.655 356.051 223.685 340.02 223.685 320.246C223.685 300.471 207.655 284.441 187.88 284.441C168.106 284.441 152.075 300.471 152.075 320.246C152.075 340.02 168.106 356.051 187.88 356.051Z" fill="#F0A61B"/>
</g>
<path d="M187.71 349.534C203.727 349.534 216.711 336.55 216.711 320.533C216.711 304.516 203.727 291.531 187.71 291.531C171.692 291.531 158.708 304.516 158.708 320.533C158.708 336.55 171.692 349.534 187.71 349.534Z" fill="#E98B0D"/>
<path d="M177.24 331.402C176.847 331.346 176.466 331.227 176.112 331.05C175.488 330.746 174.963 330.273 174.594 329.686C174.226 329.098 174.029 328.419 174.026 327.726C174.026 326.049 175.186 324.562 176.834 324.125C177.32 323.996 178.149 323.998 178.632 324.128C179.902 324.468 180.863 325.384 181.28 326.652C181.389 326.983 181.396 327.046 181.396 327.727C181.396 328.407 181.389 328.469 181.28 328.8C180.773 330.339 179.458 331.355 177.888 331.422C177.672 331.432 177.455 331.425 177.24 331.402ZM178.507 330.909C179.463 330.679 180.222 330.073 180.671 329.184C180.907 328.714 180.985 328.352 180.984 327.726C180.984 327.067 180.925 326.809 180.654 326.26C180.293 325.53 179.669 324.965 178.908 324.677C178.146 324.389 177.304 324.4 176.551 324.709C175.324 325.214 174.556 326.375 174.556 327.726C174.556 329.089 175.342 330.266 176.591 330.77C177.16 331 177.906 331.054 178.508 330.909H178.507ZM196.156 324.473C196.684 324.466 197.548 324.466 198.076 324.473C198.605 324.48 198.173 324.485 197.116 324.485C196.06 324.485 195.628 324.479 196.156 324.473Z" fill="white"/>
<path d="M177.097 330.928C175.908 330.669 174.96 329.744 174.642 328.531C174.522 328.075 174.522 327.378 174.642 326.92C175.177 324.875 177.415 323.868 179.27 324.837C180.043 325.242 180.674 326.035 180.909 326.9C181.022 327.314 181.013 328.184 180.891 328.606C180.743 329.149 180.454 329.644 180.055 330.041C179.424 330.671 178.646 330.992 177.763 330.986C177.54 330.985 177.317 330.965 177.097 330.928ZM178.636 330.353C179.496 330.077 180.213 329.317 180.451 328.428C180.546 328.071 180.546 327.422 180.451 327.065C180.328 326.619 180.098 326.211 179.78 325.875C179.462 325.54 179.066 325.288 178.627 325.141C178.303 325.035 178.199 325.02 177.763 325.02C177.218 325.02 176.914 325.094 176.459 325.336C174.954 326.135 174.555 328.139 175.633 329.49C175.966 329.908 176.617 330.307 177.167 330.432C177.567 330.523 178.214 330.488 178.636 330.353ZM196.638 329.729C196.638 329.139 196.644 328.903 196.651 329.206C196.658 329.508 196.658 329.991 196.651 330.279C196.644 330.568 196.638 330.32 196.638 329.729ZM170.161 327.292C170.161 325.725 170.167 325.09 170.173 325.881C170.18 326.672 170.18 327.954 170.173 328.731C170.166 329.507 170.161 328.86 170.161 327.292ZM196.637 326.59C196.637 326.113 196.644 325.924 196.651 326.169C196.658 326.414 196.658 326.805 196.651 327.037C196.643 327.268 196.637 327.067 196.637 326.59Z" fill="white"/>
<path d="M184.414 330.717C184.355 330.583 183.753 329.237 183.075 327.726L181.738 324.741L181.633 324.502L183.082 324.525L183.784 326.156C184.171 327.054 184.501 327.803 184.518 327.82C184.535 327.839 184.876 327.104 185.276 326.189L186.004 324.525L187.452 324.502L187.375 324.679C187.228 325.02 184.552 330.928 184.537 330.944C184.529 330.953 184.473 330.851 184.415 330.717L184.414 330.717ZM170.16 330.297C170.175 330.008 170.187 328.576 170.187 327.117V324.464H171.551V329.544H173.822V330.824H170.133L170.16 330.297ZM188.033 327.665V324.504H191.998V325.702H189.437V327.272H190.631C191.288 327.272 191.855 327.283 191.891 327.297C191.946 327.318 191.957 327.411 191.957 327.896V328.47H189.437V329.667L192.083 329.613L192.06 330.804L188.032 330.825L188.033 327.665ZM199.846 327.573C199.846 324.821 199.855 324.331 199.902 324.382C199.934 324.415 200.569 325.157 201.313 326.032C201.785 326.59 202.26 327.146 202.737 327.699C202.807 327.772 202.867 327.709 204.287 326.078C205.099 325.144 205.77 324.381 205.779 324.381C205.787 324.381 205.794 325.821 205.794 327.582V330.783H204.474L204.463 329.278L204.452 327.773L203.692 328.637C203.421 328.949 203.145 329.257 202.865 329.561C202.805 329.616 202.714 329.525 201.952 328.652L201.106 327.682L201.095 329.254L201.084 330.824H199.846V327.573ZM195.22 327.643V324.504H199.02V325.701L196.645 325.723V327.458L198.896 327.479V328.677H196.624V330.783H195.22V327.643ZM177.171 330.432C176.621 330.307 175.971 329.908 175.637 329.49C174.56 328.139 174.958 326.134 176.463 325.336C176.918 325.094 177.222 325.021 177.767 325.02C178.204 325.02 178.307 325.035 178.632 325.141C179.07 325.287 179.466 325.539 179.784 325.875C180.102 326.211 180.332 326.619 180.455 327.065C180.55 327.422 180.55 328.071 180.455 328.428C180.217 329.317 179.5 330.077 178.64 330.353C178.218 330.488 177.572 330.523 177.171 330.432ZM178.465 329.91C178.83 329.788 179.157 329.575 179.417 329.291C180.267 328.373 180.234 327.013 179.342 326.136C178.871 325.673 178.407 325.483 177.747 325.483C177.095 325.483 176.617 325.678 176.151 326.136C175.576 326.7 175.337 327.507 175.516 328.269C175.718 329.121 176.481 329.841 177.348 329.997C177.648 330.05 178.167 330.01 178.465 329.91Z" fill="white"/>
<path fill-rule="evenodd" clip-rule="evenodd" d="M194.14 315.966C194.14 314.06 193.075 312.222 190.942 311.493C192.556 310.999 193.394 309.813 193.394 308.145C193.394 307.025 192.863 306.089 192.031 305.478C190.835 304.654 189.043 304.718 189.043 304.718L189.041 304.715H182.011L182.014 320.574H189.492C190.123 320.545 191.456 320.372 192.535 319.492C193.492 318.648 194.139 317.387 194.139 315.966H194.14ZM185.816 306.527H187.503C187.759 306.527 189.524 306.529 189.67 308.245C189.775 309.475 188.937 310.244 187.584 310.244H185.815L185.816 306.527ZM187.843 316.928H185.816V312.703H187.763C188.019 312.703 189.987 312.705 190.133 314.656C190.237 316.054 189.196 316.928 187.843 316.928ZM203.63 312.194L199.868 308.738C199.734 308.622 199.627 308.478 199.553 308.317C199.479 308.156 199.441 307.981 199.44 307.804C199.44 307.085 200.06 306.499 200.822 306.499H204.985V304.697H198.617C196.641 304.697 194.998 306.028 194.998 308.112C194.998 309.002 195.359 309.813 195.951 310.42L200.385 314.604C200.385 314.604 201.134 315.145 200.874 316.035C200.615 316.926 199.482 316.926 199.057 316.926H194.999V320.577H201.158C203.649 320.577 205.669 318.672 205.669 316.322V316.288C205.738 314.532 204.793 313.271 203.631 312.194M178.764 312.194L175 308.738C174.867 308.621 174.76 308.478 174.686 308.317C174.613 308.156 174.574 307.981 174.574 307.804C174.574 307.085 175.192 306.499 175.954 306.499H180.117V304.697H173.749C171.773 304.697 170.131 306.028 170.131 308.112C170.131 309.002 170.491 309.813 171.083 310.42L175.519 314.604C175.519 314.604 176.266 315.145 176.007 316.035C175.748 316.926 174.615 316.926 174.19 316.926H170.131V320.577H176.29C178.781 320.577 180.8 318.672 180.8 316.322V316.288C180.869 314.532 179.925 313.271 178.763 312.194M197.116 334.365H193.766L193.174 337.68H194.272C194.511 337.347 194.751 337.201 195.188 337.201C195.839 337.201 196.225 337.697 196.225 338.323C196.225 338.922 195.822 339.48 195.188 339.48C194.649 339.48 194.263 339.119 194.203 338.58H192.987C193.013 339.839 194.049 340.482 195.214 340.482C196.414 340.508 197.442 339.557 197.442 338.323C197.442 337.201 196.773 336.284 195.591 336.284C195.111 336.284 194.751 336.413 194.417 336.747L194.4 336.73L194.64 335.367H197.116V334.365ZM190.965 340.362H192.31V339.042H190.965V340.362ZM187.641 337.646C188.232 337.646 189.028 337.629 189.028 338.537C189.028 339.111 188.6 339.48 188.052 339.48C187.349 339.48 187.024 338.948 186.998 338.297H185.841C185.816 339.676 186.723 340.482 188.069 340.482C189.234 340.482 190.297 339.771 190.297 338.512C190.297 337.835 189.894 337.295 189.234 337.149V337.132C189.791 336.969 190.073 336.481 190.073 335.907C190.073 334.836 189.02 334.244 188.06 334.244C186.818 334.244 186.03 335.085 185.987 336.318H187.143C187.135 335.701 187.452 335.247 188.069 335.247C188.514 335.247 188.917 335.53 188.917 336.044C188.917 336.729 188.163 336.832 187.641 336.79V337.646ZM182.32 337.338C182.32 336.712 182.311 335.247 183.297 335.247C184.291 335.247 184.291 336.712 184.291 337.338C184.291 338.014 184.291 339.48 183.297 339.48C182.32 339.48 182.32 338.014 182.32 337.338ZM181.104 337.338C181.104 339.728 182.106 340.482 183.297 340.482C184.496 340.482 185.508 339.728 185.508 337.338C185.508 334.999 184.496 334.245 183.297 334.245C182.106 334.245 181.104 334.999 181.104 337.338ZM180.226 334.365H179.257C179.12 335.281 178.349 335.581 177.501 335.555V336.473H179.009V340.362H180.226V334.365ZM177.166 330.433C176.616 330.308 175.965 329.909 175.632 329.49C174.554 328.14 174.953 326.135 176.458 325.336C176.912 325.095 177.217 325.021 177.762 325.021C178.199 325.021 178.302 325.035 178.626 325.142C179.065 325.288 179.46 325.54 179.778 325.875C180.096 326.211 180.327 326.62 180.449 327.066C180.545 327.423 180.545 328.071 180.449 328.429C180.212 329.317 179.495 330.078 178.635 330.354C178.213 330.488 177.566 330.524 177.165 330.433H177.166ZM178.459 329.911C178.824 329.788 179.152 329.575 179.412 329.292C180.262 328.373 180.229 327.014 179.337 326.136C178.866 325.674 178.402 325.483 177.742 325.483C177.09 325.483 176.612 325.679 176.146 326.136C175.571 326.701 175.331 327.507 175.511 328.27C175.712 329.121 176.476 329.841 177.342 329.997C177.642 330.051 178.162 330.011 178.459 329.911ZM184.409 330.718C184.35 330.584 183.748 329.237 183.07 327.727C182.393 326.216 181.791 324.872 181.733 324.741L181.628 324.503L183.076 324.525L183.779 326.157C184.165 327.055 184.496 327.803 184.513 327.821C184.529 327.838 184.871 327.104 185.271 326.189L185.999 324.525L187.447 324.503L187.37 324.68C187.223 325.02 184.547 330.928 184.531 330.945C184.523 330.954 184.468 330.852 184.409 330.718ZM170.154 330.298C170.169 330.008 170.182 328.577 170.182 327.117V324.463H171.545V329.544H173.817V330.824H170.128L170.154 330.298ZM188.027 327.665V324.505H191.992V325.702H189.431V327.272H190.626C191.282 327.272 191.85 327.283 191.885 327.298C191.941 327.318 191.951 327.411 191.951 327.896V328.47H189.431V329.667L192.077 329.613L192.054 330.803L188.026 330.825L188.027 327.665ZM199.84 327.573C199.84 324.821 199.849 324.331 199.897 324.382C199.928 324.416 200.563 325.158 201.307 326.033C201.78 326.591 202.254 327.146 202.732 327.7C202.801 327.772 202.862 327.709 204.281 326.078C205.093 325.144 205.765 324.381 205.774 324.381C205.782 324.381 205.789 325.821 205.789 327.582V330.784H204.468L204.457 329.279L204.446 327.773L203.686 328.637C203.415 328.949 203.14 329.257 202.86 329.562C202.8 329.616 202.709 329.526 201.947 328.652L201.1 327.683L201.09 329.254L201.079 330.824H199.84V327.573ZM195.214 327.644V324.505H199.015V325.701L196.639 325.723V327.458L198.891 327.48V328.677H196.618V330.784H195.214V327.644ZM177.095 330.928C175.907 330.67 174.959 329.745 174.641 328.532C174.521 328.075 174.521 327.379 174.641 326.921C175.176 324.876 177.414 323.869 179.268 324.837C180.042 325.242 180.673 326.035 180.908 326.9C181.021 327.315 181.012 328.184 180.89 328.606C180.742 329.15 180.453 329.644 180.053 330.041C179.423 330.671 178.644 330.992 177.762 330.986C177.539 330.985 177.316 330.966 177.095 330.928ZM178.635 330.354C179.495 330.078 180.212 329.318 180.449 328.429C180.545 328.072 180.545 327.423 180.449 327.066C180.327 326.62 180.096 326.211 179.778 325.875C179.46 325.54 179.065 325.288 178.626 325.142C178.302 325.035 178.199 325.021 177.762 325.021C177.217 325.021 176.912 325.095 176.458 325.336C174.953 326.135 174.554 328.14 175.632 329.49C175.965 329.909 176.616 330.308 177.166 330.433C177.566 330.524 178.212 330.489 178.635 330.354ZM196.637 329.73C196.637 329.139 196.644 328.903 196.65 329.206C196.657 329.508 196.657 329.992 196.65 330.279C196.644 330.568 196.637 330.32 196.637 329.73ZM170.161 327.293C170.161 325.725 170.166 325.09 170.172 325.881C170.178 326.672 170.178 327.955 170.172 328.732C170.165 329.507 170.161 328.861 170.161 327.293ZM196.637 326.591C196.637 326.114 196.643 325.924 196.65 326.169C196.657 326.415 196.657 326.805 196.65 327.037C196.643 327.268 196.637 327.068 196.637 326.591ZM177.238 331.403C176.845 331.347 176.464 331.228 176.109 331.051C175.486 330.747 174.961 330.274 174.592 329.687C174.224 329.099 174.027 328.42 174.024 327.727C174.024 326.05 175.184 324.562 176.833 324.126C177.318 323.997 178.146 323.999 178.629 324.128C179.9 324.469 180.861 325.384 181.278 326.653C181.387 326.983 181.394 327.046 181.394 327.727C181.394 328.408 181.387 328.47 181.278 328.8C180.771 330.339 179.456 331.356 177.886 331.422C177.67 331.432 177.453 331.426 177.238 331.403ZM178.506 330.909C179.461 330.679 180.221 330.073 180.668 329.185C180.905 328.714 180.983 328.353 180.982 327.727C180.982 327.068 180.924 326.81 180.652 326.26C180.291 325.531 179.667 324.965 178.906 324.677C178.145 324.389 177.303 324.401 176.55 324.709C175.322 325.214 174.554 326.376 174.554 327.727C174.554 329.09 175.34 330.267 176.588 330.771C177.158 331.001 177.904 331.055 178.506 330.909ZM196.154 324.473C196.682 324.467 197.547 324.467 198.075 324.473C198.604 324.48 198.171 324.486 197.115 324.486C196.058 324.486 195.626 324.48 196.154 324.473Z" fill="white"/>
<path d="M476.585 276.768C476.057 277.053 475.957 284.803 475.957 318.574V361.135H492.165L492.307 340.571L492.448 320.007L503.524 332.7C513.503 344.135 514.688 345.314 515.476 344.6C515.957 344.165 520.827 338.721 526.298 332.502L536.244 321.196L536.387 340.895L536.528 360.595H553.817V318.692C553.817 295.644 553.725 276.789 553.614 276.789C553.502 276.789 544.711 286.787 534.078 299.007C515.503 320.353 514.709 321.185 513.804 320.229C513.286 319.682 504.891 309.866 495.148 298.416C485.405 286.967 477.101 277.242 476.694 276.808C476.655 276.766 476.618 276.753 476.583 276.771L476.585 276.768ZM87.739 277.868L87.7369 312.607C87.7358 331.714 87.5767 350.449 87.3832 354.24L87.0312 361.133H135.319V344.372H105.581V277.868H96.6593H87.739ZM237.56 278.384L238.94 281.505C239.699 283.222 247.573 300.807 256.438 320.582C265.303 340.357 273.19 357.974 273.965 359.729V359.73C274.74 361.485 275.462 362.824 275.57 362.703C275.763 362.488 310.795 285.161 312.725 280.693L313.722 278.383L294.769 278.678L285.247 300.46C280.009 312.441 275.543 322.052 275.322 321.818C275.101 321.584 270.779 311.782 265.719 300.036L256.517 278.678L247.039 278.53L237.56 278.384ZM321.32 278.408V361.145L374.038 360.865L374.189 353.072L374.339 345.279L357.022 345.633L339.704 345.986V330.315H372.686V322.804C372.686 316.452 372.554 315.241 371.831 314.963C371.36 314.783 363.939 314.635 355.34 314.635H339.704V294.09H373.226V278.41H347.273L321.32 278.408ZM415.401 278.408V360.593H433.785V333.018H463.524V317.355L448.79 317.211L434.056 317.067V294.358L465.146 294.071V278.407H440.275L415.401 278.408Z" fill="white"/>
<g filter="url(#filter3_f_2_339)">
<path d="M440.278 277.934C435.721 277.934 431.164 277.955 427.707 277.998C420.793 278.083 426.45 278.153 440.278 278.153C454.107 278.153 459.764 278.084 452.849 277.998C449.392 277.955 444.835 277.934 440.278 277.934ZM230.375 339.558L230.38 339.684C230.434 339.66 230.488 339.634 230.543 339.611C230.489 339.595 230.43 339.575 230.375 339.558Z" fill="#FCCF34"/>
</g>
<g filter="url(#filter4_f_2_339)">
<path d="M87.5485 292.053C87.4948 290.985 87.457 299.51 87.457 314.899C87.457 335.418 87.5244 343.891 87.6064 333.728C87.6887 323.564 87.6887 306.776 87.6064 296.42C87.5859 293.831 87.5663 292.409 87.5485 292.053V292.053ZM434.111 298.792C434.057 298.9 434.019 301.414 434.019 305.708C434.019 311.953 434.097 314.582 434.194 311.55C434.289 308.518 434.29 303.408 434.194 300.195C434.164 299.191 434.135 298.743 434.111 298.792H434.111ZM434.129 338.254C434.069 337.816 434.026 341.002 434.026 346.801C434.026 354.533 434.102 357.771 434.194 353.997C434.287 350.223 434.287 343.897 434.194 339.939C434.171 338.95 434.149 338.401 434.129 338.254L434.129 338.254Z" fill="#F6B523"/>
</g>
<defs>
<filter id="filter0_f_2_339" x="130.565" y="263.208" width="113.583" height="113.582" filterUnits="userSpaceOnUse" color-interpolation-filters="sRGB">
<feFlood flood-opacity="0" result="BackgroundImageFix"/>
<feBlend mode="normal" in="SourceGraphic" in2="BackgroundImageFix" result="shape"/>
<feGaussianBlur stdDeviation="3.77953" result="effect1_foregroundBlur_2_339"/>
</filter>
<filter id="filter1_f_2_339" x="134.294" y="267.04" width="106.382" height="106.382" filterUnits="userSpaceOnUse" color-interpolation-filters="sRGB">
<feFlood flood-opacity="0" result="BackgroundImageFix"/>
<feBlend mode="normal" in="SourceGraphic" in2="BackgroundImageFix" result="shape"/>
<feGaussianBlur stdDeviation="5.29134" result="effect1_foregroundBlur_2_339"/>
</filter>
<filter id="filter2_f_2_339" x="147.526" y="279.892" width="80.7085" height="80.708" filterUnits="userSpaceOnUse" color-interpolation-filters="sRGB">
<feFlood flood-opacity="0" result="BackgroundImageFix"/>
<feBlend mode="normal" in="SourceGraphic" in2="BackgroundImageFix" result="shape"/>
<feGaussianBlur stdDeviation="2.27453" result="effect1_foregroundBlur_2_339"/>
</filter>
<filter id="filter3_f_2_339" x="214.375" y="261.934" width="257.425" height="93.7496" filterUnits="userSpaceOnUse" color-interpolation-filters="sRGB">
<feFlood flood-opacity="0" result="BackgroundImageFix"/>
<feBlend mode="normal" in="SourceGraphic" in2="BackgroundImageFix" result="shape"/>
<feGaussianBlur stdDeviation="7.9999" result="effect1_foregroundBlur_2_339"/>
</filter>
<filter id="filter4_f_2_339" x="71.4572" y="275.964" width="378.808" height="95.61" filterUnits="userSpaceOnUse" color-interpolation-filters="sRGB">
<feFlood flood-opacity="0" result="BackgroundImageFix"/>
<feBlend mode="normal" in="SourceGraphic" in2="BackgroundImageFix" result="shape"/>
<feGaussianBlur stdDeviation="7.9999" result="effect1_foregroundBlur_2_339"/>
</filter>
</defs>
</svg>
