<svg width="640" height="640" viewBox="0 0 640 640" fill="none" xmlns="http://www.w3.org/2000/svg">
<rect width="640" height="640" fill="#11257B"/>
<path d="M263.188 286.747L262.78 287.206C262.556 287.458 259.534 294.834 256.067 303.594C252.599 312.355 249.466 320.105 249.107 320.817L248.451 322.111L247.863 321.058C247.538 320.479 245.419 315.017 243.154 308.919C241.215 303.697 239.273 298.477 237.327 293.257L235.619 288.682H221.503V289.134C221.503 289.867 246.679 352.011 247.206 352.578L247.687 353.097L255.07 335.125C259.131 325.24 262.637 317.153 262.863 317.153C263.088 317.153 266.587 325.452 270.639 335.595C274.691 345.738 278.112 353.745 278.242 353.388C278.371 353.03 284.366 338.402 291.564 320.881L304.651 289.023L297.556 288.831C293.655 288.724 290.325 288.774 290.158 288.942C289.99 289.109 287.25 296.364 284.069 305.063C280.888 313.763 278.076 321.111 277.819 321.391L277.352 321.902L270.271 304.326L263.188 286.747ZM359.778 288.571V351.669L366.386 351.863C370.021 351.969 373.224 351.962 373.503 351.847L374.012 351.637V329.495L375.952 328.75L393.141 351.718H408.659L408.137 350.871C407.85 350.405 404.075 345.448 399.748 339.856C395.421 334.264 391.673 329.337 391.419 328.906L390.956 328.124L394.144 326.256C399.658 323.024 402.682 318.921 404.505 312.196C404.971 308.617 405.012 308.562 404.532 305.079C403.144 298.834 399.792 293.783 393.667 290.657L390.618 289.1L375.197 288.835L359.778 288.571ZM310.976 288.682V351.717H350.966V339.516H325.21V328.671H349.611V316.471H325.21V300.881H350.287V288.681H330.631L310.976 288.682ZM374.011 300.205H382.955C392.706 304.451 392.859 314.847 382.955 318.505H374.011V309.355V300.205ZM94.5967 288.592V352.393H108.83V330.704H116.667C126.045 330.704 130.074 329.23 134.525 324.172C141.565 316.175 141.206 301.48 133.793 294.179C128.871 289.333 127.844 289.097 110.355 288.83L94.5967 288.592ZM108.83 300.026L113.827 300.346C118.783 300.665 119.574 301.003 122.747 304.155C127.073 308.455 124.478 316.738 118.244 318.526C116.986 318.887 114.353 319.182 112.393 319.182H108.83V309.604V300.026ZM545.406 286.603L542.526 289.867C540.942 291.663 534.339 299.309 527.854 306.858C521.369 314.408 515.727 320.475 515.315 320.341C514.903 320.206 508.466 313.04 501.01 304.417C493.554 295.795 487.073 288.36 486.606 287.897L485.759 287.055V351.717H498.637V322.571H499.572C500.085 322.571 503.753 326.383 507.721 331.043C511.689 335.703 515.197 339.516 515.516 339.516C515.834 339.516 519.342 335.703 523.31 331.043C527.278 326.383 530.823 322.571 531.187 322.571H531.849V351.717H545.405V319.16L545.406 286.603ZM438.992 288.682V351.717H453.903V330.704H476.271V318.504H453.903V300.881H476.949V288.68H457.97L438.992 288.682ZM248.768 351.664C248.805 351.739 249.141 352.561 249.153 352.574C249.183 352.605 249.39 352.191 249.499 352.026C249.256 351.904 249.012 351.785 248.768 351.664Z" fill="white"/>
<path d="M184.147 357.828C205.133 357.828 222.146 340.815 222.146 319.829C222.146 298.842 205.133 281.829 184.147 281.829C163.16 281.829 146.147 298.842 146.147 319.829C146.147 340.815 163.16 357.828 184.147 357.828Z" fill="#4EDEDE"/>
<path d="M184.246 352.894C202.409 352.894 217.133 338.17 217.133 320.008C217.133 301.845 202.409 287.121 184.246 287.121C166.083 287.121 151.359 301.845 151.359 320.008C151.359 338.17 166.083 352.894 184.246 352.894Z" fill="#3CABC3"/>
<path d="M184.552 347.655C199.815 347.655 212.188 335.282 212.188 320.019C212.188 304.756 199.815 292.383 184.552 292.383C169.289 292.383 156.916 304.756 156.916 320.019C156.916 335.282 169.289 347.655 184.552 347.655Z" fill="#266FA2"/>
<path d="M184.42 342.625C196.782 342.625 206.804 332.603 206.804 320.24C206.804 307.877 196.782 297.855 184.42 297.855C172.057 297.855 162.035 307.877 162.035 320.24C162.035 332.603 172.057 342.625 184.42 342.625Z" fill="#0F2571"/>
<g filter="url(#filter0_f_2_343)">
<path d="M184.147 357.828C205.133 357.828 222.146 340.815 222.146 319.829C222.146 298.842 205.133 281.829 184.147 281.829C163.16 281.829 146.147 298.842 146.147 319.829C146.147 340.815 163.16 357.828 184.147 357.828Z" fill="#4EDEDE"/>
</g>
<g filter="url(#filter1_f_2_343)">
<path d="M184.246 352.894C202.409 352.894 217.133 338.17 217.133 320.008C217.133 301.845 202.409 287.121 184.246 287.121C166.083 287.121 151.359 301.845 151.359 320.008C151.359 338.17 166.083 352.894 184.246 352.894Z" fill="#3CABC3"/>
</g>
<g filter="url(#filter2_f_2_343)">
<path d="M184.551 347.655C199.814 347.655 212.187 335.282 212.187 320.019C212.187 304.756 199.814 292.383 184.551 292.383C169.288 292.383 156.915 304.756 156.915 320.019C156.915 335.282 169.288 347.655 184.551 347.655Z" fill="#266FA2"/>
</g>
<path d="M184.42 342.625C196.782 342.625 206.804 332.603 206.804 320.24C206.804 307.877 196.782 297.855 184.42 297.855C172.057 297.855 162.035 307.877 162.035 320.24C162.035 332.603 172.057 342.625 184.42 342.625Z" fill="#0F2571"/>
<path fill-rule="evenodd" clip-rule="evenodd" d="M189.28 316.105C189.28 314.633 188.458 313.215 186.812 312.652C188.058 312.27 188.704 311.355 188.704 310.067C188.704 309.204 188.295 308.481 187.653 308.01C186.73 307.374 185.347 307.423 185.347 307.423L185.345 307.42H179.92L179.922 319.661H185.694C186.18 319.639 187.209 319.505 188.041 318.826C188.78 318.175 189.28 317.202 189.28 316.105ZM182.855 308.819H184.158C184.356 308.819 185.717 308.82 185.83 310.145C185.911 311.095 185.264 311.689 184.22 311.689H182.855V308.819ZM184.42 316.847H182.855V313.586H184.359C184.556 313.586 186.075 313.587 186.188 315.093C186.268 316.172 185.465 316.847 184.421 316.847L184.42 316.847ZM196.606 313.193L193.701 310.525C193.598 310.436 193.515 310.325 193.459 310.201C193.402 310.077 193.372 309.942 193.372 309.805C193.372 309.249 193.849 308.797 194.437 308.797H197.651V307.407H192.736C191.211 307.407 189.943 308.434 189.943 310.042C189.943 310.729 190.221 311.355 190.678 311.824L194.101 315.053C194.101 315.053 194.678 315.471 194.478 316.158C194.278 316.846 193.403 316.846 193.076 316.846H189.943V319.663H194.697C196.62 319.663 198.179 318.193 198.179 316.379V316.353C198.232 314.998 197.503 314.024 196.606 313.193ZM177.413 313.193L174.507 310.525C174.404 310.436 174.322 310.325 174.265 310.201C174.208 310.076 174.179 309.942 174.178 309.805C174.178 309.249 174.655 308.797 175.243 308.797H178.458V307.407H173.542C172.017 307.407 170.749 308.434 170.749 310.042C170.749 310.73 171.027 311.355 171.484 311.824L174.908 315.053C174.908 315.053 175.484 315.471 175.284 316.158C175.085 316.846 174.21 316.846 173.882 316.846H170.749V319.663H175.503C177.426 319.663 178.984 318.193 178.984 316.379V316.353C179.037 314.998 178.309 314.024 177.412 313.193M178.99 327.83C178.897 327.608 177.203 323.413 177.127 323.217C177.082 323.099 177.083 323.099 177.616 323.099H178.151L178.602 324.341C178.896 325.151 179.079 325.589 179.131 325.599C179.19 325.61 179.341 325.288 179.718 324.344C179.997 323.645 180.243 323.055 180.264 323.033C180.285 323.011 180.536 323.581 180.822 324.301C181.177 325.195 181.366 325.608 181.42 325.609C181.474 325.609 181.641 325.228 181.969 324.355L182.44 323.1L183.461 323.099L183.378 323.295C183.333 323.403 182.883 324.503 182.379 325.74C181.875 326.977 181.454 327.996 181.447 328.005C181.439 328.013 181.185 327.402 180.883 326.647C180.581 325.892 180.311 325.266 180.283 325.257C180.256 325.248 179.99 325.835 179.694 326.562C179.506 327.03 179.313 327.496 179.116 327.96C179.087 328.015 179.053 327.98 178.99 327.83ZM167.403 325.474V323.037L168.436 323.059C169.343 323.079 169.509 323.096 169.796 323.2C170.497 323.453 170.794 323.963 170.734 324.81C170.699 325.316 170.556 325.61 170.209 325.892C169.909 326.137 169.556 326.245 168.959 326.276L168.45 326.303V327.91H167.403V325.474ZM169.284 325.358C169.746 325.131 169.847 324.495 169.483 324.106C169.385 324.001 169.322 323.988 168.911 323.988H168.449V325.452L168.777 325.45C168.974 325.448 169.175 325.412 169.284 325.358ZM184 327.196C184.019 326.803 184.034 325.709 184.034 324.764V323.047H186.963V323.934L185.054 323.962L185.039 324.576L185.025 325.191H186.911V326.078L185.054 326.106V326.995L187.015 327.023V327.91H183.966L184 327.196ZM187.747 325.505V323.099H188.81C190.015 323.099 190.252 323.143 190.637 323.437C190.998 323.713 191.109 323.929 191.137 324.415C191.17 324.983 191.084 325.26 190.778 325.565C190.644 325.699 190.437 325.859 190.317 325.92C190.199 325.98 190.102 326.047 190.102 326.068C190.102 326.089 190.363 326.435 190.682 326.838C190.913 327.128 191.14 327.42 191.364 327.715L191.468 327.858H190.276L189.633 326.992C189.196 326.403 188.963 326.132 188.905 326.143C188.831 326.158 188.818 326.275 188.806 327.035L188.791 327.91H187.748L187.747 325.505ZM189.702 325.328C189.981 325.211 190.101 325.014 190.101 324.674C190.101 324.478 190.069 324.332 190.005 324.236C189.833 323.975 189.742 323.939 189.251 323.937L188.793 323.936V324.633C188.793 325.016 188.809 325.346 188.829 325.365C188.892 325.428 189.526 325.401 189.702 325.328ZM193.71 325.479V323.047H196.639V323.936H194.808V325.348H196.534V326.237H194.808V327.91H193.71V325.479ZM200.874 326.758C200.874 325.386 200.918 325.415 200.191 326.301C200.019 326.513 199.845 326.723 199.671 326.933C199.65 326.957 199.368 326.667 199.045 326.29C198.665 325.848 198.425 325.61 198.371 325.62C198.296 325.635 198.284 325.771 198.271 326.747L198.258 327.858H197.373L197.359 325.988C197.351 324.96 197.356 323.878 197.37 323.582L197.396 323.045L197.746 323.451C197.937 323.674 198.137 323.905 198.19 323.963C198.242 324.02 198.564 324.391 198.904 324.785C199.244 325.18 199.542 325.515 199.565 325.53C199.588 325.544 200.11 324.987 200.724 324.292L201.842 323.029L201.868 323.6C201.883 323.914 201.886 325.013 201.875 326.041L201.856 327.91H200.874V326.758ZM188.814 327.047C188.814 326.559 188.822 326.351 188.832 326.588C188.842 326.823 188.842 327.223 188.832 327.477C188.822 327.73 188.814 327.536 188.814 327.047ZM197.342 327.847C197.328 327.81 197.323 326.956 197.331 325.949L197.346 324.119L197.358 325.988L197.37 327.858L198.258 327.858L198.271 326.747C198.284 325.729 198.293 325.636 198.378 325.629C198.441 325.623 198.445 325.628 198.392 325.645C198.326 325.665 198.311 325.846 198.3 326.777L198.285 327.885L197.827 327.899C197.489 327.91 197.362 327.897 197.342 327.847ZM201.891 326.315C201.891 325.423 201.898 325.052 201.907 325.489C201.915 325.925 201.916 326.655 201.907 327.11C201.898 327.564 201.891 327.207 201.891 326.315ZM174.506 327.247C174.543 327.232 174.589 327.234 174.606 327.251C174.623 327.269 174.593 327.281 174.538 327.279C174.477 327.276 174.464 327.264 174.506 327.247ZM185.049 326.951C185.035 326.913 185.029 326.706 185.038 326.494L185.054 326.106L186.937 326.102L185.08 326.134V326.967L187.041 326.998L186.059 327.009C185.277 327.019 185.071 327.007 185.049 326.951ZM184.005 325.008C184.005 323.915 184.012 323.46 184.021 323.998C184.029 324.535 184.029 325.429 184.021 325.985C184.012 326.541 184.005 326.101 184.005 325.008H184.005ZM175.483 326.76C175.535 326.702 175.589 326.655 175.604 326.655C175.618 326.655 175.588 326.702 175.535 326.76C175.483 326.818 175.429 326.865 175.415 326.865C175.4 326.865 175.431 326.818 175.483 326.76ZM195.668 326.251L196.529 326.235L196.547 325.804L196.565 325.374L196.559 326.263L194.807 326.267L195.668 326.251ZM172.437 325.505C172.437 325.375 172.448 325.322 172.46 325.387C172.473 325.452 172.473 325.558 172.46 325.622C172.448 325.687 172.437 325.634 172.437 325.505ZM168.591 325.415C168.684 325.403 168.849 325.403 168.957 325.415C169.066 325.426 168.99 325.436 168.789 325.436C168.587 325.436 168.498 325.426 168.591 325.415ZM188.816 325.332C188.801 325.294 188.797 324.959 188.806 324.586L188.822 323.91L188.833 324.626L188.845 325.343L189.603 325.379L189.223 325.39C188.95 325.397 188.834 325.381 188.816 325.332ZM185.05 324.576L185.054 323.962L186.958 323.933L186.977 323.503L186.994 323.073L186.989 323.962L185.082 323.99L185.048 325.191L185.05 324.576ZM191.162 324.563C191.162 324.405 191.172 324.34 191.184 324.419C191.196 324.515 191.196 324.612 191.184 324.707C191.172 324.786 191.162 324.721 191.162 324.563ZM175.478 324.237L175.378 324.119L175.496 324.218C175.606 324.312 175.638 324.354 175.596 324.354C175.585 324.354 175.533 324.301 175.478 324.237ZM201.858 323.544C201.848 323.241 201.859 322.994 201.88 322.994C201.902 322.994 201.92 323.241 201.92 323.544C201.92 323.845 201.909 324.093 201.897 324.093C201.884 324.093 201.867 323.845 201.858 323.544ZM197.337 323.517C197.337 323.215 197.346 323.092 197.356 323.243C197.367 323.394 197.367 323.641 197.356 323.792C197.346 323.943 197.337 323.819 197.337 323.517ZM195.236 323.949C195.55 323.939 195.864 323.939 196.177 323.949C196.445 323.958 196.24 323.966 195.722 323.966C195.205 323.966 194.986 323.959 195.236 323.949ZM200.978 323.968C200.978 323.958 201.019 323.916 201.07 323.877C201.153 323.812 201.154 323.814 201.089 323.896C201.021 323.984 200.978 324.011 200.978 323.968ZM188.23 323.06C188.57 323.05 188.91 323.05 189.25 323.06C189.531 323.069 189.301 323.077 188.74 323.077C188.179 323.077 187.95 323.069 188.23 323.06ZM194.427 323.007C194.924 322.999 195.421 322.999 195.918 323.007C196.328 323.016 195.993 323.023 195.173 323.023C194.353 323.023 194.017 323.016 194.427 323.007ZM173.736 327.566C173.09 327.393 172.596 326.975 172.302 326.353C172.151 326.035 172.135 325.955 172.135 325.505C172.135 325.055 172.151 324.974 172.302 324.656C172.619 323.986 173.192 323.538 173.898 323.408C174.833 323.236 175.763 323.718 176.198 324.601C176.361 324.932 176.371 324.986 176.371 325.505C176.371 326.019 176.361 326.078 176.203 326.398C176.056 326.698 175.843 326.962 175.58 327.168C175.316 327.375 175.01 327.519 174.683 327.59C174.324 327.666 174.085 327.659 173.736 327.566ZM174.993 327.117C175.376 326.935 175.685 326.627 175.867 326.245C175.983 325.998 176.005 325.876 176.005 325.504C176.005 325.133 175.983 325.012 175.867 324.765C175.687 324.393 175.393 324.09 175.027 323.899C174.781 323.769 174.695 323.753 174.254 323.753C173.661 323.753 173.403 323.849 173.007 324.22C172.296 324.885 172.258 325.968 172.919 326.699C173.299 327.121 173.707 327.288 174.306 327.268C174.599 327.257 174.773 327.219 174.993 327.117ZM167.374 325.479C167.374 324.126 167.381 323.566 167.389 324.233C167.397 324.9 167.397 326.006 167.389 326.691C167.381 327.376 167.374 326.83 167.374 325.479ZM187.033 327.466C187.033 327.207 187.041 327.094 187.052 327.216C187.063 327.337 187.064 327.549 187.053 327.687C187.042 327.824 187.033 327.725 187.033 327.466ZM193.68 325.479C193.68 324.126 193.687 323.566 193.695 324.233C193.703 324.9 193.703 326.006 193.695 326.691C193.687 327.376 193.68 326.83 193.68 325.479ZM186.928 325.636C186.928 325.377 186.937 325.264 186.948 325.386C186.959 325.506 186.959 325.719 186.948 325.856C186.938 325.994 186.928 325.894 186.928 325.636ZM173.878 327.613C173.915 327.598 173.961 327.6 173.977 327.617C173.995 327.635 173.964 327.647 173.909 327.645C173.848 327.642 173.836 327.63 173.878 327.613ZM174.558 327.613C174.595 327.598 174.64 327.6 174.657 327.617C174.675 327.635 174.644 327.647 174.589 327.645C174.528 327.642 174.516 327.63 174.558 327.613ZM175.561 327.211C175.561 327.2 175.603 327.158 175.652 327.119C175.735 327.054 175.737 327.056 175.672 327.139C175.604 327.226 175.561 327.254 175.561 327.211H175.561ZM172.708 327.008L172.554 326.838L172.724 326.992C172.882 327.135 172.918 327.178 172.877 327.178C172.868 327.178 172.792 327.102 172.708 327.008ZM175.823 326.949C175.823 326.939 175.864 326.897 175.914 326.858C175.997 326.793 175.999 326.795 175.934 326.877C175.866 326.965 175.823 326.992 175.823 326.949ZM176.412 325.505C176.412 325.375 176.422 325.322 176.435 325.387C176.447 325.452 176.447 325.558 176.435 325.622C176.423 325.687 176.412 325.634 176.412 325.505ZM172.113 325.108C172.116 325.047 172.128 325.034 172.145 325.076C172.16 325.114 172.158 325.159 172.141 325.177C172.124 325.194 172.111 325.162 172.113 325.108ZM175.92 324.158C175.855 324.075 175.857 324.073 175.94 324.138C175.991 324.178 176.032 324.219 176.032 324.23C176.032 324.273 175.989 324.246 175.92 324.158ZM172.58 324.129C172.58 324.12 172.657 324.043 172.75 323.958L172.92 323.805L172.766 323.975C172.623 324.133 172.58 324.169 172.58 324.129ZM175.607 323.844C175.542 323.761 175.544 323.759 175.626 323.824C175.713 323.893 175.741 323.936 175.698 323.936C175.688 323.936 175.646 323.894 175.607 323.844ZM173.878 323.377C173.915 323.362 173.961 323.364 173.978 323.381C173.995 323.399 173.964 323.411 173.91 323.409C173.848 323.406 173.836 323.394 173.878 323.377H173.878ZM174.554 323.378C174.597 323.364 174.643 323.364 174.685 323.378C174.721 323.393 174.692 323.404 174.62 323.404C174.548 323.404 174.518 323.393 174.554 323.378ZM173.94 328.008C173.056 327.918 172.201 327.227 171.894 326.356C171.835 326.19 171.774 325.866 171.759 325.636C171.709 324.909 171.933 324.294 172.446 323.74C173.391 322.718 175.012 322.678 176.001 323.651C176.516 324.157 176.764 324.751 176.764 325.479C176.764 326.209 176.526 326.797 176.028 327.294C175.48 327.843 174.755 328.091 173.94 328.008H173.94ZM175.211 327.424C176.736 326.67 176.849 324.586 175.413 323.683C175.01 323.43 174.671 323.345 174.155 323.37C173.785 323.388 173.638 323.422 173.351 323.556C172.891 323.774 172.521 324.144 172.302 324.603C172.148 324.93 172.135 324.995 172.135 325.505C172.135 326.014 172.148 326.079 172.302 326.406C172.569 326.969 173.035 327.374 173.652 327.579C173.781 327.622 174.044 327.642 174.339 327.633C174.77 327.62 174.856 327.6 175.211 327.424ZM193.985 327.924C194.151 327.914 194.41 327.914 194.56 327.924C194.71 327.935 194.574 327.943 194.257 327.943C193.941 327.943 193.818 327.935 193.985 327.924ZM190.239 327.872C190.225 327.849 190.506 327.832 190.863 327.832C191.22 327.832 191.512 327.849 191.512 327.871C191.512 327.893 191.231 327.91 190.887 327.91C190.543 327.91 190.252 327.893 190.239 327.872ZM170.762 324.668C170.762 324.568 170.773 324.527 170.786 324.576C170.799 324.637 170.799 324.699 170.786 324.76C170.773 324.81 170.762 324.769 170.762 324.668L170.762 324.668ZM196.656 323.491C196.656 323.232 196.664 323.12 196.675 323.241C196.686 323.362 196.686 323.575 196.675 323.712C196.665 323.849 196.656 323.749 196.656 323.491ZM182.714 323.06C182.867 323.05 183.102 323.05 183.237 323.06C183.373 323.071 183.249 323.08 182.961 323.08C182.673 323.08 182.562 323.071 182.714 323.06ZM200.298 324.7C200.298 324.69 200.339 324.648 200.389 324.609C200.472 324.544 200.474 324.546 200.409 324.629C200.341 324.716 200.298 324.743 200.298 324.7ZM170.404 323.557L170.304 323.439L170.422 323.539C170.533 323.632 170.564 323.674 170.522 323.674C170.512 323.674 170.459 323.622 170.404 323.557ZM190.773 323.53C190.708 323.447 190.71 323.446 190.793 323.51C190.843 323.55 190.884 323.591 190.884 323.602C190.884 323.645 190.841 323.618 190.773 323.53H190.773ZM177.071 323.084C177.094 323.061 177.334 323.049 177.605 323.058L178.097 323.074L177.563 323.1C177.27 323.113 177.049 323.107 177.071 323.084ZM191.573 330.698H188.412V331.571H190.608C189.729 332.635 189.16 333.951 189.054 335.327H190.059C190.079 334.09 190.601 332.358 191.573 331.505V330.698ZM186.713 335.327H187.751V334.308H186.713V335.327ZM186.059 330.698H182.897V331.571H185.093C184.213 332.635 183.645 333.951 183.539 335.327H184.544C184.564 334.09 185.086 332.358 186.059 331.505V330.698ZM180.041 332.993C180.041 332.51 180.035 331.379 180.795 331.379C181.562 331.379 181.562 332.51 181.562 332.992C181.562 333.515 181.562 334.646 180.795 334.646C180.041 334.646 180.041 333.515 180.041 332.992L180.041 332.993ZM179.102 332.993C179.102 334.838 179.876 335.419 180.795 335.419C181.721 335.419 182.502 334.838 182.502 332.993C182.502 331.187 181.721 330.605 180.795 330.605C179.876 330.605 179.102 331.188 179.102 332.993ZM178.425 330.698H177.677C177.571 331.406 176.976 331.637 176.321 331.617V332.325H177.485V335.327H178.425V330.698Z" fill="#4EDEDE"/>
<defs>
<filter id="filter0_f_2_343" x="121.958" y="257.64" width="124.377" height="124.377" filterUnits="userSpaceOnUse" color-interpolation-filters="sRGB">
<feFlood flood-opacity="0" result="BackgroundImageFix"/>
<feBlend mode="normal" in="SourceGraphic" in2="BackgroundImageFix" result="shape"/>
<feGaussianBlur stdDeviation="12.0945" result="effect1_foregroundBlur_2_343"/>
</filter>
<filter id="filter1_f_2_343" x="143.044" y="278.806" width="82.4034" height="82.4038" filterUnits="userSpaceOnUse" color-interpolation-filters="sRGB">
<feFlood flood-opacity="0" result="BackgroundImageFix"/>
<feBlend mode="normal" in="SourceGraphic" in2="BackgroundImageFix" result="shape"/>
<feGaussianBlur stdDeviation="4.15748" result="effect1_foregroundBlur_2_343"/>
</filter>
<filter id="filter2_f_2_343" x="141.041" y="276.509" width="87.0195" height="87.0195" filterUnits="userSpaceOnUse" color-interpolation-filters="sRGB">
<feFlood flood-opacity="0" result="BackgroundImageFix"/>
<feBlend mode="normal" in="SourceGraphic" in2="BackgroundImageFix" result="shape"/>
<feGaussianBlur stdDeviation="7.93701" result="effect1_foregroundBlur_2_343"/>
</filter>
</defs>
</svg>
