<svg width="640" height="640" viewBox="0 0 640 640" fill="none" xmlns="http://www.w3.org/2000/svg">
<rect width="640" height="640" fill="#379442"/>
<g clip-path="url(#clip0_6_2)">
<path d="M233.985 223.938V345.113C233.985 349.214 239.115 361.273 241.307 365.414C262.456 405.379 320.781 405.732 343.447 366.671C378.187 306.798 294.298 248.284 247.16 303.035C245.039 305.494 243.947 308.974 241.519 310.585V223.938H261.608V267.886C331.843 239.297 400.664 314.741 358.075 381.307C318.472 443.207 213.889 413.612 213.889 341.35V223.938H233.977H233.985Z" fill="white"/>
<path d="M546.658 414.805H525.313V326.281C525.313 315.423 507.95 295.696 498.829 289.977C461.033 266.274 408.529 293.85 408.529 338.835V414.805H389.689V327.53C389.689 302.366 418.836 273.832 441.203 266.023C488.255 249.603 546.658 284.414 546.658 336.313V414.798V414.805Z" fill="white"/>
<path d="M519.027 414.805H498.939V333.815C498.939 318.251 475.637 305.878 460.938 308.376C452.241 309.853 436.151 323.641 436.151 332.566V414.813H416.062V332.566C416.062 328.653 421.106 317.277 423.353 313.491C448.87 270.517 519.027 288.924 519.027 336.337V414.821V414.805Z" fill="white"/>
<path d="M282.655 289.561C363.897 277.918 360.982 398.504 285.169 388.11C227.394 380.191 229.075 297.244 282.655 289.561ZM286.395 308.369C248.889 314.764 257.177 373.851 296.027 369.506C336.722 364.95 330.076 300.929 286.395 308.369Z" fill="white"/>
<path d="M133.527 289.238V343.863C133.527 348.483 138.005 360.181 140.409 364.604C151.196 384.441 170.145 394.984 192.543 395.974V414.813C162.297 416.432 133.794 396.893 121.145 370.056C117.484 362.286 113.431 348.553 113.431 340.1V308.078H92.085V289.238H133.527Z" fill="white"/>
<path d="M192.544 289.238V308.078H161.15C159.728 334.773 158.502 366.521 192.544 369.608V388.448C176.713 388.746 158.424 379.829 150.096 366.222C148.572 363.732 142.311 350.753 142.311 348.891V289.246H192.536L192.544 289.238Z" fill="white"/>
<path d="M161.149 223.938V261.608H192.543V281.697H141.061C140.723 280.778 142.318 280.196 142.318 279.812V223.93H161.157L161.149 223.938Z" fill="white"/>
<path d="M133.527 223.938V281.705H92.085V261.608H113.438V223.938H133.527Z" fill="white"/>
</g>
<defs>
<clipPath id="clip0_6_2">
<rect width="472" height="604" fill="white" transform="translate(84 18)"/>
</clipPath>
</defs>
</svg>
