<svg width="640" height="640" viewBox="0 0 640 640" fill="none" xmlns="http://www.w3.org/2000/svg">
<rect width="640" height="640" fill="#00BACE"/>
<g clip-path="url(#clip0_2_514)">
<path d="M190.514 260.319V290.131C190.514 291.579 189.332 292.761 187.884 292.761H160.096C159.4 292.765 158.733 293.043 158.241 293.535C157.749 294.028 157.47 294.694 157.466 295.39V360.274C157.466 361.722 156.285 362.903 154.837 362.903H120.977C120.278 362.903 119.608 362.627 119.112 362.134C118.617 361.641 118.336 360.973 118.333 360.274V295.39C118.329 294.697 118.052 294.032 117.563 293.54C117.074 293.049 116.411 292.769 115.718 292.761H87.9148C87.2173 292.761 86.5485 292.484 86.0554 291.991C85.5622 291.497 85.2852 290.829 85.2852 290.131V260.319C85.2852 258.871 86.467 257.69 87.9148 257.69H187.884C189.332 257.69 190.514 258.871 190.514 260.319ZM399.494 320.047L370.081 294.489C368.987 293.544 369.283 292.761 370.731 292.761H405.152C406.6 292.761 407.782 291.579 407.782 290.131V260.319C407.782 259.622 407.505 258.953 407.011 258.46C406.518 257.967 405.849 257.69 405.152 257.69H337.521C324.166 257.69 314.179 268.503 314.179 281.873C314.179 289.038 317.725 295.907 322.984 300.546L352.412 326.089C353.491 327.049 353.195 327.832 351.747 327.832H317.326C316.979 327.83 316.636 327.897 316.315 328.028C315.994 328.159 315.703 328.353 315.457 328.597C315.211 328.841 315.016 329.132 314.883 329.452C314.75 329.772 314.682 330.115 314.682 330.462V360.274C314.682 361.722 315.863 362.903 317.311 362.903H384.957C398.312 362.903 408.299 352.09 408.299 338.72C408.299 331.54 404.753 324.685 399.494 320.047ZM305.567 332.19C305.567 349.15 291.828 362.918 274.853 362.918H206.173C205.475 362.914 204.806 362.634 204.313 362.138C203.82 361.643 203.544 360.973 203.544 360.274V260.319C203.544 258.871 204.726 257.69 206.173 257.69H273.553C279.186 257.678 284.684 259.408 289.297 262.641C293.909 265.875 297.409 270.454 299.319 275.753C301.228 281.053 301.454 286.812 299.965 292.244C298.476 297.677 295.345 302.516 291 306.101C299.746 311.508 305.567 321.169 305.567 332.19ZM270.185 307.371L243.978 289.186C241.658 287.561 239.767 288.565 239.767 291.372V329.221C239.767 332.028 241.658 333.017 243.978 331.407L270.141 313.222C272.46 311.611 272.46 308.982 270.141 307.371M428.065 347.333C427.888 348.662 427.474 352.488 428.892 353.301C429.734 353.788 430.901 353.065 431.492 352.621C433.28 351.26 434.973 349.78 436.56 348.189C437.328 347.451 438.14 346.653 439.174 346.328C440.328 346.023 441.545 346.064 442.676 346.446C443.813 346.756 443.813 347.658 443.119 348.293C440.302 350.869 437.384 353.333 434.373 355.679C432.512 356.965 430.192 357.954 427.873 357.629C426.835 357.464 425.845 357.074 424.972 356.488C424.1 355.901 423.365 355.131 422.821 354.232C420.457 350.095 421.299 344.895 422.85 340.788C424.519 336.415 427.179 332.175 430.576 328.925C432.142 327.418 433.96 325.823 436.072 325.099C437.963 324.464 440.341 324.139 442.159 325.099C444.315 326.192 444.212 329.25 443.902 331.245C443.54 333.566 442.684 335.783 441.39 337.745C440.044 339.963 438.342 341.944 436.353 343.61C434.521 345.043 431.64 346.653 429.276 345.648C428.582 345.353 428.242 346.062 428.065 347.333ZM431.33 341.748C432.571 341.364 434.063 339.34 434.58 338.646C437.239 335.248 438.303 331.452 438.318 328.659C435.171 331.171 432.113 335.898 431.241 337.612C430.059 339.916 430.03 342.132 431.33 341.748ZM510.056 287.945C507.874 287.23 505.585 286.895 503.29 286.955C498.237 286.955 493.273 287.59 488.295 288.432C486.995 288.654 483.228 289.348 482.622 289.466L481.957 289.274C481.411 288.831 479.83 287.812 478.338 288.905C477.289 289.658 477.215 290.604 476.299 290.826C475.043 291.151 471.483 292.081 470.419 292.391C466.83 293.411 461.142 295.346 457.065 297.37C454.984 298.309 453.065 299.571 451.377 301.108C450.683 301.802 450.047 302.733 450.402 303.767C450.727 304.624 451.628 305.17 452.441 305.392C455.1 306.101 456.873 304.949 459 303.841C463.402 301.61 467.391 300.295 472.118 298.877C470.183 303.294 466.697 311.818 464.747 317.683C460.019 318.835 451.968 321.672 448.201 324.479C446.812 325.528 445.054 327.256 447.019 328.911C447.876 329.649 448.925 329.959 450.018 329.915C451.073 329.819 452.088 329.463 452.972 328.881C453.458 328.63 453.982 328.465 454.524 328.393C454.996 328.32 455.336 328.187 455.499 327.876L456.075 327.108C458.365 325.956 460.374 325.321 462.427 324.671C460.078 331.363 458.143 338.232 457.05 345.25C456.311 350.169 455.661 355.369 456.311 360.318C456.459 361.411 456.725 362.593 457.567 363.48C458.276 364.218 459.177 364.543 460.211 364.543C461.009 364.543 462.279 364.026 461.866 363.007C461.482 362.061 461.748 360.865 461.807 359.845C462.427 349.947 464.688 340.094 467.48 330.595C468.026 328.778 469.105 325.572 470.109 322.632C473.729 321.613 478.663 320.8 480.982 320.446C482.652 320.18 488.96 319.293 490.201 319.677C491.781 320.165 495.12 318.555 493.288 316.723C491.707 315.157 489.093 314.95 487.01 314.847C482.144 314.711 477.279 315.152 472.517 316.161C474.438 310.666 480.273 297.296 480.569 296.69C487.307 295.081 494.148 293.94 501.044 293.278C502.344 293.174 505.299 292.982 505.446 292.982C505.89 293.499 506.481 293.839 507.204 294.031C508.266 294.27 509.373 294.212 510.404 293.866C511.435 293.52 512.352 292.897 513.055 292.066C514.488 290.013 511.607 288.506 510.056 287.945Z" fill="white"/>
<path d="M496.759 349.844C498.901 342.28 505.372 328.94 507.544 324.907C509.715 320.844 512.02 316.855 514.458 312.94C516.91 309.011 522.302 301.683 523.469 299.571C523.957 298.714 524.843 296.587 525.596 295.937C526.306 295.301 527.325 295.449 528.137 295.641C528.979 295.863 530.309 296.587 530.457 297.517C530.619 298.478 530.353 299.6 530.147 300.546C529.159 303.965 528.114 307.369 527.015 310.754C524.134 319.78 520.721 338.66 520.736 338.749C521.371 336.725 525.094 328.364 526.143 326.266C528.226 322.085 530.457 317.963 532.82 313.915C537.592 305.716 542.792 298.182 548.229 290.411C548.761 289.673 549.514 288.432 550.519 288.328C551.124 288.281 551.733 288.376 552.295 288.607C552.857 288.838 553.357 289.198 553.754 289.658C555.01 291.268 554.108 293.898 553.577 295.552C552.291 299.541 540.488 335.336 537.725 364.617C537.282 369.344 537.105 374.071 537.267 378.814C537.297 379.951 537.297 382.743 537.636 383.689C537.814 384.176 537.829 384.501 537.297 384.797C536.828 385 536.316 385.086 535.807 385.048C535.297 385.009 534.805 384.847 534.372 384.575C529.718 381.369 530.353 362.031 531.107 354.586C532.052 345.205 534.283 335.898 536.632 326.812C537.666 322.75 542.423 307.09 543.442 304.446C542.438 305.953 528.374 330.934 521.209 350.287C520.751 351.528 519.938 354.423 519.525 355.487C518.934 357.082 517.501 358.781 515.093 358.323C514.046 358.102 513.104 357.534 512.419 356.713C510.617 354.63 511.636 347.716 512.168 343.476C513.793 330.579 519.599 312.453 519.968 311.315C518.83 312.822 514.398 320.741 513.32 322.794C511.222 326.871 509.302 331.052 507.514 335.292C505.704 339.596 504.044 343.962 502.536 348.381C501.797 350.597 499.241 358.899 497.616 361.175C496.434 362.844 494.13 362.947 492.372 362.342C490.599 361.751 489.476 360.14 489.166 357.998C488.663 353.353 488.892 348.657 489.846 344.082C494.277 320.829 502.506 298.817 504.279 297.384C505.003 296.793 506.14 296.793 507.012 296.941C507.898 297.089 509.095 297.458 509.479 298.418L509.376 299.689C509.257 300.206 509.272 300.9 509.272 301.417C509.272 301.949 509.051 302.304 508.799 302.717C508.492 303.167 508.253 303.66 508.09 304.18C507.396 306.499 499.153 332.662 496.759 349.844Z" fill="white"/>
</g>
<defs>
<clipPath id="clip0_2_514">
<rect width="472" height="131.771" fill="white" transform="translate(84 254.114)"/>
</clipPath>
</defs>
</svg>
