<svg width="640" height="640" viewBox="0 0 640 640" fill="none" xmlns="http://www.w3.org/2000/svg">
<rect width="640" height="640" fill="#00BACE"/>
<path d="M198.008 256.12V288.03C198.008 289.579 196.743 290.844 195.193 290.844H165.45C164.705 290.849 163.991 291.146 163.464 291.673C162.937 292.2 162.64 292.914 162.635 293.659V363.107C162.635 364.657 161.37 365.922 159.821 365.922H123.579C122.831 365.922 122.113 365.626 121.583 365.098C121.053 364.571 120.752 363.855 120.748 363.107V293.659C120.744 292.916 120.449 292.205 119.925 291.679C119.402 291.152 118.692 290.853 117.949 290.844H88.1905C87.444 290.844 86.7283 290.548 86.2004 290.02C85.6726 289.492 85.376 288.776 85.376 288.03V256.12C85.376 254.571 86.6409 253.306 88.1905 253.306H195.193C196.743 253.306 198.008 254.571 198.008 256.12ZM421.69 320.05L390.207 292.694C389.037 291.682 389.353 290.844 390.903 290.844H427.746C429.295 290.844 430.561 289.579 430.561 288.03V256.12C430.561 255.374 430.264 254.658 429.736 254.13C429.208 253.602 428.492 253.306 427.746 253.306H355.357C341.062 253.306 330.373 264.88 330.373 279.191C330.373 286.86 334.168 294.212 339.797 299.177L371.296 326.517C372.45 327.545 372.134 328.383 370.584 328.383H333.741C333.37 328.381 333.003 328.452 332.659 328.593C332.316 328.733 332.004 328.94 331.741 329.202C331.478 329.463 331.269 329.774 331.127 330.117C330.984 330.459 330.911 330.827 330.911 331.198V363.107C330.911 364.657 332.176 365.922 333.725 365.922H406.13C420.425 365.922 431.114 354.347 431.114 340.037C431.114 332.352 427.319 325.015 421.69 320.05ZM321.155 333.048C321.155 351.2 306.449 365.937 288.281 365.937H214.753C214.005 365.933 213.289 365.633 212.762 365.103C212.234 364.572 211.938 363.855 211.938 363.107V256.12C211.938 254.571 213.203 253.306 214.753 253.306H286.873C292.902 253.294 298.788 255.145 303.724 258.606C308.661 262.067 312.407 266.969 314.451 272.641C316.495 278.312 316.737 284.477 315.143 290.292C313.55 296.106 310.198 301.286 305.548 305.123C314.909 310.91 321.155 321.252 321.155 333.048ZM283.268 306.483L255.217 287.018C252.734 285.278 250.71 286.354 250.71 289.358V329.869C250.71 332.874 252.734 333.933 255.217 332.21L283.252 312.744C285.735 311.021 285.735 308.206 283.252 306.483M506.666 285.689C504.33 284.924 501.88 284.566 499.424 284.63C494.016 284.63 488.703 285.31 483.374 286.211C481.982 286.448 477.95 287.192 477.302 287.318L476.59 287.113C476.005 286.638 474.314 285.547 472.716 286.717C471.594 287.524 471.515 288.536 470.534 288.773C469.19 289.121 465.379 290.117 464.241 290.449C460.398 291.54 454.311 293.611 449.947 295.778C447.72 296.783 445.665 298.133 443.859 299.778C443.116 300.521 442.436 301.518 442.815 302.625C443.163 303.542 444.128 304.127 444.997 304.364C447.843 305.123 449.741 303.89 452.018 302.704C456.73 300.316 460.999 298.909 466.059 297.391C463.988 302.118 460.256 311.242 458.169 317.52C453.109 318.753 444.491 321.789 440.459 324.794C438.973 325.916 437.091 327.766 439.194 329.537C440.111 330.328 441.234 330.66 442.404 330.613C443.533 330.509 444.619 330.129 445.566 329.506C446.086 329.237 446.648 329.061 447.227 328.984C447.733 328.905 448.096 328.762 448.27 328.43L448.887 327.608C451.338 326.375 453.488 325.695 455.686 324.999C453.172 332.162 451.101 339.515 449.931 347.026C449.14 352.291 448.444 357.857 449.14 363.154C449.298 364.325 449.583 365.589 450.484 366.538C451.243 367.329 452.208 367.677 453.315 367.677C454.168 367.677 455.528 367.123 455.086 366.032C454.674 365.02 454.959 363.739 455.022 362.648C455.686 352.054 458.106 341.507 461.094 331.34C461.679 329.395 462.834 325.964 463.909 322.817C467.783 321.726 473.064 320.856 475.547 320.477C477.334 320.192 484.085 319.243 485.414 319.655C487.106 320.176 490.679 318.453 488.719 316.492C487.027 314.816 484.228 314.594 481.998 314.484C476.79 314.338 471.583 314.811 466.486 315.891C468.542 310.009 474.788 295.699 475.104 295.05C482.316 293.327 489.639 292.107 497.02 291.398C498.412 291.287 501.574 291.082 501.732 291.082C502.206 291.635 502.839 291.999 503.614 292.204C504.75 292.459 505.935 292.398 507.039 292.027C508.142 291.657 509.124 290.99 509.875 290.101C511.409 287.903 508.326 286.29 506.666 285.689Z" fill="white"/>
<path d="M492.277 351.943C494.57 343.847 501.495 329.569 503.82 325.252C506.144 320.903 508.611 316.634 511.22 312.444C513.845 308.238 519.616 300.395 520.866 298.134C521.387 297.216 522.336 294.939 523.143 294.244C523.902 293.564 524.993 293.722 525.862 293.927C526.764 294.165 528.187 294.939 528.345 295.936C528.519 296.963 528.234 298.165 528.013 299.177C526.955 302.837 525.838 306.48 524.66 310.103C521.577 319.765 517.925 339.973 517.94 340.068C518.62 337.902 522.605 328.952 523.728 326.707C525.957 322.232 528.345 317.82 530.875 313.487C535.982 304.712 541.548 296.647 547.367 288.33C547.936 287.539 548.743 286.211 549.818 286.1C550.466 286.049 551.118 286.151 551.719 286.398C552.321 286.646 552.856 287.031 553.281 287.523C554.625 289.247 553.66 292.062 553.091 293.833C551.715 298.102 539.081 336.415 536.124 367.756C535.65 372.815 535.46 377.875 535.634 382.951C535.666 384.169 535.666 387.157 536.03 388.169C536.219 388.691 536.235 389.039 535.666 389.355C535.164 389.573 534.617 389.665 534.071 389.624C533.526 389.582 532.998 389.409 532.535 389.118C527.554 385.687 528.234 364.988 529.041 357.019C530.053 346.978 532.44 337.016 534.954 327.292C536.061 322.943 541.153 306.182 542.244 303.352C541.169 304.964 526.115 331.703 518.446 352.417C517.956 353.746 517.086 356.845 516.644 357.983C516.011 359.691 514.477 361.51 511.9 361.019C510.78 360.782 509.772 360.175 509.038 359.296C507.109 357.066 508.2 349.666 508.769 345.128C510.508 331.324 516.723 311.922 517.118 310.704C515.9 312.317 511.157 320.793 510.003 322.991C507.757 327.355 505.701 331.83 503.788 336.368C501.851 340.975 500.073 345.648 498.459 350.378C497.669 352.75 494.933 361.636 493.194 364.071C491.929 365.858 489.462 365.969 487.581 365.32C485.683 364.688 484.481 362.964 484.149 360.671C483.61 355.699 483.856 350.673 484.877 345.776C489.62 320.888 498.428 297.327 500.325 295.793C501.1 295.161 502.318 295.161 503.251 295.319C504.199 295.477 505.48 295.872 505.891 296.9L505.781 298.26C505.654 298.813 505.67 299.557 505.67 300.11C505.67 300.679 505.433 301.059 505.164 301.502C504.835 301.983 504.579 302.51 504.405 303.067C503.662 305.55 494.838 333.553 492.277 351.943Z" fill="white"/>
</svg>
