<svg width="640" height="640" viewBox="0 0 640 640" fill="none" xmlns="http://www.w3.org/2000/svg">
<rect width="640" height="640" fill="#F15A22"/>
<g clip-path="url(#clip0_8_167)">
<path d="M385.87 340.835H439.85V333.147H385.87V340.835ZM343.132 348.342H350.811V340.835H365.739V333.147H326.64V340.835H343.132V348.342ZM534.799 329.383V320.471H527.113V329.383H505.09V337.069H556V329.383H534.799Z" fill="white"/>
<path d="M371.21 319.875H362.465V327.559H371.211V351.416H378.9V304.767H371.211L371.21 319.875ZM491.48 304.469H483.794V337.41H491.48V324.415H500.232V316.732H491.48V304.469ZM344.283 306.366C346.431 306.367 348.491 307.221 350.011 308.74C351.53 310.259 352.384 312.319 352.386 314.468C352.385 316.617 351.531 318.677 350.011 320.197C348.492 321.717 346.432 322.572 344.283 322.574C342.134 322.571 340.073 321.716 338.554 320.197C337.034 318.677 336.179 316.617 336.176 314.468C336.18 312.319 337.035 310.26 338.555 308.741C340.074 307.222 342.134 306.368 344.283 306.366ZM344.283 330.262C352.988 330.262 360.072 323.176 360.072 314.468C360.072 305.759 352.988 298.678 344.283 298.678C335.574 298.678 328.49 305.759 328.49 314.468C328.49 323.176 335.574 330.262 344.283 330.262ZM412.457 306.366C414.606 306.367 416.667 307.221 418.187 308.74C419.707 310.259 420.563 312.319 420.567 314.468C420.564 316.617 419.709 318.678 418.188 320.198C416.668 321.718 414.607 322.572 412.457 322.574C410.308 322.571 408.249 321.716 406.73 320.196C405.21 318.676 404.356 316.616 404.354 314.468C404.357 312.319 405.212 310.26 406.731 308.741C408.25 307.223 410.309 306.368 412.457 306.366ZM412.457 330.262C421.166 330.262 428.247 323.176 428.247 314.468C428.247 305.759 421.164 298.678 412.457 298.678C403.752 298.678 396.668 305.759 396.668 314.468C396.668 323.176 403.75 330.262 412.457 330.262ZM477.197 362.398C475.047 362.396 472.987 361.542 471.466 360.023C469.946 358.504 469.09 356.444 469.087 354.294C469.09 352.145 469.946 350.084 471.466 348.565C472.986 347.045 475.047 346.19 477.197 346.188C479.345 346.191 481.405 347.046 482.923 348.566C484.442 350.086 485.296 352.146 485.297 354.294C485.295 356.442 484.441 358.502 482.923 360.021C481.404 361.54 479.345 362.396 477.197 362.398ZM477.197 338.505C468.491 338.505 461.407 345.587 461.407 354.294C461.407 363.001 468.491 370.084 477.197 370.084C485.905 370.084 492.986 363.001 492.986 354.294C492.986 345.586 485.905 338.505 477.197 338.505ZM531.116 362.398C528.967 362.396 526.907 361.541 525.387 360.022C523.868 358.503 523.013 356.443 523.009 354.294C523.013 352.145 523.868 350.085 525.387 348.566C526.907 347.046 528.967 346.191 531.116 346.188C533.265 346.191 535.324 347.046 536.844 348.566C538.363 350.085 539.217 352.146 539.219 354.294C539.219 358.762 535.584 362.398 531.116 362.398ZM531.116 338.505C522.407 338.505 515.322 345.587 515.322 354.294C515.322 363.001 522.407 370.084 531.116 370.084C539.821 370.084 546.905 363.001 546.905 354.294C546.905 345.586 539.821 338.505 531.116 338.505ZM509.72 325.512C518.671 322.671 525.392 318.226 529.701 312.299C533.926 315.893 542.423 322.027 553.252 324.159L553.499 324.209L554.981 316.672L554.737 316.621C544.15 314.535 535.834 307.546 533.354 305.27C534.167 302.811 534.263 301.124 534.27 300.935L534.283 300.686L526.619 300.281L526.599 300.528C526.562 301.012 525.54 312.426 507.397 318.185L507.153 318.26L509.483 325.589L509.72 325.512ZM357.1 360.996C349.661 360.996 344.414 359.476 342.741 358.921V349.753H335.058V364.011L335.192 364.083C335.276 364.127 343.816 368.598 357.046 368.598C364.259 368.598 371.557 367.286 378.733 364.704L378.9 364.646V356.3L378.545 356.461C371.826 359.467 364.613 360.996 357.1 360.996ZM426.667 352.809V359.761C426.664 360.092 426.531 360.409 426.297 360.644C426.064 360.879 425.748 361.014 425.417 361.019L400.642 361.038C400.311 361.032 399.996 360.898 399.762 360.663C399.529 360.429 399.396 360.113 399.392 359.782V352.762L426.667 352.809ZM391.707 359.782C391.71 362.15 392.651 364.421 394.325 366.096C395.999 367.772 398.268 368.717 400.636 368.723L425.433 368.755C431.596 368.755 434.354 364.238 434.354 359.761V345.067L391.707 345.064V359.782ZM467.176 327.73C467.171 328.058 467.038 328.371 466.806 328.604C466.574 328.836 466.261 328.969 465.933 328.975L461.896 328.97V328.964L459.321 328.969L457.005 328.964L452.715 328.975C452.386 328.97 452.072 328.837 451.839 328.605C451.606 328.372 451.473 328.058 451.468 327.73V320.976H467.175L467.176 327.73ZM474.862 327.73V304.767H467.176V313.293H451.468V304.767H443.785V327.731C443.789 330.099 444.732 332.37 446.407 334.044C448.082 335.718 450.353 336.659 452.722 336.661L459.323 336.652L465.926 336.661C468.294 336.659 470.565 335.718 472.24 334.044C473.916 332.37 474.859 330.099 474.862 327.731" fill="white"/>
<path d="M159.267 297.299H143.241C143.198 309.812 143.241 344.147 143.241 344.147C143.38 350.646 141.446 353.559 136.779 353.559C131.039 353.559 129.755 349.403 129.755 344.153V297.303H113.513V344.153C113.513 349.403 112.228 353.559 106.488 353.559C101.821 353.559 99.887 350.646 100.031 344.147C100.031 344.147 100.075 309.81 100.031 297.299H84C84.0509 310.108 84 345.635 84 348.2C84 356.756 89.8028 369.686 105.844 369.806C112.24 369.849 117.611 368.418 121.634 365.159C125.656 368.417 131.024 369.849 137.422 369.806C153.467 369.686 159.267 356.756 159.267 348.2C159.267 345.635 159.216 310.108 159.267 297.299ZM266.035 325.249C259.386 325.249 254.926 323.44 254.926 318.625C254.926 313.356 260.483 312.204 265.768 312.204H298.301V297.297H265.768C246.009 297.297 237.065 306.198 237.167 319.594C237.286 334.32 251.733 339.954 261.959 339.954L275.307 339.957C281.163 339.957 286.419 341.459 286.419 346.992C286.419 352.259 281.717 353.824 275.577 353.824H241.267V368.731H275.577C295.33 368.731 304.28 359.42 304.175 346.023C304.059 331.296 293.346 325.255 277.332 325.255L266.035 325.249Z" fill="white"/>
<path d="M228.115 293.694C226.042 293.654 224.066 292.803 222.613 291.322C221.161 289.841 220.347 287.85 220.347 285.775C220.347 283.701 221.161 281.709 222.613 280.229C224.066 278.748 226.042 277.896 228.115 277.856C229.155 277.856 230.185 278.061 231.145 278.459C232.106 278.857 232.979 279.441 233.714 280.176C234.449 280.911 235.032 281.784 235.43 282.745C235.827 283.706 236.032 284.735 236.031 285.775C236.032 286.815 235.827 287.845 235.429 288.805C235.031 289.766 234.448 290.639 233.713 291.374C232.978 292.109 232.106 292.693 231.145 293.091C230.185 293.489 229.155 293.694 228.115 293.694ZM228.115 269.913C219.356 269.913 212.255 277.014 212.255 285.775C212.255 294.538 219.356 301.639 228.115 301.639C236.878 301.639 243.976 294.538 243.976 285.775C243.976 277.014 236.878 269.913 228.115 269.913ZM217.673 344.014C217.48 347.596 215.424 352.549 209.624 352.754C206.008 352.754 192.964 352.734 183.388 352.653V312.92C188.545 312.884 191.826 312.916 194.839 312.916C198.043 312.916 200.985 313.751 202.817 315.544C204.912 317.595 205.976 320.586 204.577 326.008C203.812 328.959 202.624 330.953 201.828 332.046C201.687 332.334 201.474 332.967 202.355 333.074L202.377 333.079C204.232 333.127 207.556 333.278 209.803 333.783C214.856 334.916 218.034 337.288 217.673 344.014ZM227.964 329.375C225.47 326.943 222.17 325.167 219.568 324.772C220.092 322.75 220.409 321.248 220.409 318.732C220.409 303.256 207.169 297.237 198.27 296.966H167.502V368.752C167.502 368.752 205.079 368.737 210.485 368.737C219.202 368.729 233.674 361.765 233.674 345.346C233.674 336.972 230.783 332.12 227.964 329.375Z" fill="white"/>
</g>
<defs>
<clipPath id="clip0_8_167">
<rect width="472" height="100.17" fill="white" transform="translate(84 269.914)"/>
</clipPath>
</defs>
</svg>
