<svg width="640" height="640" viewBox="0 0 640 640" fill="none" xmlns="http://www.w3.org/2000/svg">
<rect width="640" height="640" fill="#1C9DE9"/>
<mask id="mask0_2_490" style="mask-type:luminance" maskUnits="userSpaceOnUse" x="84" y="281" width="472" height="78">
<path d="M556 281.48H84V358.519H556V281.48Z" fill="white"/>
</mask>
<g mask="url(#mask0_2_490)">
<path d="M365.933 287.104V320.843H338.379V332.09C350.188 331.78 363.296 333.051 374.368 328.997V287.104H388.427V312.408H398.548V325.904H388.427V349.241C388.427 350.05 386.661 353.458 385.896 353.458H374.368V342.212C357.825 344.781 341.028 343.685 324.321 343.898V309.597H352.438V298.912H325.165L324.321 298.069V287.104H365.933Z" fill="white"/>
<path d="M519.449 339.963H547.565V349.241C547.565 350.366 544.253 352.334 543.347 352.334H476.149V339.963H503.703L503.169 332.905C487.733 330.161 477.842 321.642 480.136 304.862C483.651 279.198 546.125 278.304 543.561 311.492C542.566 324.369 531.831 331.247 519.988 332.905L519.449 339.957V339.963ZM509.209 297.957C490.359 299.694 491.13 319.708 506.791 321.411C516.873 322.508 529.987 320.366 527.748 307.201C526.371 299.093 516.024 297.327 509.209 297.957Z" fill="white"/>
<path d="M446.909 287.104V298.631L446.065 299.475H418.23V332.09C430.596 331.966 443.406 332.731 455.344 329.278V287.104H468.84V350.928C468.84 351.22 467.102 353.458 466.871 353.458H455.344C455.344 352.856 455.344 352.783 455.344 352.615V342.212C438.609 344.753 421.627 343.696 404.734 343.898V287.104H446.909Z" fill="white"/>
<path d="M155.078 286.671H140.143L123.605 312.628L107.005 286.671H84L108.939 325.713V352.727H122.756C127.833 352.727 130.319 349.629 130.319 344.186V325.539L155.078 286.671Z" fill="white"/>
<path d="M223.541 286.671H155.843V299.188H178.994V352.727H192.827C197.815 352.727 200.379 349.803 200.379 344.186V299.188H223.541V286.671Z" fill="white"/>
<path d="M235.418 286.671C230.526 286.671 227.854 290.039 227.854 295.185V352.727H246.563V310.986L274.123 352.727H286.336C291.229 352.727 293.905 349.342 293.905 344.186V286.671H275.186V328.396L247.632 286.671H235.412H235.418Z" fill="white"/>
</g>
</svg>
